SplineFontDB: 3.0
FontName: Ledger-Regular
FullName: Ledger
FamilyName: Ledger
Weight: Book
Copyright: Copyright (c) 2011, Denis Masharov <denis.masharov@gmail.com>.
Version: 1.001
ItalicAngle: 0
UnderlinePosition: -50
UnderlineWidth: 50
Ascent: 800
Descent: 200
sfntRevision: 0x00010042
LayerCount: 2
Layer: 0 1 "Back"  1
Layer: 1 1 "Fore"  0
XUID: [1021 430 1190209368 14426704]
FSType: 0
OS2Version: 2
OS2_WeightWidthSlopeOnly: 0
OS2_UseTypoMetrics: 1
CreationTime: 1329487371
ModificationTime: 1329506948
PfmFamily: 17
TTFWeight: 400
TTFWidth: 5
LineGap: 0
VLineGap: 0
Panose: 2 0 5 5 8 0 0 2 0 3
OS2TypoAscent: 262
OS2TypoAOffset: 1
OS2TypoDescent: -129
OS2TypoDOffset: 1
OS2TypoLinegap: 0
OS2WinAscent: 0
OS2WinAOffset: 1
OS2WinDescent: 0
OS2WinDOffset: 1
HheadAscent: 0
HheadAOffset: 1
HheadDescent: 0
HheadDOffset: 1
OS2SubXSize: 700
OS2SubYSize: 650
OS2SubXOff: 0
OS2SubYOff: 140
OS2SupXSize: 700
OS2SupYSize: 650
OS2SupXOff: 0
OS2SupYOff: 477
OS2StrikeYSize: 50
OS2StrikeYPos: 250
OS2Vendor: 'pyrs'
OS2CodePages: 00000097.00000000
OS2UnicodeRanges: a000022f.1000204a.00000000.00000000
Lookup: 258 0 0 "'kern' Horizontal Kerning in Latin lookup 0"  {"'kern' Horizontal Kerning in Latin lookup 0 subtable"  } ['kern' ('latn' <'dflt' > ) ]
DEI: 91125
TtTable: prep
PUSHW_1
 511
SCANCTRL
PUSHB_1
 4
SCANTYPE
EndTTInstrs
ShortTable: maxp 16
  1
  0
  452
  68
  7
  0
  0
  2
  0
  1
  1
  0
  64
  0
  0
  0
EndShort
LangName: 1033 "" "" "" "DenisMasharov: Ledger: 2011" "" "1.001" "" "Ledger is a trademark of Denis Masharov." "Denis Masharov" "Denis Masharov" "" "denis.masharov@gmail.com" "denis.masharov@gmail.com" "This Font Software is licensed under the SIL Open Font License, Version 1.1. This license is available with a FAQ at: http://scripts.sil.org/OFL" "http://scripts.sil.org/OFL" 
GaspTable: 1 65535 15 1
Encoding: UnicodeBmp
UnicodeInterp: none
NameList: Adobe Glyph List
DisplaySize: -24
AntiAlias: 1
FitToEm: 1
BeginChars: 65539 452

StartChar: exclam
Encoding: 33 33 6
Width: 341
GlyphClass: 2
Flags: W
LayerCount: 2
Fore
SplineSet
123 100.5 m 128,-1,1
 141 119 141 119 170 119 c 128,-1,2
 199 119 199 119 217.5 101.5 c 128,-1,3
 236 84 236 84 236 55 c 128,-1,4
 236 26 236 26 218 7.5 c 128,-1,5
 200 -11 200 -11 171 -11 c 128,-1,6
 142 -11 142 -11 123.5 8 c 128,-1,7
 105 27 105 27 105 54.5 c 128,-1,0
 105 82 105 82 123 100.5 c 128,-1,1
191 183 m 1,8,-1
 150 183 l 1,9,-1
 114 750 l 1,10,-1
 228 750 l 1,11,-1
 191 183 l 1,8,-1
EndSplineSet
EndChar

StartChar: quotedbl
Encoding: 34 34 7
Width: 337
GlyphClass: 2
Flags: W
LayerCount: 2
Fore
SplineSet
107 544 m 1,0,-1
 60 544 l 1,1,-1
 22 795 l 1,2,-1
 144 795 l 1,3,-1
 107 544 l 1,0,-1
278 544 m 1,4,-1
 231 544 l 1,5,-1
 193 795 l 1,6,-1
 315 795 l 1,7,-1
 278 544 l 1,4,-1
EndSplineSet
EndChar

StartChar: numbersign
Encoding: 35 35 8
Width: 647
GlyphClass: 2
Flags: W
LayerCount: 2
Fore
SplineSet
396 454 m 1,0,-1
 283 454 l 1,1,-1
 263 313 l 1,2,-1
 376 313 l 1,3,-1
 396 454 l 1,0,-1
47 277 m 1,4,-1
 47 313 l 1,5,-1
 193 313 l 1,6,-1
 214 454 l 1,7,-1
 76 454 l 1,8,-1
 76 493 l 1,9,-1
 218 493 l 1,10,-1
 255 750 l 1,11,-1
 325 750 l 1,12,-1
 289 493 l 1,13,-1
 400 493 l 1,14,-1
 439 750 l 1,15,-1
 504 750 l 1,16,-1
 469 493 l 1,17,-1
 598 493 l 1,18,-1
 598 454 l 1,19,-1
 463 454 l 1,20,-1
 444 313 l 1,21,-1
 571 313 l 1,22,-1
 571 277 l 1,23,-1
 439 277 l 1,24,-1
 399 0 l 1,25,-1
 333 0 l 1,26,-1
 371 277 l 1,27,-1
 258 277 l 1,28,-1
 219 0 l 1,29,-1
 151 0 l 1,30,-1
 189 277 l 1,31,-1
 47 277 l 1,4,-1
EndSplineSet
EndChar

StartChar: dollar
Encoding: 36 36 9
Width: 647
GlyphClass: 2
Flags: W
LayerCount: 2
Fore
SplineSet
284 -9 m 1,0,1
 170 -4 170 -4 62 63 c 1,2,-1
 62 228 l 1,3,-1
 120 228 l 1,4,-1
 163 66 l 1,5,6
 216 32 216 32 284 30 c 1,7,-1
 284 335 l 1,8,9
 275 339 275 339 259 347 c 128,-1,10
 243 355 243 355 238 357 c 0,11,12
 57 431 57 431 57 559 c 0,13,14
 57 637 57 637 115.5 696 c 128,-1,15
 174 755 174 755 284 759 c 1,16,-1
 284 842 l 1,17,-1
 325 842 l 1,18,-1
 325 758 l 1,19,20
 455 748 455 748 523 682 c 1,21,-1
 523 536 l 1,22,-1
 472 536 l 1,23,-1
 426 688 l 1,24,25
 379 712 379 712 325 717 c 1,26,-1
 325 437 l 1,27,-1
 366 418 l 1,28,29
 569 338 569 338 569 196 c 0,30,31
 569 134 569 134 530 88 c 0,32,33
 458 2 458 2 325 -7 c 1,34,-1
 325 -85 l 1,35,-1
 284 -85 l 1,36,-1
 284 -9 l 1,0,1
468 151 m 1,37,38
 466 211 466 211 428.5 248 c 128,-1,39
 391 285 391 285 325 317 c 1,40,-1
 325 32 l 1,41,42
 360 37 360 37 389 48 c 128,-1,43
 418 59 418 59 442 86 c 128,-1,44
 466 113 466 113 468 151 c 1,37,38
193 682.5 m 128,-1,46
 156 652 156 652 156 602 c 128,-1,47
 156 552 156 552 190.5 518.5 c 128,-1,48
 225 485 225 485 284 455 c 1,49,-1
 284 717 l 1,50,45
 230 713 230 713 193 682.5 c 128,-1,46
EndSplineSet
EndChar

StartChar: percent
Encoding: 37 37 10
Width: 848
GlyphClass: 2
Flags: W
LayerCount: 2
Fore
SplineSet
649 350 m 0,0,1
 562 350 562 350 562 192 c 0,2,3
 562 106 562 106 582.5 66 c 128,-1,4
 603 26 603 26 651 26 c 0,5,6
 739 26 739 26 739 186 c 0,7,8
 739 269 739 269 718.5 309.5 c 128,-1,9
 698 350 698 350 649 350 c 0,0,1
529.5 330.5 m 128,-1,11
 573 379 573 379 650 379 c 128,-1,12
 727 379 727 379 772 329.5 c 128,-1,13
 817 280 817 280 817 187 c 128,-1,14
 817 94 817 94 771.5 44.5 c 128,-1,15
 726 -5 726 -5 650.5 -5 c 128,-1,16
 575 -5 575 -5 530.5 45 c 128,-1,17
 486 95 486 95 486 188.5 c 128,-1,10
 486 282 486 282 529.5 330.5 c 128,-1,11
701 759 m 1,18,-1
 182 -35 l 1,19,-1
 147 -11 l 1,20,-1
 665 784 l 1,21,-1
 701 759 l 1,18,-1
196 724 m 0,22,23
 109 724 109 724 109 567 c 0,24,25
 109 481 109 481 129 440.5 c 128,-1,26
 149 400 149 400 197 400 c 0,27,28
 286 400 286 400 286 560 c 0,29,30
 286 644 286 644 265.5 684 c 128,-1,31
 245 724 245 724 196 724 c 0,22,23
75 705 m 128,-1,33
 119 754 119 754 196 754 c 128,-1,34
 273 754 273 754 317.5 704.5 c 128,-1,35
 362 655 362 655 362 560.5 c 128,-1,36
 362 466 362 466 317.5 418 c 128,-1,37
 273 370 273 370 197.5 370 c 128,-1,38
 122 370 122 370 76.5 420.5 c 128,-1,39
 31 471 31 471 31 563.5 c 128,-1,32
 31 656 31 656 75 705 c 128,-1,33
EndSplineSet
EndChar

StartChar: ampersand
Encoding: 38 38 11
Width: 804
GlyphClass: 2
Flags: W
LayerCount: 2
Fore
SplineSet
322 -15 m 0,0,1
 208 -15 208 -15 131.5 43.5 c 128,-1,2
 55 102 55 102 55 195 c 0,3,4
 55 263 55 263 94.5 307.5 c 128,-1,5
 134 352 134 352 236 408 c 1,6,7
 180 467 180 467 159.5 508 c 128,-1,8
 139 549 139 549 139 598 c 0,9,10
 139 673 139 673 196 719 c 128,-1,11
 253 765 253 765 339 765 c 128,-1,12
 425 765 425 765 478 720.5 c 128,-1,13
 531 676 531 676 531 609.5 c 128,-1,14
 531 543 531 543 492 505.5 c 128,-1,15
 453 468 453 468 351 424 c 1,16,-1
 585 187 l 1,17,18
 613 243 613 243 623.5 286.5 c 128,-1,19
 634 330 634 330 634 391 c 1,20,-1
 679 391 l 1,21,22
 679 332 679 332 665 279 c 128,-1,23
 651 226 651 226 613 157 c 1,24,-1
 715 58 l 1,25,-1
 794 37 l 1,26,-1
 794 0 l 1,27,-1
 639 0 l 1,28,-1
 553 82 l 1,29,30
 501 30 501 30 446.5 7.5 c 128,-1,31
 392 -15 392 -15 322 -15 c 0,0,1
161 214 m 0,32,33
 161 128 161 128 211.5 74 c 128,-1,34
 262 20 262 20 339 20 c 0,35,36
 448 20 448 20 525 110 c 1,37,-1
 261 380 l 1,38,39
 206 354 206 354 183.5 314 c 128,-1,40
 161 274 161 274 161 214 c 0,32,33
426 521 m 0,41,42
 453 560 453 560 453 614.5 c 128,-1,43
 453 669 453 669 424 700.5 c 128,-1,44
 395 732 395 732 345.5 732 c 128,-1,45
 296 732 296 732 265.5 704 c 128,-1,46
 235 676 235 676 235 622.5 c 128,-1,47
 235 569 235 569 276 515 c 1,48,49
 278 509 278 509 302.5 479.5 c 128,-1,50
 327 450 327 450 328 450 c 0,51,52
 375 450 375 450 426 521 c 0,41,42
EndSplineSet
EndChar

StartChar: quotesingle
Encoding: 39 39 12
Width: 166
GlyphClass: 2
Flags: W
LayerCount: 2
Fore
SplineSet
107 542 m 1,0,-1
 60 542 l 1,1,-1
 22 795 l 1,2,-1
 144 795 l 1,3,-1
 107 542 l 1,0,-1
EndSplineSet
EndChar

StartChar: parenleft
Encoding: 40 40 13
Width: 372
GlyphClass: 2
Flags: W
LayerCount: 2
Fore
SplineSet
109 -84.5 m 128,-1,1
 57 47 57 47 57 243 c 128,-1,2
 57 439 57 439 110.5 568.5 c 128,-1,3
 164 698 164 698 281 802 c 1,4,-1
 328 802 l 1,5,6
 243 725 243 725 203 592 c 128,-1,7
 163 459 163 459 163 240 c 0,8,9
 163 -181 163 -181 328 -324 c 1,10,-1
 281 -324 l 1,11,0
 161 -216 161 -216 109 -84.5 c 128,-1,1
EndSplineSet
EndChar

StartChar: parenright
Encoding: 41 41 14
Width: 372
GlyphClass: 2
Flags: W
LayerCount: 2
Fore
SplineSet
262 564 m 128,-1,1
 314 433 314 433 314 237 c 128,-1,2
 314 41 314 41 261.5 -90 c 128,-1,3
 209 -221 209 -221 91 -324 c 1,4,-1
 44 -324 l 1,5,6
 129 -245 129 -245 169 -112 c 128,-1,7
 209 21 209 21 209 239 c 128,-1,8
 209 457 209 457 168 591 c 128,-1,9
 127 725 127 725 44 802 c 1,10,-1
 91 802 l 1,11,0
 210 695 210 695 262 564 c 128,-1,1
EndSplineSet
EndChar

StartChar: asterisk
Encoding: 42 42 15
Width: 486
GlyphClass: 2
Flags: W
LayerCount: 2
Fore
SplineSet
282 795 m 1,0,-1
 260 623 l 1,1,-1
 417 697 l 1,2,-1
 442 621 l 1,3,-1
 272 588 l 1,4,-1
 390 463 l 1,5,-1
 325 416 l 1,6,-1
 242 568 l 1,7,-1
 160 416 l 1,8,-1
 94 463 l 1,9,-1
 213 588 l 1,10,-1
 44 621 l 1,11,-1
 69 697 l 1,12,-1
 224 623 l 1,13,-1
 202 795 l 1,14,-1
 282 795 l 1,0,-1
EndSplineSet
EndChar

StartChar: plus
Encoding: 43 43 16
Width: 611
GlyphClass: 2
Flags: W
LayerCount: 2
Fore
SplineSet
43 409 m 1,0,-1
 272 409 l 1,1,-1
 272 654 l 1,2,-1
 339 654 l 1,3,-1
 339 409 l 1,4,-1
 568 409 l 1,5,-1
 568 342 l 1,6,-1
 339 342 l 1,7,-1
 339 99 l 1,8,-1
 272 99 l 1,9,-1
 272 342 l 1,10,-1
 43 342 l 1,11,-1
 43 409 l 1,0,-1
EndSplineSet
EndChar

StartChar: comma
Encoding: 44 44 17
Width: 258
GlyphClass: 2
Flags: W
LayerCount: 2
Fore
SplineSet
74 -140 m 1,0,-1
 28 -140 l 1,1,-1
 84 112 l 1,2,-1
 211 112 l 1,3,-1
 74 -140 l 1,0,-1
EndSplineSet
EndChar

StartChar: hyphen
Encoding: 45 45 18
Width: 364
GlyphClass: 2
Flags: W
LayerCount: 2
Fore
SplineSet
55 296 m 1,0,-1
 308 296 l 1,1,-1
 308 228 l 1,2,-1
 55 228 l 1,3,-1
 55 296 l 1,0,-1
EndSplineSet
EndChar

StartChar: period
Encoding: 46 46 19
Width: 249
GlyphClass: 2
Flags: W
LayerCount: 2
Fore
SplineSet
75.5 100.5 m 128,-1,1
 94 119 94 119 123 119 c 128,-1,2
 152 119 152 119 170.5 101.5 c 128,-1,3
 189 84 189 84 189 55 c 128,-1,4
 189 26 189 26 171 7.5 c 128,-1,5
 153 -11 153 -11 124 -11 c 128,-1,6
 95 -11 95 -11 76 8 c 128,-1,7
 57 27 57 27 57 54.5 c 128,-1,0
 57 82 57 82 75.5 100.5 c 128,-1,1
EndSplineSet
EndChar

StartChar: slash
Encoding: 47 47 20
Width: 407
GlyphClass: 2
Flags: W
LayerCount: 2
Fore
SplineSet
411 802 m 1,0,-1
 -34 -320 l 1,1,-1
 -88 -320 l 1,2,-1
 358 802 l 1,3,-1
 411 802 l 1,0,-1
EndSplineSet
EndChar

StartChar: zero
Encoding: 48 48 21
Width: 618
GlyphClass: 2
Flags: W
LayerCount: 2
Fore
SplineSet
308 719 m 0,0,1
 234 719 234 719 193 634.5 c 128,-1,2
 152 550 152 550 152 385 c 0,3,4
 152 31 152 31 309 31 c 0,5,6
 385 31 385 31 426.5 116.5 c 128,-1,7
 468 202 468 202 468 370 c 0,8,9
 468 719 468 719 308 719 c 0,0,1
114.5 658.5 m 128,-1,11
 189 757 189 757 309 757 c 128,-1,12
 429 757 429 757 503.5 658 c 128,-1,13
 578 559 578 559 578 374.5 c 128,-1,14
 578 190 578 190 502 91 c 128,-1,15
 426 -8 426 -8 308.5 -8 c 128,-1,16
 191 -8 191 -8 115.5 92.5 c 128,-1,17
 40 193 40 193 40 376.5 c 128,-1,10
 40 560 40 560 114.5 658.5 c 128,-1,11
EndSplineSet
EndChar

StartChar: one
Encoding: 49 49 22
Width: 528
GlyphClass: 2
Flags: W
LayerCount: 2
Fore
SplineSet
124 0 m 1,0,-1
 124 37 l 1,1,-1
 221 60 l 1,2,-1
 221 680 l 1,3,-1
 50 578 l 1,4,-1
 50 626 l 1,5,-1
 263 751 l 1,6,-1
 326 751 l 1,7,-1
 326 60 l 1,8,-1
 428 37 l 1,9,-1
 428 0 l 1,10,-1
 124 0 l 1,0,-1
EndSplineSet
EndChar

StartChar: two
Encoding: 50 50 23
Width: 621
GlyphClass: 2
Flags: W
LayerCount: 2
Fore
SplineSet
541 89 m 1,0,-1
 541 0 l 1,1,-1
 64 0 l 1,2,3
 60 15 60 15 60 37 c 0,4,5
 60 133 60 133 190 254 c 0,6,7
 244 305 244 305 298 356 c 128,-1,8
 352 407 352 407 390 468 c 128,-1,9
 428 529 428 529 428 586.5 c 128,-1,10
 428 644 428 644 392.5 683.5 c 128,-1,11
 357 723 357 723 290 723 c 128,-1,12
 223 723 223 723 178 675 c 1,13,-1
 129 543 l 1,14,-1
 78 543 l 1,15,-1
 78 675 l 1,16,17
 114 717 114 717 173 739.5 c 128,-1,18
 232 762 232 762 297 762 c 0,19,20
 397 762 397 762 461.5 706.5 c 128,-1,21
 526 651 526 651 526 574 c 0,22,23
 526 518 526 518 488.5 463.5 c 128,-1,24
 451 409 451 409 396.5 364.5 c 128,-1,25
 342 320 342 320 287 277 c 0,26,27
 153 172 153 172 142 89 c 1,28,-1
 541 89 l 1,0,-1
EndSplineSet
EndChar

StartChar: three
Encoding: 51 51 24
Width: 603
GlyphClass: 2
Flags: W
LayerCount: 2
Fore
SplineSet
489 372 m 128,-1,1
 543 313 543 313 543 210 c 128,-1,2
 543 107 543 107 465.5 46 c 128,-1,3
 388 -15 388 -15 279 -15 c 0,4,5
 148 -15 148 -15 60 70 c 1,6,-1
 60 207 l 1,7,-1
 111 207 l 1,8,-1
 159 73 l 1,9,10
 220 19 220 19 287 19 c 128,-1,11
 354 19 354 19 396.5 68.5 c 128,-1,12
 439 118 439 118 441 215 c 1,13,14
 435 320 435 320 392.5 365.5 c 128,-1,15
 350 411 350 411 273 411 c 2,16,-1
 208 411 l 1,17,-1
 410 705 l 1,18,-1
 151 705 l 1,19,-1
 113 543 l 1,20,-1
 62 543 l 1,21,-1
 62 750 l 1,22,-1
 525 750 l 1,23,-1
 525 714 l 1,24,-1
 331 442 l 1,25,0
 435 431 435 431 489 372 c 128,-1,1
EndSplineSet
EndChar

StartChar: four
Encoding: 52 52 25
Width: 621
GlyphClass: 2
Flags: W
LayerCount: 2
Fore
SplineSet
273 0 m 1,0,-1
 273 37 l 1,1,-1
 369 59 l 1,2,-1
 369 196 l 1,3,-1
 25 196 l 1,4,-1
 25 267 l 1,5,-1
 395 762 l 1,6,-1
 469 762 l 1,7,-1
 469 267 l 1,8,-1
 581 267 l 1,9,-1
 581 196 l 1,10,-1
 469 196 l 1,11,-1
 469 61 l 1,12,-1
 577 37 l 1,13,-1
 577 0 l 1,14,-1
 273 0 l 1,0,-1
369 267 m 1,15,-1
 369 660 l 1,16,-1
 74 267 l 1,17,-1
 369 267 l 1,15,-1
EndSplineSet
EndChar

StartChar: five
Encoding: 53 53 26
Width: 582
GlyphClass: 2
Flags: W
LayerCount: 2
Fore
SplineSet
304 495 m 0,0,1
 393 495 393 495 457.5 423 c 128,-1,2
 522 351 522 351 522 245.5 c 128,-1,3
 522 140 522 140 459 64.5 c 128,-1,4
 396 -11 396 -11 264 -11 c 0,5,6
 200 -11 200 -11 145 9.5 c 128,-1,7
 90 30 90 30 60 66 c 1,8,-1
 60 205 l 1,9,-1
 111 205 l 1,10,-1
 153 69 l 1,11,12
 201 32 201 32 265 32 c 128,-1,13
 329 32 329 32 374 88.5 c 128,-1,14
 419 145 419 145 419 231.5 c 128,-1,15
 419 318 419 318 372 374.5 c 128,-1,16
 325 431 325 431 262 431 c 0,17,18
 177 431 177 431 127 328 c 1,19,-1
 65 328 l 1,20,-1
 113 750 l 1,21,-1
 465 750 l 1,22,-1
 465 666 l 1,23,-1
 148 666 l 1,24,-1
 115 369 l 1,25,26
 146 438 146 438 197.5 466.5 c 128,-1,27
 249 495 249 495 304 495 c 0,0,1
EndSplineSet
EndChar

StartChar: six
Encoding: 54 54 27
Width: 621
GlyphClass: 2
Flags: W
LayerCount: 2
Fore
SplineSet
352 494 m 0,0,1
 454 494 454 494 512.5 418.5 c 128,-1,2
 571 343 571 343 571 242.5 c 128,-1,3
 571 142 571 142 507.5 66.5 c 128,-1,4
 444 -9 444 -9 329 -9 c 0,5,6
 240 -9 240 -9 178 43 c 0,7,8
 60 141 60 141 60 345 c 0,9,10
 60 528 60 528 141.5 645.5 c 128,-1,11
 223 763 223 763 346 763 c 0,12,13
 439 763 439 763 533 692 c 1,14,-1
 533 544 l 1,15,-1
 482 544 l 1,16,-1
 441 691 l 1,17,18
 379 722 379 722 328 722 c 0,19,20
 170 722 170 722 165 369 c 1,21,22
 222 494 222 494 352 494 c 0,0,1
166 235 m 2,23,-1
 166 227 l 2,24,25
 166 134 166 134 209 84.5 c 128,-1,26
 252 35 252 35 318.5 35 c 128,-1,27
 385 35 385 35 425 91.5 c 128,-1,28
 465 148 465 148 465 228.5 c 128,-1,29
 465 309 465 309 423.5 371 c 128,-1,30
 382 433 382 433 316 433 c 128,-1,31
 250 433 250 433 208 381.5 c 128,-1,32
 166 330 166 330 166 235 c 2,23,-1
EndSplineSet
EndChar

StartChar: seven
Encoding: 55 55 28
Width: 552
GlyphClass: 2
Flags: W
LayerCount: 2
Fore
SplineSet
30 543 m 1,0,-1
 30 750 l 1,1,-1
 522 750 l 1,2,-1
 522 702 l 1,3,4
 396 524 396 524 323.5 331.5 c 128,-1,5
 251 139 251 139 247 0 c 1,6,-1
 124 0 l 1,7,8
 156 149 156 149 250.5 339 c 128,-1,9
 345 529 345 529 460 670 c 1,10,-1
 109 670 l 1,11,-1
 82 543 l 1,12,-1
 30 543 l 1,0,-1
EndSplineSet
EndChar

StartChar: eight
Encoding: 56 56 29
Width: 629
GlyphClass: 2
Flags: W
LayerCount: 2
Fore
SplineSet
322 370 m 2,0,-1
 313 370 l 2,1,2
 247 370 247 370 209.5 318 c 128,-1,3
 172 266 172 266 172 190 c 128,-1,4
 172 114 172 114 213.5 68.5 c 128,-1,5
 255 23 255 23 312.5 23 c 128,-1,6
 370 23 370 23 413 69.5 c 128,-1,7
 456 116 456 116 456 192.5 c 128,-1,8
 456 269 456 269 421 319.5 c 128,-1,9
 386 370 386 370 322 370 c 2,0,-1
314 409 m 128,-1,11
 376 409 376 409 411.5 457 c 128,-1,12
 447 505 447 505 447 575 c 128,-1,13
 447 645 447 645 408.5 685.5 c 128,-1,14
 370 726 370 726 316 726 c 128,-1,15
 262 726 262 726 223.5 684 c 128,-1,16
 185 642 185 642 185 572 c 128,-1,17
 185 502 185 502 218.5 455.5 c 128,-1,10
 252 409 252 409 314 409 c 128,-1,11
569 191 m 0,18,19
 569 94 569 94 494 40 c 128,-1,20
 419 -14 419 -14 315.5 -14 c 128,-1,21
 212 -14 212 -14 136 40.5 c 128,-1,22
 60 95 60 95 60 191 c 0,23,24
 60 258 60 258 106 313 c 128,-1,25
 152 368 152 368 241 391 c 1,26,27
 163 410 163 410 122.5 458 c 128,-1,28
 82 506 82 506 82 566 c 0,29,30
 82 657 82 657 151.5 709 c 128,-1,31
 221 761 221 761 315.5 761 c 128,-1,32
 410 761 410 761 480 709 c 128,-1,33
 550 657 550 657 550 564 c 0,34,35
 550 505 550 505 509.5 457.5 c 128,-1,36
 469 410 469 410 390 391 c 1,37,38
 477 368 477 368 523 313 c 128,-1,39
 569 258 569 258 569 191 c 0,18,19
EndSplineSet
EndChar

StartChar: nine
Encoding: 57 57 30
Width: 631
GlyphClass: 2
Flags: W
LayerCount: 2
Fore
SplineSet
279 260 m 0,0,1
 177 260 177 260 118.5 335.5 c 128,-1,2
 60 411 60 411 60 511.5 c 128,-1,3
 60 612 60 612 123.5 687.5 c 128,-1,4
 187 763 187 763 302 763 c 0,5,6
 391 763 391 763 454 711 c 0,7,8
 571 613 571 613 571 409 c 0,9,10
 571 224 571 224 487.5 107.5 c 128,-1,11
 404 -9 404 -9 272 -9 c 0,12,13
 179 -9 179 -9 85 62 c 1,14,-1
 85 210 l 1,15,-1
 136 210 l 1,16,-1
 177 63 l 1,17,18
 239 32 239 32 290 32 c 0,19,20
 382 32 382 32 422 121 c 128,-1,21
 462 210 462 210 466 385 c 1,22,23
 406 260 406 260 279 260 c 0,0,1
465 519 m 2,24,-1
 465 527 l 2,25,26
 465 620 465 620 422 669.5 c 128,-1,27
 379 719 379 719 312.5 719 c 128,-1,28
 246 719 246 719 206 662.5 c 128,-1,29
 166 606 166 606 166 525.5 c 128,-1,30
 166 445 166 445 207.5 383 c 128,-1,31
 249 321 249 321 315 321 c 128,-1,32
 381 321 381 321 423 372.5 c 128,-1,33
 465 424 465 424 465 519 c 2,24,-1
EndSplineSet
EndChar

StartChar: colon
Encoding: 58 58 31
Width: 249
GlyphClass: 2
Flags: W
LayerCount: 2
Fore
SplineSet
75 472 m 128,-1,1
 93 492 93 492 122 492 c 128,-1,2
 151 492 151 492 170 473.5 c 128,-1,3
 189 455 189 455 189 426 c 128,-1,4
 189 397 189 397 171 378.5 c 128,-1,5
 153 360 153 360 124 360 c 128,-1,6
 95 360 95 360 76 379 c 128,-1,7
 57 398 57 398 57 425 c 128,-1,0
 57 452 57 452 75 472 c 128,-1,1
75.5 100.5 m 128,-1,9
 94 119 94 119 123 119 c 128,-1,10
 152 119 152 119 170.5 101.5 c 128,-1,11
 189 84 189 84 189 55 c 128,-1,12
 189 26 189 26 171 7.5 c 128,-1,13
 153 -11 153 -11 124 -11 c 128,-1,14
 95 -11 95 -11 76 8 c 128,-1,15
 57 27 57 27 57 54.5 c 128,-1,8
 57 82 57 82 75.5 100.5 c 128,-1,9
EndSplineSet
EndChar

StartChar: semicolon
Encoding: 59 59 32
Width: 258
GlyphClass: 2
Flags: W
LayerCount: 2
Fore
SplineSet
74 -140 m 1,0,-1
 28 -140 l 1,1,-1
 84 112 l 1,2,-1
 211 112 l 1,3,-1
 74 -140 l 1,0,-1
90 472 m 128,-1,5
 108 492 108 492 136.5 492 c 128,-1,6
 165 492 165 492 184.5 473.5 c 128,-1,7
 204 455 204 455 204 426 c 128,-1,8
 204 397 204 397 185.5 378.5 c 128,-1,9
 167 360 167 360 138 360 c 128,-1,10
 109 360 109 360 90.5 379 c 128,-1,11
 72 398 72 398 72 425 c 128,-1,4
 72 452 72 452 90 472 c 128,-1,5
EndSplineSet
EndChar

StartChar: less
Encoding: 60 60 33
Width: 562
GlyphClass: 2
Flags: W
LayerCount: 2
Fore
SplineSet
524 612 m 1,0,-1
 524 540 l 1,1,-1
 135 370 l 1,2,-1
 524 200 l 1,3,-1
 524 129 l 1,4,-1
 37 348 l 1,5,-1
 37 394 l 1,6,-1
 524 612 l 1,0,-1
EndSplineSet
EndChar

StartChar: equal
Encoding: 61 61 34
Width: 611
GlyphClass: 2
Flags: W
LayerCount: 2
Fore
SplineSet
44 331 m 1,0,-1
 568 331 l 1,1,-1
 568 263 l 1,2,-1
 44 263 l 1,3,-1
 44 331 l 1,0,-1
44 489 m 1,4,-1
 568 489 l 1,5,-1
 568 422 l 1,6,-1
 44 422 l 1,7,-1
 44 489 l 1,4,-1
EndSplineSet
EndChar

StartChar: greater
Encoding: 62 62 35
Width: 562
GlyphClass: 2
Flags: W
LayerCount: 2
Fore
SplineSet
38 129 m 1,0,-1
 38 200 l 1,1,-1
 427 370 l 1,2,-1
 38 540 l 1,3,-1
 38 612 l 1,4,-1
 525 394 l 1,5,-1
 525 348 l 1,6,-1
 38 129 l 1,0,-1
EndSplineSet
EndChar

StartChar: question
Encoding: 63 63 36
Width: 551
GlyphClass: 2
Flags: W
LayerCount: 2
Fore
SplineSet
57 543 m 1,0,-1
 57 675 l 1,1,2
 86 717 86 717 141.5 739.5 c 128,-1,3
 197 762 197 762 262 762 c 0,4,5
 356 762 356 762 424.5 717.5 c 128,-1,6
 493 673 493 673 493 592 c 0,7,8
 493 544 493 544 465 498 c 128,-1,9
 437 452 437 452 382 417 c 2,10,-1
 351 397 l 2,11,12
 292 359 292 359 272.5 316.5 c 128,-1,13
 253 274 253 274 253 202 c 2,14,-1
 253 182 l 1,15,-1
 208 182 l 1,16,-1
 208 221 l 2,17,18
 208 286 208 286 226 325.5 c 128,-1,19
 244 365 244 365 299 424 c 2,20,-1
 333 460 l 1,21,22
 385 517 385 517 385 596 c 0,23,24
 385 656 385 656 346.5 691 c 128,-1,25
 308 726 308 726 250 726 c 128,-1,26
 192 726 192 726 157 677 c 1,27,-1
 108 543 l 1,28,-1
 57 543 l 1,0,-1
185 100.5 m 128,-1,30
 203 119 203 119 232 119 c 128,-1,31
 261 119 261 119 279.5 101.5 c 128,-1,32
 298 84 298 84 298 55 c 128,-1,33
 298 26 298 26 280 7.5 c 128,-1,34
 262 -11 262 -11 233 -11 c 128,-1,35
 204 -11 204 -11 185.5 8 c 128,-1,36
 167 27 167 27 167 54.5 c 128,-1,29
 167 82 167 82 185 100.5 c 128,-1,30
EndSplineSet
EndChar

StartChar: at
Encoding: 64 64 37
Width: 927
GlyphClass: 2
Flags: W
LayerCount: 2
Fore
SplineSet
546 467 m 0,0,1
 546 549 546 549 476 549 c 0,2,3
 439 549 439 549 406 505 c 128,-1,4
 373 461 373 461 357 404.5 c 128,-1,5
 341 348 341 348 341 303.5 c 128,-1,6
 341 259 341 259 358.5 234 c 128,-1,7
 376 209 376 209 402 209 c 0,8,9
 459 209 459 209 502.5 288 c 128,-1,10
 546 367 546 367 546 467 c 0,0,1
600 348 m 2,11,12
 588 288 588 288 588 263.5 c 128,-1,13
 588 239 588 239 602.5 221.5 c 128,-1,14
 617 204 617 204 645 204 c 0,15,16
 693 204 693 204 728 247 c 0,17,18
 794 328 794 328 794 469 c 0,19,20
 794 589 794 589 713.5 660 c 128,-1,21
 633 731 633 731 505 731 c 0,22,23
 340 731 340 731 236 615.5 c 128,-1,24
 132 500 132 500 132 324 c 0,25,26
 132 184 132 184 213.5 103 c 128,-1,27
 295 22 295 22 424 22 c 0,28,29
 474 22 474 22 544 38 c 1,30,-1
 544 0 l 1,31,32
 472 -15 472 -15 415 -15 c 0,33,34
 264 -15 264 -15 163 81.5 c 128,-1,35
 62 178 62 178 62 336 c 0,36,37
 62 519 62 519 187 643 c 128,-1,38
 312 767 312 767 505 767 c 0,39,40
 664 767 664 767 763.5 678.5 c 128,-1,41
 863 590 863 590 863 448 c 0,42,43
 863 329 863 329 793 249 c 128,-1,44
 723 169 723 169 627 169 c 0,45,46
 580 169 580 169 550.5 192.5 c 128,-1,47
 521 216 521 216 516 259 c 1,48,49
 465 172 465 172 385 172 c 0,50,51
 333 172 333 172 300 211.5 c 128,-1,52
 267 251 267 251 267 319 c 0,53,54
 267 420 267 420 325.5 502 c 128,-1,55
 384 584 384 584 470 584 c 0,56,57
 522 584 522 584 558 535 c 1,58,-1
 566 574 l 1,59,-1
 643 574 l 1,60,-1
 600 348 l 2,11,12
EndSplineSet
EndChar

StartChar: A
Encoding: 65 65 38
Width: 915
GlyphClass: 2
Flags: W
LayerCount: 2
Fore
SplineSet
50 0 m 1,0,-1
 50 37 l 1,1,-1
 139 59 l 1,2,-1
 442 758 l 1,3,-1
 493 758 l 1,4,-1
 781 59 l 1,5,-1
 865 37 l 1,6,-1
 865 0 l 1,7,-1
 581 0 l 1,8,-1
 581 37 l 1,9,-1
 668 58 l 1,10,-1
 589 252 l 1,11,-1
 287 252 l 1,12,-1
 212 58 l 1,13,-1
 302 37 l 1,14,-1
 302 0 l 1,15,-1
 50 0 l 1,0,-1
301 290 m 1,16,-1
 575 290 l 1,17,-1
 435 641 l 1,18,-1
 301 290 l 1,16,-1
EndSplineSet
EndChar

StartChar: B
Encoding: 66 66 39
Width: 726
GlyphClass: 2
Flags: W
LayerCount: 2
Fore
SplineSet
90 750 m 1,0,-1
 387 750 l 2,1,2
 666 750 666 750 666 567 c 0,3,4
 666 493 666 493 619 449 c 128,-1,5
 572 405 572 405 469 390 c 1,6,7
 686 371 686 371 686 199 c 0,8,9
 686 119 686 119 631 65 c 0,10,11
 591 25 591 25 535 12.5 c 128,-1,12
 479 0 479 0 370 0 c 2,13,-1
 90 0 l 1,14,-1
 90 37 l 1,15,-1
 186 59 l 1,16,-1
 186 690 l 1,17,-1
 90 713 l 1,18,-1
 90 750 l 1,0,-1
290 40 m 1,19,-1
 369 40 l 2,20,21
 476 40 476 40 524 78 c 128,-1,22
 572 116 572 116 572 201 c 128,-1,23
 572 286 572 286 525.5 325.5 c 128,-1,24
 479 365 479 365 378 365 c 2,25,-1
 290 365 l 1,26,-1
 290 40 l 1,19,-1
290 407 m 1,27,-1
 370 407 l 2,28,29
 554 407 554 407 554 565 c 0,30,31
 554 655 554 655 492 684 c 1,32,33
 439 710 439 710 345 710 c 2,34,-1
 290 710 l 1,35,-1
 290 407 l 1,27,-1
EndSplineSet
EndChar

StartChar: C
Encoding: 67 67 40
Width: 758
GlyphClass: 2
Flags: W
LayerCount: 2
Fore
SplineSet
678 241 m 1,0,-1
 678 72 l 1,1,2
 589 -21 589 -21 430 -21 c 128,-1,3
 271 -21 271 -21 165.5 85.5 c 128,-1,4
 60 192 60 192 60 370.5 c 128,-1,5
 60 549 60 549 167 654.5 c 128,-1,6
 274 760 274 760 432.5 760 c 128,-1,7
 591 760 591 760 678 677 c 1,8,-1
 678 515 l 1,9,-1
 626 515 l 1,10,-1
 577 674 l 1,11,12
 522 723 522 723 432 723 c 0,13,14
 318 723 318 723 247 632.5 c 128,-1,15
 176 542 176 542 176 375.5 c 128,-1,16
 176 209 176 209 244.5 114 c 128,-1,17
 313 19 313 19 428 19 c 0,18,19
 521 19 521 19 581 75 c 1,20,-1
 631 241 l 1,21,-1
 678 241 l 1,0,-1
EndSplineSet
EndChar

StartChar: D
Encoding: 68 68 41
Width: 856
GlyphClass: 2
Flags: W
LayerCount: 2
Fore
SplineSet
90 750 m 1,0,-1
 356 750 l 2,1,2
 458 750 458 750 535 731.5 c 128,-1,3
 612 713 612 713 672.5 670.5 c 128,-1,4
 733 628 733 628 764.5 553 c 128,-1,5
 796 478 796 478 796 371 c 128,-1,6
 796 264 796 264 764 190 c 128,-1,7
 732 116 732 116 669 75.5 c 128,-1,8
 606 35 606 35 526.5 17.5 c 128,-1,9
 447 0 447 0 338 0 c 2,10,-1
 90 0 l 1,11,-1
 90 37 l 1,12,-1
 189 60 l 1,13,-1
 189 689 l 1,14,-1
 90 713 l 1,15,-1
 90 750 l 1,0,-1
294 42 m 1,16,-1
 343 42 l 2,17,18
 516 42 516 42 598 116 c 128,-1,19
 680 190 680 190 680 370.5 c 128,-1,20
 680 551 680 551 603 629.5 c 128,-1,21
 526 708 526 708 360 708 c 2,22,-1
 294 708 l 1,23,-1
 294 42 l 1,16,-1
EndSplineSet
EndChar

StartChar: E
Encoding: 69 69 42
Width: 700
GlyphClass: 2
Flags: W
LayerCount: 2
Fore
SplineSet
90 750 m 1,0,-1
 641 750 l 1,1,-1
 641 571 l 1,2,-1
 589 571 l 1,3,-1
 550 707 l 1,4,-1
 294 707 l 1,5,-1
 294 408 l 1,6,-1
 487 408 l 1,7,-1
 514 495 l 1,8,-1
 551 495 l 1,9,-1
 551 288 l 1,10,-1
 514 288 l 1,11,-1
 487 364 l 1,12,-1
 294 364 l 1,13,-1
 294 43 l 1,14,-1
 568 43 l 1,15,-1
 607 178 l 1,16,-1
 660 178 l 1,17,-1
 660 0 l 1,18,-1
 90 0 l 1,19,-1
 90 37 l 1,20,-1
 189 60 l 1,21,-1
 189 689 l 1,22,-1
 90 713 l 1,23,-1
 90 750 l 1,0,-1
EndSplineSet
EndChar

StartChar: F
Encoding: 70 70 43
Width: 682
GlyphClass: 2
Flags: W
LayerCount: 2
Fore
SplineSet
552 276 m 1,0,-1
 515 276 l 1,1,-1
 487 352 l 1,2,-1
 295 352 l 1,3,-1
 295 59 l 1,4,-1
 394 37 l 1,5,-1
 394 0 l 1,6,-1
 90 0 l 1,7,-1
 90 37 l 1,8,-1
 190 60 l 1,9,-1
 190 689 l 1,10,-1
 91 713 l 1,11,-1
 91 750 l 1,12,-1
 642 750 l 1,13,-1
 642 571 l 1,14,-1
 590 571 l 1,15,-1
 551 707 l 1,16,-1
 295 707 l 1,17,-1
 295 397 l 1,18,-1
 487 397 l 1,19,-1
 515 482 l 1,20,-1
 552 482 l 1,21,-1
 552 276 l 1,0,-1
EndSplineSet
EndChar

StartChar: G
Encoding: 71 71 44
Width: 802
GlyphClass: 2
Flags: W
LayerCount: 2
Fore
SplineSet
493 324 m 1,0,-1
 802 324 l 1,1,-1
 802 287 l 1,2,-1
 703 264 l 1,3,-1
 703 36 l 1,4,5
 652 13 652 13 572 0 c 128,-1,6
 492 -13 492 -13 425 -13 c 0,7,8
 250 -13 250 -13 155 90 c 128,-1,9
 60 193 60 193 60 372 c 128,-1,10
 60 551 60 551 153 658.5 c 128,-1,11
 246 766 246 766 416 766 c 0,12,13
 485 766 485 766 559 747.5 c 128,-1,14
 633 729 633 729 681 684 c 1,15,-1
 681 515 l 1,16,-1
 629 515 l 1,17,-1
 580 681 l 1,18,19
 536 728 536 728 414 728 c 128,-1,20
 292 728 292 728 234 637 c 128,-1,21
 176 546 176 546 176 380 c 0,22,23
 176 27 176 27 423 27 c 0,24,25
 501 27 501 27 598 51 c 1,26,-1
 598 264 l 1,27,-1
 493 287 l 1,28,-1
 493 324 l 1,0,-1
EndSplineSet
EndChar

StartChar: H
Encoding: 72 72 45
Width: 957
GlyphClass: 2
Flags: W
LayerCount: 2
Fore
SplineSet
563 0 m 1,0,-1
 563 37 l 1,1,-1
 661 59 l 1,2,-1
 661 360 l 1,3,-1
 295 360 l 1,4,-1
 295 59 l 1,5,-1
 395 37 l 1,6,-1
 395 0 l 1,7,-1
 90 0 l 1,8,-1
 90 37 l 1,9,-1
 190 59 l 1,10,-1
 190 689 l 1,11,-1
 90 713 l 1,12,-1
 90 750 l 1,13,-1
 395 750 l 1,14,-1
 395 713 l 1,15,-1
 295 689 l 1,16,-1
 295 405 l 1,17,-1
 661 405 l 1,18,-1
 661 689 l 1,19,-1
 563 713 l 1,20,-1
 563 750 l 1,21,-1
 867 750 l 1,22,-1
 867 713 l 1,23,-1
 766 690 l 1,24,-1
 766 60 l 1,25,-1
 867 37 l 1,26,-1
 867 0 l 1,27,-1
 563 0 l 1,0,-1
EndSplineSet
EndChar

StartChar: I
Encoding: 73 73 46
Width: 484
GlyphClass: 2
Flags: W
LayerCount: 2
Fore
SplineSet
90 750 m 1,0,-1
 394 750 l 1,1,-1
 394 713 l 1,2,-1
 294 690 l 1,3,-1
 294 59 l 1,4,-1
 394 37 l 1,5,-1
 394 0 l 1,6,-1
 90 0 l 1,7,-1
 90 37 l 1,8,-1
 189 60 l 1,9,-1
 189 689 l 1,10,-1
 90 713 l 1,11,-1
 90 750 l 1,0,-1
EndSplineSet
EndChar

StartChar: J
Encoding: 74 74 47
Width: 475
GlyphClass: 2
Flags: W
LayerCount: 2
Fore
SplineSet
81 750 m 1,0,-1
 385 750 l 1,1,-1
 385 713 l 1,2,-1
 284 690 l 1,3,-1
 284 278 l 2,4,5
 284 88 284 88 277 53 c 128,-1,6
 270 18 270 18 261 -17.5 c 128,-1,7
 252 -53 252 -53 238.5 -75 c 128,-1,8
 225 -97 225 -97 206 -126 c 0,9,10
 176 -171 176 -171 98 -240 c 1,11,-1
 70 -223 l 1,12,13
 126 -150 126 -150 142 -110 c 128,-1,14
 158 -70 158 -70 164.5 -48 c 128,-1,15
 171 -26 171 -26 174 14 c 0,16,17
 178 66 178 66 178 168 c 2,18,-1
 178 690 l 1,19,-1
 81 713 l 1,20,-1
 81 750 l 1,0,-1
EndSplineSet
EndChar

StartChar: K
Encoding: 75 75 48
Width: 862
GlyphClass: 2
Flags: W
LayerCount: 2
Fore
SplineSet
490 750 m 1,0,-1
 744 750 l 1,1,-1
 744 713 l 1,2,-1
 655 691 l 1,3,-1
 383 435 l 1,4,-1
 694 59 l 1,5,-1
 812 37 l 1,6,-1
 812 0 l 1,7,-1
 602 0 l 1,8,-1
 294 378 l 1,9,-1
 294 59 l 1,10,-1
 394 37 l 1,11,-1
 394 0 l 1,12,-1
 90 0 l 1,13,-1
 90 37 l 1,14,-1
 189 60 l 1,15,-1
 189 689 l 1,16,-1
 90 713 l 1,17,-1
 90 750 l 1,18,-1
 394 750 l 1,19,-1
 394 713 l 1,20,-1
 294 690 l 1,21,-1
 294 398 l 1,22,-1
 568 694 l 1,23,-1
 490 713 l 1,24,-1
 490 750 l 1,0,-1
EndSplineSet
EndChar

StartChar: L
Encoding: 76 76 49
Width: 702
GlyphClass: 2
Flags: W
LayerCount: 2
Fore
SplineSet
90 750 m 1,0,-1
 394 750 l 1,1,-1
 394 713 l 1,2,-1
 295 690 l 1,3,-1
 295 44 l 1,4,-1
 551 44 l 1,5,-1
 590 189 l 1,6,-1
 642 189 l 1,7,-1
 642 0 l 1,8,-1
 90 0 l 1,9,-1
 90 37 l 1,10,-1
 190 60 l 1,11,-1
 190 689 l 1,12,-1
 90 713 l 1,13,-1
 90 750 l 1,0,-1
EndSplineSet
EndChar

StartChar: M
Encoding: 77 77 50
Width: 1141
GlyphClass: 2
Flags: W
LayerCount: 2
Fore
SplineSet
745 0 m 1,0,-1
 745 37 l 1,1,-1
 843 60 l 1,2,-1
 843 688 l 1,3,-1
 571 0 l 1,4,-1
 510 0 l 1,5,-1
 238 688 l 1,6,-1
 238 60 l 1,7,-1
 338 37 l 1,8,-1
 338 0 l 1,9,-1
 90 0 l 1,10,-1
 90 37 l 1,11,-1
 186 60 l 1,12,-1
 186 687 l 1,13,-1
 101 713 l 1,14,-1
 101 750 l 1,15,-1
 316 750 l 1,16,-1
 569 124 l 1,17,-1
 815 750 l 1,18,-1
 1051 750 l 1,19,-1
 1051 713 l 1,20,-1
 947 689 l 1,21,-1
 947 60 l 1,22,-1
 1049 37 l 1,23,-1
 1049 0 l 1,24,-1
 745 0 l 1,0,-1
EndSplineSet
EndChar

StartChar: N
Encoding: 78 78 51
Width: 959
GlyphClass: 2
Flags: W
LayerCount: 2
Fore
SplineSet
623 750 m 1,0,-1
 869 750 l 1,1,-1
 869 713 l 1,2,-1
 771 688 l 1,3,-1
 771 0 l 1,4,-1
 701 0 l 1,5,-1
 233 686 l 1,6,-1
 233 59 l 1,7,-1
 331 37 l 1,8,-1
 331 0 l 1,9,-1
 90 0 l 1,10,-1
 90 37 l 1,11,-1
 183 59 l 1,12,-1
 183 687 l 1,13,-1
 90 713 l 1,14,-1
 90 750 l 1,15,-1
 313 750 l 1,16,-1
 721 158 l 1,17,-1
 721 687 l 1,18,-1
 623 713 l 1,19,-1
 623 750 l 1,0,-1
EndSplineSet
EndChar

StartChar: O
Encoding: 79 79 52
Width: 832
GlyphClass: 2
Flags: W
LayerCount: 2
Fore
SplineSet
595.5 639 m 128,-1,1
 533 728 533 728 415.5 728 c 128,-1,2
 298 728 298 728 237 637 c 128,-1,3
 176 546 176 546 176 375 c 128,-1,4
 176 204 176 204 235.5 112.5 c 128,-1,5
 295 21 295 21 412 21 c 128,-1,6
 529 21 529 21 593.5 111 c 128,-1,7
 658 201 658 201 658 375.5 c 128,-1,0
 658 550 658 550 595.5 639 c 128,-1,1
160 661.5 m 128,-1,9
 260 768 260 768 417.5 768 c 128,-1,10
 575 768 575 768 673.5 659 c 128,-1,11
 772 550 772 550 772 373 c 128,-1,12
 772 196 772 196 674 88.5 c 128,-1,13
 576 -19 576 -19 415 -19 c 128,-1,14
 254 -19 254 -19 157 87.5 c 128,-1,15
 60 194 60 194 60 374.5 c 128,-1,8
 60 555 60 555 160 661.5 c 128,-1,9
EndSplineSet
EndChar

StartChar: P
Encoding: 80 80 53
Width: 718
GlyphClass: 2
Flags: W
LayerCount: 2
Fore
SplineSet
90 750 m 1,0,-1
 391 750 l 2,1,2
 550 750 550 750 619 699.5 c 128,-1,3
 688 649 688 649 688 541 c 0,4,5
 688 410 688 410 599 364 c 0,6,7
 520 324 520 324 383 324 c 2,8,-1
 292 324 l 1,9,-1
 292 60 l 1,10,-1
 394 37 l 1,11,-1
 394 0 l 1,12,-1
 90 0 l 1,13,-1
 90 37 l 1,14,-1
 187 60 l 1,15,-1
 187 690 l 1,16,-1
 90 713 l 1,17,-1
 90 750 l 1,0,-1
292 364 m 1,18,-1
 404 364 l 2,19,20
 489 364 489 364 530.5 406 c 128,-1,21
 572 448 572 448 572 537 c 128,-1,22
 572 626 572 626 530.5 668 c 128,-1,23
 489 710 489 710 404 710 c 2,24,-1
 292 710 l 1,25,-1
 292 364 l 1,18,-1
EndSplineSet
EndChar

StartChar: Q
Encoding: 81 81 54
Width: 819
GlyphClass: 2
Flags: W
LayerCount: 2
Fore
SplineSet
593.5 637.5 m 128,-1,1
 530 726 530 726 413.5 726 c 128,-1,2
 297 726 297 726 236 636.5 c 128,-1,3
 175 547 175 547 175 377.5 c 128,-1,4
 175 208 175 208 235 116 c 128,-1,5
 295 24 295 24 412.5 24 c 128,-1,6
 530 24 530 24 593.5 111.5 c 128,-1,7
 657 199 657 199 657 374 c 128,-1,0
 657 549 657 549 593.5 637.5 c 128,-1,1
789 -232 m 1,8,-1
 751 -232 l 2,9,10
 652 -232 652 -232 580 -205 c 128,-1,11
 508 -178 508 -178 464.5 -134 c 128,-1,12
 421 -90 421 -90 383 -19 c 1,13,14
 236 -5 236 -5 148 101.5 c 128,-1,15
 60 208 60 208 60 381 c 128,-1,16
 60 554 60 554 159.5 661 c 128,-1,17
 259 768 259 768 415 768 c 128,-1,18
 571 768 571 768 671 661.5 c 128,-1,19
 771 555 771 555 771 373 c 0,20,21
 771 229 771 229 705.5 130 c 128,-1,22
 640 31 640 31 528 -2 c 2,23,-1
 493 -12 l 1,24,25
 561 -122 561 -122 616 -155.5 c 128,-1,26
 671 -189 671 -189 789 -199 c 1,27,-1
 789 -232 l 1,8,-1
EndSplineSet
EndChar

StartChar: R
Encoding: 82 82 55
Width: 847
GlyphClass: 2
Flags: W
LayerCount: 2
Fore
SplineSet
797 0 m 1,0,-1
 595 0 l 1,1,-1
 348 334 l 1,2,-1
 292 334 l 1,3,-1
 292 60 l 1,4,-1
 394 37 l 1,5,-1
 394 0 l 1,6,-1
 90 0 l 1,7,-1
 90 37 l 1,8,-1
 187 60 l 1,9,-1
 187 690 l 1,10,-1
 90 713 l 1,11,-1
 90 750 l 1,12,-1
 391 750 l 2,13,14
 550 750 550 750 619 702 c 128,-1,15
 688 654 688 654 688 548 c 128,-1,16
 688 442 688 442 626 390.5 c 128,-1,17
 564 339 564 339 463 339 c 1,18,-1
 688 59 l 1,19,-1
 797 37 l 1,20,-1
 797 0 l 1,0,-1
292 710 m 1,21,-1
 292 373 l 1,22,-1
 404 373 l 2,23,24
 489 373 489 373 530.5 413 c 128,-1,25
 572 453 572 453 572 541.5 c 128,-1,26
 572 630 572 630 531 670 c 128,-1,27
 490 710 490 710 404 710 c 2,28,-1
 292 710 l 1,21,-1
EndSplineSet
EndChar

StartChar: S
Encoding: 83 83 56
Width: 604
GlyphClass: 2
Flags: W
LayerCount: 2
Fore
SplineSet
307 -9 m 0,0,1
 191 -9 191 -9 75 63 c 1,2,-1
 75 228 l 1,3,-1
 133 228 l 1,4,-1
 176 66 l 1,5,6
 233 30 233 30 304 30 c 0,7,8
 357 30 357 30 412 54 c 0,9,10
 441 67 441 67 460 92 c 128,-1,11
 479 117 479 117 481 151 c 1,12,13
 478 231 478 231 398 284 c 0,14,15
 368 303 368 303 317 326.5 c 128,-1,16
 266 350 266 350 251 357 c 0,17,18
 70 431 70 431 70 559 c 0,19,20
 70 639 70 639 132 699 c 128,-1,21
 194 759 194 759 309 759 c 0,22,23
 368 759 368 759 431 740.5 c 128,-1,24
 494 722 494 722 536 682 c 1,25,-1
 536 536 l 1,26,-1
 485 536 l 1,27,-1
 439 688 l 1,28,29
 383 718 383 718 319 718 c 128,-1,30
 255 718 255 718 212 687.5 c 128,-1,31
 169 657 169 657 169 603 c 0,32,33
 169 540 169 540 222 502 c 0,34,35
 267 469 267 469 317 446.5 c 128,-1,36
 367 424 367 424 379 418 c 0,37,38
 582 332 582 332 582 196 c 0,39,40
 582 128 582 128 536 80 c 0,41,42
 452 -9 452 -9 307 -9 c 0,0,1
EndSplineSet
EndChar

StartChar: T
Encoding: 84 84 57
Width: 716
GlyphClass: 2
Flags: W
LayerCount: 2
Fore
SplineSet
207 0 m 1,0,-1
 207 37 l 1,1,-1
 304 60 l 1,2,-1
 304 707 l 1,3,-1
 121 707 l 1,4,-1
 82 561 l 1,5,-1
 30 561 l 1,6,-1
 30 750 l 1,7,-1
 686 750 l 1,8,-1
 686 561 l 1,9,-1
 634 561 l 1,10,-1
 595 707 l 1,11,-1
 409 707 l 1,12,-1
 409 59 l 1,13,-1
 511 37 l 1,14,-1
 511 0 l 1,15,-1
 207 0 l 1,0,-1
EndSplineSet
EndChar

StartChar: U
Encoding: 85 85 58
Width: 890
GlyphClass: 2
Flags: W
LayerCount: 2
Fore
SplineSet
581 750 m 1,0,-1
 830 750 l 1,1,-1
 830 714 l 1,2,-1
 736 689 l 1,3,-1
 736 288 l 2,4,5
 736 -15 736 -15 446 -15 c 0,6,7
 298 -15 298 -15 229 64.5 c 128,-1,8
 160 144 160 144 160 301 c 2,9,-1
 160 689 l 1,10,-1
 60 713 l 1,11,-1
 60 750 l 1,12,-1
 364 750 l 1,13,-1
 364 713 l 1,14,-1
 265 690 l 1,15,-1
 265 282 l 2,16,17
 265 152 265 152 316 91.5 c 128,-1,18
 367 31 367 31 468 31 c 0,19,20
 681 31 681 31 681 293 c 2,21,-1
 681 689 l 1,22,-1
 581 714 l 1,23,-1
 581 750 l 1,0,-1
EndSplineSet
EndChar

StartChar: V
Encoding: 86 86 59
Width: 873
GlyphClass: 2
Flags: W
LayerCount: 2
Fore
SplineSet
588 750 m 1,0,-1
 833 750 l 1,1,-1
 833 714 l 1,2,-1
 749 688 l 1,3,-1
 466 -8 l 1,4,-1
 407 -8 l 1,5,-1
 131 691 l 1,6,-1
 40 713 l 1,7,-1
 40 750 l 1,8,-1
 344 750 l 1,9,-1
 344 713 l 1,10,-1
 248 691 l 1,11,-1
 471 117 l 1,12,-1
 674 689 l 1,13,-1
 588 714 l 1,14,-1
 588 750 l 1,0,-1
EndSplineSet
EndChar

StartChar: W
Encoding: 87 87 60
Width: 1287
GlyphClass: 2
Flags: W
LayerCount: 2
Fore
SplineSet
1002 750 m 1,0,-1
 1247 750 l 1,1,-1
 1247 714 l 1,2,-1
 1160 688 l 1,3,-1
 919 0 l 1,4,-1
 859 0 l 1,5,-1
 641 619 l 1,6,-1
 427 0 l 1,7,-1
 367 0 l 1,8,-1
 132 690 l 1,9,-1
 40 713 l 1,10,-1
 40 750 l 1,11,-1
 344 750 l 1,12,-1
 344 713 l 1,13,-1
 243 691 l 1,14,-1
 427 141 l 1,15,-1
 636 750 l 1,16,-1
 698 750 l 1,17,-1
 918 132 l 1,18,-1
 1090 690 l 1,19,-1
 1002 714 l 1,20,-1
 1002 750 l 1,0,-1
EndSplineSet
EndChar

StartChar: X
Encoding: 88 88 61
Width: 830
GlyphClass: 2
Flags: W
LayerCount: 2
Fore
SplineSet
50 750 m 1,0,-1
 354 750 l 1,1,-1
 354 713 l 1,2,-1
 276 692 l 1,3,-1
 431 445 l 1,4,-1
 597 688 l 1,5,-1
 509 714 l 1,6,-1
 509 750 l 1,7,-1
 754 750 l 1,8,-1
 754 714 l 1,9,-1
 666 687 l 1,10,-1
 464 407 l 1,11,-1
 684 61 l 1,12,-1
 780 37 l 1,13,-1
 780 0 l 1,14,-1
 476 0 l 1,15,-1
 476 37 l 1,16,-1
 558 58 l 1,17,-1
 395 319 l 1,18,-1
 216 55 l 1,19,-1
 296 36 l 1,20,-1
 296 0 l 1,21,-1
 51 0 l 1,22,-1
 51 36 l 1,23,-1
 141 59 l 1,24,-1
 359 358 l 1,25,-1
 148 688 l 1,26,-1
 50 713 l 1,27,-1
 50 750 l 1,0,-1
EndSplineSet
EndChar

StartChar: Y
Encoding: 89 89 62
Width: 799
GlyphClass: 2
Flags: W
LayerCount: 2
Fore
SplineSet
30 750 m 1,0,-1
 334 750 l 1,1,-1
 334 713 l 1,2,-1
 246 692 l 1,3,-1
 436 366 l 1,4,-1
 611 689 l 1,5,-1
 524 714 l 1,6,-1
 524 750 l 1,7,-1
 769 750 l 1,8,-1
 769 714 l 1,9,-1
 680 687 l 1,10,-1
 458 321 l 1,11,-1
 458 60 l 1,12,-1
 561 37 l 1,13,-1
 561 0 l 1,14,-1
 257 0 l 1,15,-1
 257 37 l 1,16,-1
 353 59 l 1,17,-1
 353 307 l 1,18,-1
 126 688 l 1,19,-1
 30 713 l 1,20,-1
 30 750 l 1,0,-1
EndSplineSet
EndChar

StartChar: Z
Encoding: 90 90 63
Width: 725
GlyphClass: 2
Flags: W
LayerCount: 2
Fore
SplineSet
78 561 m 1,0,-1
 78 750 l 1,1,-1
 646 750 l 1,2,-1
 646 714 l 1,3,-1
 188 49 l 1,4,-1
 575 49 l 1,5,-1
 613 189 l 1,6,-1
 665 189 l 1,7,-1
 665 0 l 1,8,-1
 60 0 l 1,9,-1
 60 37 l 1,10,-1
 515 703 l 1,11,-1
 167 703 l 1,12,-1
 130 561 l 1,13,-1
 78 561 l 1,0,-1
EndSplineSet
EndChar

StartChar: bracketleft
Encoding: 91 91 64
Width: 376
GlyphClass: 2
Flags: W
LayerCount: 2
Fore
SplineSet
207 758 m 1,0,-1
 207 -278 l 1,1,-1
 328 -278 l 1,2,-1
 328 -314 l 1,3,-1
 108 -314 l 1,4,-1
 108 795 l 1,5,-1
 328 795 l 1,6,-1
 328 758 l 1,7,-1
 207 758 l 1,0,-1
EndSplineSet
EndChar

StartChar: backslash
Encoding: 92 92 65
Width: 407
GlyphClass: 2
Flags: W
LayerCount: 2
Fore
SplineSet
49 802 m 1,0,-1
 494 -320 l 1,1,-1
 441 -320 l 1,2,-1
 -5 802 l 1,3,-1
 49 802 l 1,0,-1
EndSplineSet
EndChar

StartChar: bracketright
Encoding: 93 93 66
Width: 376
GlyphClass: 2
Flags: W
LayerCount: 2
Fore
SplineSet
170 -278 m 1,0,-1
 170 758 l 1,1,-1
 48 758 l 1,2,-1
 48 795 l 1,3,-1
 269 795 l 1,4,-1
 269 -314 l 1,5,-1
 48 -314 l 1,6,-1
 48 -278 l 1,7,-1
 170 -278 l 1,0,-1
EndSplineSet
EndChar

StartChar: asciicircum
Encoding: 94 94 67
Width: 562
GlyphClass: 2
Flags: W
LayerCount: 2
Fore
SplineSet
112 431 m 1,0,-1
 43 431 l 1,1,-1
 250 750 l 1,2,-1
 313 750 l 1,3,-1
 521 431 l 1,4,-1
 449 431 l 1,5,-1
 280 697 l 1,6,-1
 112 431 l 1,0,-1
EndSplineSet
EndChar

StartChar: underscore
Encoding: 95 95 68
Width: 562
GlyphClass: 2
Flags: W
LayerCount: 2
Fore
SplineSet
0 -124 m 1,0,-1
 562 -124 l 1,1,-1
 562 -191 l 1,2,-1
 0 -191 l 1,3,-1
 0 -124 l 1,0,-1
EndSplineSet
EndChar

StartChar: grave
Encoding: 96 96 69
Width: 386
GlyphClass: 2
Flags: W
LayerCount: 2
Fore
SplineSet
361 605 m 1,0,-1
 330 605 l 1,1,-1
 95 750 l 1,2,-1
 229 750 l 1,3,-1
 361 605 l 1,0,-1
EndSplineSet
EndChar

StartChar: a
Encoding: 97 97 70
Width: 582
GlyphClass: 2
Flags: W
LayerCount: 2
Fore
SplineSet
542 0 m 1,0,-1
 366 0 l 1,1,-1
 366 101 l 1,2,3
 319 -9 319 -9 201 -9 c 0,4,5
 122 -9 122 -9 81 25.5 c 128,-1,6
 40 60 40 60 40 122 c 0,7,8
 40 210 40 210 117.5 248.5 c 128,-1,9
 195 287 195 287 364 290 c 1,10,-1
 364 333 l 2,11,12
 364 404 364 404 335 429.5 c 128,-1,13
 306 455 306 455 249 455 c 128,-1,14
 192 455 192 455 150 429 c 1,15,-1
 117 330 l 1,16,-1
 80 330 l 1,17,-1
 80 443 l 1,18,19
 105 464 105 464 149 478.5 c 128,-1,20
 193 493 193 493 245 493 c 0,21,22
 351 493 351 493 404.5 452.5 c 128,-1,23
 458 412 458 412 458 309 c 2,24,-1
 458 60 l 1,25,-1
 542 37 l 1,26,-1
 542 0 l 1,0,-1
227 33 m 0,27,28
 291 33 291 33 327.5 82.5 c 128,-1,29
 364 132 364 132 364 255 c 1,30,31
 192 255 192 255 154 202 c 0,32,33
 136 177 136 177 136 128 c 128,-1,34
 136 79 136 79 157.5 56 c 128,-1,35
 179 33 179 33 227 33 c 0,27,28
EndSplineSet
EndChar

StartChar: b
Encoding: 98 98 71
Width: 653
GlyphClass: 2
Flags: W
LayerCount: 2
Fore
SplineSet
40 750 m 1,0,-1
 218 750 l 1,1,-1
 218 372 l 1,2,3
 239 433 239 433 283 464 c 128,-1,4
 327 495 327 495 384 495 c 0,5,6
 477 495 477 495 535 428.5 c 128,-1,7
 593 362 593 362 593 242 c 128,-1,8
 593 122 593 122 535.5 56 c 128,-1,9
 478 -10 478 -10 383 -10 c 0,10,11
 322 -10 322 -10 277 23 c 128,-1,12
 232 56 232 56 212 118 c 1,13,-1
 212 0 l 1,14,-1
 40 0 l 1,15,-1
 40 37 l 1,16,-1
 123 60 l 1,17,-1
 123 699 l 1,18,-1
 40 714 l 1,19,-1
 40 750 l 1,0,-1
370 450 m 0,20,21
 305 450 305 450 261.5 393.5 c 128,-1,22
 218 337 218 337 218 243.5 c 128,-1,23
 218 150 218 150 259.5 92.5 c 128,-1,24
 301 35 301 35 370 35 c 0,25,26
 492 35 492 35 492 242.5 c 128,-1,27
 492 450 492 450 370 450 c 0,20,21
EndSplineSet
EndChar

StartChar: c
Encoding: 99 99 72
Width: 515
GlyphClass: 2
Flags: W
LayerCount: 2
Fore
SplineSet
460 156 m 1,0,-1
 460 38 l 1,1,2
 408 -10 408 -10 298.5 -10 c 128,-1,3
 189 -10 189 -10 119.5 56 c 128,-1,4
 50 122 50 122 50 240 c 128,-1,5
 50 358 50 358 121.5 426.5 c 128,-1,6
 193 495 193 495 304 495 c 0,7,8
 350 495 350 495 393 483.5 c 128,-1,9
 436 472 436 472 458 452 c 1,10,-1
 458 328 l 1,11,-1
 421 328 l 1,12,-1
 388 437 l 1,13,14
 360 458 360 458 295 458 c 128,-1,15
 230 458 230 458 191.5 402 c 128,-1,16
 153 346 153 346 153 239 c 0,17,18
 153 28 153 28 307 28 c 0,19,20
 358 28 358 28 388 42 c 1,21,-1
 423 156 l 1,22,-1
 460 156 l 1,0,-1
EndSplineSet
EndChar

StartChar: d
Encoding: 100 100 73
Width: 624
GlyphClass: 2
Flags: W
LayerCount: 2
Fore
SplineSet
361 750 m 1,0,-1
 529 750 l 1,1,-1
 529 58 l 1,2,-1
 614 37 l 1,3,-1
 614 0 l 1,4,-1
 440 0 l 1,5,-1
 440 114 l 1,6,7
 404 -10 404 -10 269 -10 c 0,8,9
 175 -10 175 -10 117.5 55 c 128,-1,10
 60 120 60 120 60 239.5 c 128,-1,11
 60 359 60 359 117.5 426 c 128,-1,12
 175 493 175 493 268 493 c 0,13,14
 335 493 335 493 379.5 461 c 128,-1,15
 424 429 424 429 436 377 c 1,16,-1
 436 699 l 1,17,-1
 361 714 l 1,18,-1
 361 750 l 1,0,-1
285 448 m 0,19,20
 161 448 161 448 161 241.5 c 128,-1,21
 161 35 161 35 286 35 c 0,22,23
 353 35 353 35 396.5 91 c 128,-1,24
 440 147 440 147 440 241 c 128,-1,25
 440 335 440 335 396.5 391.5 c 128,-1,26
 353 448 353 448 285 448 c 0,19,20
EndSplineSet
EndChar

StartChar: e
Encoding: 101 101 74
Width: 551
GlyphClass: 2
Flags: W
LayerCount: 2
Fore
SplineSet
483 169 m 1,0,-1
 483 55 l 1,1,2
 426 -10 426 -10 299.5 -10 c 128,-1,3
 173 -10 173 -10 112 56.5 c 128,-1,4
 51 123 51 123 51 241 c 128,-1,5
 51 359 51 359 115.5 426.5 c 128,-1,6
 180 494 180 494 289 494 c 0,7,8
 354 494 354 494 397.5 470 c 128,-1,9
 441 446 441 446 460 406 c 0,10,11
 490 340 490 340 490 267 c 1,12,-1
 151 267 l 1,13,14
 151 154 151 154 177 95 c 0,15,16
 207 28 207 28 295 28 c 0,17,18
 326 28 326 28 354.5 36.5 c 128,-1,19
 383 45 383 45 396 53 c 128,-1,20
 409 61 409 61 409 63 c 2,21,-1
 446 169 l 1,22,-1
 483 169 l 1,0,-1
287 455 m 0,23,24
 202 455 202 455 171 377 c 1,25,26
 156 342 156 342 153 300 c 1,27,-1
 403 300 l 1,28,29
 403 455 403 455 287 455 c 0,23,24
EndSplineSet
EndChar

StartChar: f
Encoding: 102 102 75
Width: 375
GlyphClass: 2
Flags: W
LayerCount: 2
Fore
SplineSet
375 600 m 1,0,-1
 333 600 l 1,1,-1
 310 686 l 1,2,3
 290 697 290 697 273 697 c 0,4,5
 239 697 239 697 221 663 c 128,-1,6
 203 629 203 629 203 575 c 128,-1,7
 203 521 203 521 224 486 c 1,8,-1
 344 486 l 1,9,-1
 344 445 l 1,10,-1
 226 445 l 1,11,-1
 226 59 l 1,12,-1
 302 37 l 1,13,-1
 302 0 l 1,14,-1
 62 0 l 1,15,-1
 62 37 l 1,16,-1
 131 59 l 1,17,-1
 131 445 l 1,18,-1
 40 445 l 1,19,-1
 40 486 l 1,20,-1
 131 486 l 1,21,22
 131 624 131 624 163 684.5 c 128,-1,23
 195 745 195 745 273 745 c 0,24,25
 313 745 313 745 375 728 c 1,26,-1
 375 600 l 1,0,-1
EndSplineSet
EndChar

StartChar: g
Encoding: 103 103 76
Width: 535
GlyphClass: 2
Flags: W
LayerCount: 2
Fore
SplineSet
138 -57 m 1,0,1
 90 -105 90 -105 90 -162 c 128,-1,2
 90 -219 90 -219 135.5 -256.5 c 128,-1,3
 181 -294 181 -294 264.5 -294 c 128,-1,4
 348 -294 348 -294 402.5 -257.5 c 128,-1,5
 457 -221 457 -221 457 -162 c 0,6,7
 457 -92 457 -92 361 -84 c 2,8,-1
 219 -73 l 2,9,10
 166 -69 166 -69 138 -57 c 1,0,1
262 456 m 0,11,12
 152 456 152 456 152 307 c 0,13,14
 152 230 152 230 179 194 c 128,-1,15
 206 158 206 158 263 158 c 0,16,17
 376 158 376 158 376 304 c 0,18,19
 376 385 376 385 349 420.5 c 128,-1,20
 322 456 322 456 262 456 c 0,11,12
529 483 m 1,21,-1
 529 448 l 1,22,-1
 439 413 l 1,23,24
 469 369 469 369 469 306 c 0,25,26
 469 221 469 221 410 171 c 128,-1,27
 351 121 351 121 260 121 c 0,28,29
 231 121 231 121 193 129 c 1,30,31
 144 102 144 102 144 71.5 c 128,-1,32
 144 41 144 41 161.5 29 c 128,-1,33
 179 17 179 17 242 11 c 2,34,-1
 341 3 l 1,35,36
 433 1 433 1 473 -33 c 128,-1,37
 513 -67 513 -67 513 -135 c 0,38,39
 513 -227 513 -227 441 -278 c 128,-1,40
 369 -329 369 -329 258 -329 c 128,-1,41
 147 -329 147 -329 86 -288 c 128,-1,42
 25 -247 25 -247 25 -171.5 c 128,-1,43
 25 -96 25 -96 116 -47 c 1,44,45
 76 -13 76 -13 76 29 c 128,-1,46
 76 71 76 71 95 93 c 128,-1,47
 114 115 114 115 164 138 c 1,48,49
 60 191 60 191 60 307 c 0,50,51
 60 393 60 393 115 444.5 c 128,-1,52
 170 496 170 496 263 496 c 0,53,54
 308 496 308 496 359 483 c 1,55,-1
 529 483 l 1,21,-1
EndSplineSet
EndChar

StartChar: h
Encoding: 104 104 77
Width: 630
GlyphClass: 2
Flags: W
LayerCount: 2
Fore
SplineSet
46 750 m 1,0,-1
 208 750 l 1,1,-1
 208 363 l 1,2,3
 242 493 242 493 379 493 c 0,4,5
 456 493 456 493 499 448.5 c 128,-1,6
 542 404 542 404 542 317 c 2,7,-1
 542 58 l 1,8,-1
 615 37 l 1,9,-1
 615 0 l 1,10,-1
 378 0 l 1,11,-1
 378 37 l 1,12,-1
 447 58 l 1,13,-1
 447 315 l 2,14,15
 447 385 447 385 425 415 c 128,-1,16
 403 445 403 445 357 445 c 0,17,18
 286 445 286 445 247 380 c 128,-1,19
 208 315 208 315 208 182 c 2,20,-1
 208 57 l 1,21,-1
 277 37 l 1,22,-1
 277 0 l 1,23,-1
 40 0 l 1,24,-1
 40 37 l 1,25,-1
 113 59 l 1,26,-1
 113 702 l 1,27,-1
 46 714 l 1,28,-1
 46 750 l 1,0,-1
EndSplineSet
EndChar

StartChar: i
Encoding: 105 105 78
Width: 322
GlyphClass: 2
Flags: W
LayerCount: 2
Fore
SplineSet
50 485 m 1,0,-1
 212 485 l 1,1,-1
 212 57 l 1,2,-1
 282 37 l 1,3,-1
 282 0 l 1,4,-1
 45 0 l 1,5,-1
 45 37 l 1,6,-1
 118 59 l 1,7,-1
 118 437 l 1,8,-1
 50 449 l 1,9,-1
 50 485 l 1,0,-1
100.5 740.5 m 128,-1,11
 118 756 118 756 147.5 756 c 128,-1,12
 177 756 177 756 195 740.5 c 128,-1,13
 213 725 213 725 213 698.5 c 128,-1,14
 213 672 213 672 196 656 c 128,-1,15
 179 640 179 640 148.5 640 c 128,-1,16
 118 640 118 640 100.5 655.5 c 128,-1,17
 83 671 83 671 83 698 c 128,-1,10
 83 725 83 725 100.5 740.5 c 128,-1,11
EndSplineSet
EndChar

StartChar: j
Encoding: 106 106 79
Width: 241
GlyphClass: 2
Flags: W
LayerCount: 2
Fore
SplineSet
22 485 m 1,0,-1
 184 485 l 1,1,-1
 184 38 l 2,2,3
 184 -61 184 -61 171.5 -116 c 128,-1,4
 159 -171 159 -171 133.5 -209 c 128,-1,5
 108 -247 108 -247 39 -322 c 1,6,-1
 10 -300 l 1,7,8
 67 -234 67 -234 78 -184 c 128,-1,9
 89 -134 89 -134 89 -15 c 2,10,-1
 89 437 l 1,11,-1
 22 449 l 1,12,-1
 22 485 l 1,0,-1
81.5 740.5 m 128,-1,14
 99 756 99 756 128.5 756 c 128,-1,15
 158 756 158 756 176 740.5 c 128,-1,16
 194 725 194 725 194 698.5 c 128,-1,17
 194 672 194 672 177 656 c 128,-1,18
 160 640 160 640 129.5 640 c 128,-1,19
 99 640 99 640 81.5 655.5 c 128,-1,20
 64 671 64 671 64 698 c 128,-1,13
 64 725 64 725 81.5 740.5 c 128,-1,14
EndSplineSet
EndChar

StartChar: k
Encoding: 107 107 80
Width: 646
GlyphClass: 2
Flags: W
LayerCount: 2
Fore
SplineSet
60 750 m 1,0,-1
 238 750 l 1,1,-1
 238 279 l 1,2,-1
 401 429 l 1,3,-1
 329 447 l 1,4,-1
 329 484 l 1,5,-1
 559 484 l 1,6,-1
 559 447 l 1,7,-1
 471 426 l 1,8,-1
 320 304 l 1,9,-1
 538 61 l 1,10,-1
 636 37 l 1,11,-1
 636 0 l 1,12,-1
 467 0 l 1,13,-1
 238 261 l 1,14,-1
 238 61 l 1,15,-1
 314 37 l 1,16,-1
 314 0 l 1,17,-1
 60 0 l 1,18,-1
 60 37 l 1,19,-1
 143 60 l 1,20,-1
 143 700 l 1,21,-1
 60 714 l 1,22,-1
 60 750 l 1,0,-1
EndSplineSet
EndChar

StartChar: l
Encoding: 108 108 81
Width: 344
GlyphClass: 2
Flags: W
LayerCount: 2
Fore
SplineSet
66 750 m 1,0,-1
 233 750 l 1,1,-1
 233 59 l 1,2,-1
 314 37 l 1,3,-1
 314 0 l 1,4,-1
 60 0 l 1,5,-1
 60 37 l 1,6,-1
 138 58 l 1,7,-1
 138 702 l 1,8,-1
 66 714 l 1,9,-1
 66 750 l 1,0,-1
EndSplineSet
EndChar

StartChar: m
Encoding: 109 109 82
Width: 1010
GlyphClass: 2
Flags: W
LayerCount: 2
Fore
SplineSet
58 485 m 1,0,-1
 220 485 l 1,1,-1
 220 355 l 1,2,3
 265 493 265 493 401 493 c 0,4,5
 463 493 463 493 500 464 c 128,-1,6
 537 435 537 435 552 367 c 1,7,8
 597 493 597 493 722 493 c 0,9,10
 795 493 795 493 836.5 450.5 c 128,-1,11
 878 408 878 408 878 326 c 2,12,-1
 878 57 l 1,13,-1
 962 37 l 1,14,-1
 962 0 l 1,15,-1
 712 0 l 1,16,-1
 712 37 l 1,17,-1
 784 59 l 1,18,-1
 784 301 l 2,19,20
 784 383 784 383 762 413.5 c 128,-1,21
 740 444 740 444 696 444 c 0,22,23
 554 444 554 444 554 182 c 2,24,-1
 554 58 l 1,25,-1
 639 37 l 1,26,-1
 639 0 l 1,27,-1
 385 0 l 1,28,-1
 385 37 l 1,29,-1
 459 58 l 1,30,-1
 459 285 l 2,31,32
 459 372 459 372 440 408.5 c 128,-1,33
 421 445 421 445 376 445 c 128,-1,34
 331 445 331 445 302 422.5 c 128,-1,35
 273 400 273 400 258 362 c 0,36,37
 229 292 229 292 229 193 c 2,38,-1
 229 59 l 1,39,-1
 307 37 l 1,40,-1
 307 0 l 1,41,-1
 55 0 l 1,42,-1
 55 37 l 1,43,-1
 134 58 l 1,44,-1
 134 436 l 1,45,-1
 58 449 l 1,46,-1
 58 485 l 1,0,-1
EndSplineSet
EndChar

StartChar: n
Encoding: 110 110 83
Width: 688
GlyphClass: 2
Flags: W
LayerCount: 2
Fore
SplineSet
67 486 m 1,0,-1
 229 486 l 1,1,-1
 229 345 l 1,2,3
 269 493 269 493 407 493 c 0,4,5
 488 493 488 493 527 443.5 c 128,-1,6
 566 394 566 394 566 307 c 2,7,-1
 566 59 l 1,8,-1
 643 37 l 1,9,-1
 643 0 l 1,10,-1
 406 0 l 1,11,-1
 406 37 l 1,12,-1
 473 57 l 1,13,-1
 473 295 l 2,14,15
 473 376 473 376 451.5 411 c 128,-1,16
 430 446 430 446 384 446 c 0,17,18
 313 446 313 446 274.5 378.5 c 128,-1,19
 236 311 236 311 236 176 c 2,20,-1
 236 57 l 1,21,-1
 306 37 l 1,22,-1
 306 0 l 1,23,-1
 67 0 l 1,24,-1
 67 37 l 1,25,-1
 141 58 l 1,26,-1
 141 436 l 1,27,-1
 67 450 l 1,28,-1
 67 486 l 1,0,-1
EndSplineSet
EndChar

StartChar: o
Encoding: 111 111 84
Width: 582
GlyphClass: 2
Flags: W
LayerCount: 2
Fore
SplineSet
401 399.5 m 128,-1,1
 368 452 368 452 293.5 452 c 128,-1,2
 219 452 219 452 183.5 401.5 c 128,-1,3
 148 351 148 351 148 240 c 128,-1,4
 148 129 148 129 183 80.5 c 128,-1,5
 218 32 218 32 290.5 32 c 128,-1,6
 363 32 363 32 398.5 81.5 c 128,-1,7
 434 131 434 131 434 239 c 128,-1,0
 434 347 434 347 401 399.5 c 128,-1,1
114 425.5 m 128,-1,9
 181 494 181 494 291.5 494 c 128,-1,10
 402 494 402 494 468 427 c 128,-1,11
 534 360 534 360 534 240 c 128,-1,12
 534 120 534 120 468 55.5 c 128,-1,13
 402 -9 402 -9 290.5 -9 c 128,-1,14
 179 -9 179 -9 113 56 c 128,-1,15
 47 121 47 121 47 239 c 128,-1,8
 47 357 47 357 114 425.5 c 128,-1,9
EndSplineSet
EndChar

StartChar: p
Encoding: 112 112 85
Width: 628
GlyphClass: 2
Flags: W
LayerCount: 2
Fore
SplineSet
32 485 m 1,0,-1
 194 485 l 1,1,-1
 194 362 l 1,2,3
 240 493 240 493 365 493 c 0,4,5
 460 493 460 493 517.5 427 c 128,-1,6
 575 361 575 361 575 241.5 c 128,-1,7
 575 122 575 122 517.5 55.5 c 128,-1,8
 460 -11 460 -11 366 -11 c 0,9,10
 245 -11 245 -11 200 108 c 1,11,-1
 200 -256 l 1,12,-1
 273 -278 l 1,13,-1
 273 -315 l 1,14,-1
 30 -315 l 1,15,-1
 30 -278 l 1,16,-1
 105 -256 l 1,17,-1
 105 437 l 1,18,-1
 32 450 l 1,19,-1
 32 485 l 1,0,-1
351 449 m 0,20,21
 286 449 286 449 243.5 394 c 128,-1,22
 201 339 201 339 201 245.5 c 128,-1,23
 201 152 201 152 242 92.5 c 128,-1,24
 283 33 283 33 351 33 c 0,25,26
 473 33 473 33 473 241 c 128,-1,27
 473 449 473 449 351 449 c 0,20,21
EndSplineSet
EndChar

StartChar: q
Encoding: 113 113 86
Width: 601
GlyphClass: 2
Flags: W
LayerCount: 2
Fore
SplineSet
346 -315 m 1,0,-1
 346 -278 l 1,1,-1
 423 -256 l 1,2,-1
 423 108 l 1,3,4
 378 -11 378 -11 256 -11 c 0,5,6
 162 -11 162 -11 104.5 55 c 128,-1,7
 47 121 47 121 47 239.5 c 128,-1,8
 47 358 47 358 107 425.5 c 128,-1,9
 167 493 167 493 258 493 c 0,10,11
 323 493 323 493 372 459.5 c 128,-1,12
 421 426 421 426 430 364 c 1,13,-1
 516 492 l 1,14,-1
 516 -256 l 1,15,-1
 591 -278 l 1,16,-1
 591 -315 l 1,17,-1
 346 -315 l 1,0,-1
275 448 m 0,18,19
 147 448 147 448 147 241.5 c 128,-1,20
 147 35 147 35 271 35 c 0,21,22
 339 35 339 35 381 91 c 128,-1,23
 423 147 423 147 423 242 c 128,-1,24
 423 337 423 337 383.5 392.5 c 128,-1,25
 344 448 344 448 275 448 c 0,18,19
EndSplineSet
EndChar

StartChar: r
Encoding: 114 114 87
Width: 489
GlyphClass: 2
Flags: W
LayerCount: 2
Fore
SplineSet
60 485 m 1,0,-1
 226 485 l 1,1,-1
 226 343 l 1,2,3
 246 403 246 403 288 443.5 c 128,-1,4
 330 484 330 484 390 484 c 0,5,6
 427 484 427 484 479 457 c 1,7,-1
 479 337 l 1,8,-1
 440 337 l 1,9,-1
 409 419 l 1,10,11
 390 429 390 429 366 429 c 0,12,13
 322 429 322 429 277.5 377.5 c 128,-1,14
 233 326 233 326 233 267 c 2,15,-1
 233 58 l 1,16,-1
 307 37 l 1,17,-1
 307 0 l 1,18,-1
 62 0 l 1,19,-1
 62 37 l 1,20,-1
 138 58 l 1,21,-1
 138 435 l 1,22,-1
 60 449 l 1,23,-1
 60 485 l 1,0,-1
EndSplineSet
EndChar

StartChar: s
Encoding: 115 115 88
Width: 470
GlyphClass: 2
Flags: W
LayerCount: 2
Fore
SplineSet
428 143 m 0,0,1
 428 76 428 76 378 35.5 c 128,-1,2
 328 -5 328 -5 224.5 -5 c 128,-1,3
 121 -5 121 -5 63 50 c 1,4,-1
 63 166 l 1,5,-1
 102 166 l 1,6,-1
 131 68 l 1,7,8
 166 33 166 33 243 33 c 0,9,10
 297 33 297 33 325 57 c 128,-1,11
 353 81 353 81 353 115 c 128,-1,12
 353 149 353 149 324 168 c 128,-1,13
 295 187 295 187 209.5 214.5 c 128,-1,14
 124 242 124 242 90 272 c 128,-1,15
 56 302 56 302 56 361.5 c 128,-1,16
 56 421 56 421 105 460 c 128,-1,17
 154 499 154 499 249 499 c 128,-1,18
 344 499 344 499 402 454 c 1,19,-1
 402 339 l 1,20,-1
 363 339 l 1,21,-1
 332 435 l 1,22,23
 299 461 299 461 244 461 c 0,24,25
 135 461 135 461 135 383 c 0,26,27
 135 354 135 354 166.5 332.5 c 128,-1,28
 198 311 198 311 282 285 c 128,-1,29
 366 259 366 259 397 226.5 c 128,-1,30
 428 194 428 194 428 143 c 0,0,1
EndSplineSet
EndChar

StartChar: t
Encoding: 116 116 89
Width: 355
GlyphClass: 2
Flags: W
LayerCount: 2
Fore
SplineSet
199 485 m 1,0,-1
 345 485 l 1,1,-1
 345 443 l 1,2,-1
 199 443 l 1,3,-1
 199 133 l 2,4,5
 199 74 199 74 213 51.5 c 128,-1,6
 227 29 227 29 258 29 c 128,-1,7
 289 29 289 29 342 44 c 1,8,-1
 342 7 l 1,9,10
 272 -12 272 -12 228 -12 c 0,11,12
 106 -12 106 -12 106 135 c 2,13,-1
 106 443 l 1,14,-1
 20 443 l 1,15,-1
 20 485 l 1,16,-1
 106 485 l 1,17,-1
 106 588 l 1,18,-1
 199 641 l 1,19,-1
 199 485 l 1,0,-1
EndSplineSet
EndChar

StartChar: u
Encoding: 117 117 90
Width: 635
GlyphClass: 2
Flags: W
LayerCount: 2
Fore
SplineSet
42 485 m 1,0,-1
 208 485 l 1,1,-1
 208 186 l 2,2,3
 208 107 208 107 228.5 74 c 128,-1,4
 249 41 249 41 296 41 c 0,5,6
 366 41 366 41 406 107 c 128,-1,7
 446 173 446 173 446 309 c 2,8,-1
 446 435 l 1,9,-1
 373 448 l 1,10,-1
 373 485 l 1,11,-1
 539 485 l 1,12,-1
 539 60 l 1,13,-1
 618 37 l 1,14,-1
 618 0 l 1,15,-1
 452 0 l 1,16,-1
 452 135 l 1,17,18
 426 64 426 64 379.5 26.5 c 128,-1,19
 333 -11 333 -11 278 -11 c 0,20,21
 114 -11 114 -11 114 169 c 2,22,-1
 114 435 l 1,23,-1
 42 448 l 1,24,-1
 42 485 l 1,0,-1
EndSplineSet
EndChar

StartChar: v
Encoding: 118 118 91
Width: 628
GlyphClass: 2
Flags: W
LayerCount: 2
Fore
SplineSet
388 485 m 1,0,-1
 598 485 l 1,1,-1
 598 448 l 1,2,-1
 524 431 l 1,3,-1
 344 0 l 1,4,-1
 285 0 l 1,5,-1
 108 431 l 1,6,-1
 30 448 l 1,7,-1
 30 485 l 1,8,-1
 284 485 l 1,9,-1
 284 448 l 1,10,-1
 215 431 l 1,11,-1
 343 100 l 1,12,-1
 460 431 l 1,13,-1
 388 448 l 1,14,-1
 388 485 l 1,0,-1
EndSplineSet
EndChar

StartChar: w
Encoding: 119 119 92
Width: 944
GlyphClass: 2
Flags: W
LayerCount: 2
Fore
SplineSet
705 486 m 1,0,-1
 914 486 l 1,1,-1
 914 448 l 1,2,-1
 835 434 l 1,3,-1
 675 0 l 1,4,-1
 614 0 l 1,5,-1
 475 381 l 1,6,-1
 339 0 l 1,7,-1
 274 0 l 1,8,-1
 115 433 l 1,9,-1
 30 448 l 1,10,-1
 30 485 l 1,11,-1
 284 485 l 1,12,-1
 284 448 l 1,13,-1
 215 434 l 1,14,-1
 331 103 l 1,15,-1
 466 487 l 1,16,-1
 531 487 l 1,17,-1
 672 99 l 1,18,-1
 778 435 l 1,19,-1
 705 448 l 1,20,-1
 705 486 l 1,0,-1
EndSplineSet
EndChar

StartChar: x
Encoding: 120 120 93
Width: 610
GlyphClass: 2
Flags: W
LayerCount: 2
Fore
SplineSet
30 485 m 1,0,-1
 284 485 l 1,1,-1
 284 448 l 1,2,-1
 223 436 l 1,3,-1
 321 294 l 1,4,-1
 436 437 l 1,5,-1
 365 448 l 1,6,-1
 365 485 l 1,7,-1
 569 485 l 1,8,-1
 569 448 l 1,9,-1
 497 435 l 1,10,-1
 347 264 l 1,11,-1
 503 54 l 1,12,-1
 580 38 l 1,13,-1
 580 0 l 1,14,-1
 326 0 l 1,15,-1
 326 38 l 1,16,-1
 390 54 l 1,17,-1
 287 203 l 1,18,-1
 171 52 l 1,19,-1
 241 38 l 1,20,-1
 241 0 l 1,21,-1
 31 0 l 1,22,-1
 31 38 l 1,23,-1
 108 54 l 1,24,-1
 258 233 l 1,25,-1
 109 435 l 1,26,-1
 30 448 l 1,27,-1
 30 485 l 1,0,-1
EndSplineSet
EndChar

StartChar: y
Encoding: 121 121 94
Width: 607
GlyphClass: 2
Flags: W
LayerCount: 2
Fore
SplineSet
377 486 m 1,0,-1
 587 486 l 1,1,-1
 587 448 l 1,2,-1
 508 436 l 1,3,-1
 300 -76 l 1,4,5
 257 -178 257 -178 229 -209 c 128,-1,6
 201 -240 201 -240 137 -240 c 2,7,-1
 93 -240 l 1,8,-1
 93 -94 l 1,9,-1
 130 -94 l 1,10,-1
 155 -184 l 1,11,12
 186 -182 186 -182 200 -167.5 c 128,-1,13
 214 -153 214 -153 221 -145 c 128,-1,14
 228 -137 228 -137 237.5 -116.5 c 128,-1,15
 247 -96 247 -96 251.5 -85 c 128,-1,16
 256 -74 256 -74 267 -45 c 128,-1,17
 278 -16 278 -16 284 -2 c 1,18,-1
 93 430 l 1,19,-1
 10 448 l 1,20,-1
 10 485 l 1,21,-1
 264 485 l 1,22,-1
 264 448 l 1,23,-1
 196 434 l 1,24,-1
 333 110 l 1,25,-1
 454 435 l 1,26,-1
 377 448 l 1,27,-1
 377 486 l 1,0,-1
EndSplineSet
EndChar

StartChar: z
Encoding: 122 122 95
Width: 452
GlyphClass: 2
Flags: W
LayerCount: 2
Fore
SplineSet
37 485 m 1,0,-1
 423 485 l 1,1,-1
 423 456 l 1,2,-1
 137 43 l 1,3,-1
 381 43 l 1,4,-1
 406 129 l 1,5,-1
 442 129 l 1,6,-1
 442 0 l 1,7,-1
 20 0 l 1,8,-1
 20 27 l 1,9,-1
 306 443 l 1,10,-1
 98 443 l 1,11,-1
 74 357 l 1,12,-1
 37 357 l 1,13,-1
 37 485 l 1,0,-1
EndSplineSet
EndChar

StartChar: braceleft
Encoding: 123 123 96
Width: 373
GlyphClass: 2
Flags: W
LayerCount: 2
Fore
SplineSet
240 -168 m 2,0,1
 240 -230 240 -230 268 -255 c 128,-1,2
 296 -280 296 -280 363 -282 c 1,3,-1
 363 -320 l 1,4,-1
 292 -320 l 2,5,6
 209 -320 209 -320 177.5 -283 c 128,-1,7
 146 -246 146 -246 142 -134 c 1,8,-1
 142 115 l 2,9,10
 142 220 142 220 30 224 c 1,11,-1
 30 258 l 1,12,13
 142 262 142 262 142 367 c 2,14,-1
 142 614 l 1,15,16
 144 725 144 725 176.5 762.5 c 128,-1,17
 209 800 209 800 292 800 c 2,18,-1
 363 800 l 1,19,-1
 363 764 l 1,20,21
 293 760 293 760 266.5 736 c 128,-1,22
 240 712 240 712 240 649 c 2,23,-1
 240 371 l 1,24,25
 236 265 236 265 139 241 c 1,26,27
 188 225 188 225 213 197.5 c 128,-1,28
 238 170 238 170 240 110 c 1,29,-1
 240 -168 l 2,0,1
EndSplineSet
EndChar

StartChar: bar
Encoding: 124 124 97
Width: 569
GlyphClass: 2
Flags: W
LayerCount: 2
Fore
SplineSet
250 750 m 1,0,-1
 319 750 l 1,1,-1
 319 -188 l 1,2,-1
 250 -188 l 1,3,-1
 250 750 l 1,0,-1
EndSplineSet
EndChar

StartChar: braceright
Encoding: 125 125 98
Width: 373
GlyphClass: 2
Flags: W
LayerCount: 2
Fore
SplineSet
133 371 m 2,0,-1
 133 649 l 2,1,2
 133 710 133 710 105.5 735.5 c 128,-1,3
 78 761 78 761 10 764 c 1,4,-1
 10 800 l 1,5,-1
 81 800 l 2,6,7
 121 800 121 800 146 793.5 c 128,-1,8
 171 787 171 787 191 768 c 0,9,10
 229 730 229 730 229 614 c 2,11,-1
 229 367 l 2,12,13
 229 261 229 261 343 258 c 1,14,-1
 343 224 l 1,15,16
 229 216 229 216 229 115 c 2,17,-1
 229 -134 l 1,18,19
 227 -246 227 -246 195 -283 c 128,-1,20
 163 -320 163 -320 81 -320 c 2,21,-1
 10 -320 l 1,22,-1
 10 -282 l 1,23,24
 79 -280 79 -280 104 -256.5 c 128,-1,25
 129 -233 129 -233 133 -168 c 1,26,-1
 133 110 l 2,27,28
 133 214 133 214 234 241 c 1,29,30
 184 253 184 253 158.5 283 c 128,-1,31
 133 313 133 313 133 371 c 2,0,-1
EndSplineSet
EndChar

StartChar: asciitilde
Encoding: 126 126 99
Width: 562
GlyphClass: 2
Flags: W
LayerCount: 2
Fore
SplineSet
227 442 m 0,0,1
 244 442 244 442 300 406.5 c 128,-1,2
 356 371 356 371 371 371 c 0,3,4
 399 371 399 371 448 433 c 1,5,-1
 476 421 l 1,6,-1
 457 397 l 1,7,8
 423 348 423 348 397.5 328 c 128,-1,9
 372 308 372 308 339 308 c 0,10,11
 322 308 322 308 264 344 c 128,-1,12
 206 380 206 380 194 380 c 128,-1,13
 182 380 182 380 172.5 374.5 c 128,-1,14
 163 369 163 369 156.5 362.5 c 128,-1,15
 150 356 150 356 132 335 c 2,16,-1
 114 315 l 1,17,-1
 87 327 l 1,18,19
 130 391 130 391 159.5 416.5 c 128,-1,20
 189 442 189 442 227 442 c 0,0,1
EndSplineSet
EndChar

StartChar: exclamdown
Encoding: 161 161 101
Width: 343
GlyphClass: 2
Flags: W
LayerCount: 2
Fore
SplineSet
217.5 648.5 m 128,-1,1
 199 631 199 631 170 631 c 128,-1,2
 141 631 141 631 123 649.5 c 128,-1,3
 105 668 105 668 105 695.5 c 128,-1,4
 105 723 105 723 123.5 742 c 128,-1,5
 142 761 142 761 171 761 c 128,-1,6
 200 761 200 761 218 742.5 c 128,-1,7
 236 724 236 724 236 695 c 128,-1,0
 236 666 236 666 217.5 648.5 c 128,-1,1
150 567 m 1,8,-1
 191 567 l 1,9,-1
 228 0 l 1,10,-1
 114 0 l 1,11,-1
 150 567 l 1,8,-1
EndSplineSet
EndChar

StartChar: cent
Encoding: 162 162 102
Width: 505
GlyphClass: 2
Flags: W
LayerCount: 2
Fore
SplineSet
273 -129 m 1,0,-1
 273 -9 l 1,1,2
 173 -3 173 -3 110 62.5 c 128,-1,3
 47 128 47 128 47 239 c 128,-1,4
 47 350 47 350 110 417 c 128,-1,5
 173 484 173 484 273 494 c 1,6,-1
 273 607 l 1,7,-1
 315 607 l 1,8,-1
 315 495 l 1,9,10
 418 489 418 489 455 452 c 1,11,-1
 455 328 l 1,12,-1
 418 328 l 1,13,-1
 385 437 l 1,14,15
 365 451 365 451 315 457 c 1,16,-1
 315 28 l 1,17,18
 359 30 359 30 385 42 c 1,19,-1
 420 156 l 1,20,-1
 457 156 l 1,21,-1
 457 38 l 1,22,23
 412 -4 412 -4 315 -9 c 1,24,-1
 315 -129 l 1,25,-1
 273 -129 l 1,0,-1
150 239 m 0,26,27
 150 51 150 51 273 30 c 1,28,-1
 273 456 l 1,29,30
 214 447 214 447 182 392 c 128,-1,31
 150 337 150 337 150 239 c 0,26,27
EndSplineSet
EndChar

StartChar: sterling
Encoding: 163 163 103
Width: 640
GlyphClass: 2
Flags: W
LayerCount: 2
Fore
SplineSet
398 364 m 1,0,-1
 242 364 l 1,1,2
 240 189 240 189 204 132 c 0,3,4
 188 108 188 108 152 75 c 1,5,-1
 570 75 l 1,6,-1
 570 0 l 1,7,-1
 38 0 l 1,8,-1
 38 30 l 1,9,10
 91 30 91 30 113 75.5 c 128,-1,11
 135 121 135 121 135 241 c 2,12,-1
 135 364 l 1,13,-1
 33 364 l 1,14,-1
 33 401 l 1,15,-1
 135 401 l 1,16,-1
 135 451 l 2,17,18
 135 674 135 674 254 734 c 1,19,20
 302 757 302 757 370 757 c 0,21,22
 482 757 482 757 543 676 c 1,23,-1
 543 544 l 1,24,-1
 499 544 l 1,25,-1
 457 678 l 1,26,27
 423 722 423 722 369 722 c 128,-1,28
 315 722 315 722 278.5 678.5 c 128,-1,29
 242 635 242 635 242 566 c 2,30,-1
 242 401 l 1,31,-1
 398 401 l 1,32,-1
 398 364 l 1,0,-1
EndSplineSet
EndChar

StartChar: currency
Encoding: 164 164 104
Width: 721
GlyphClass: 2
Flags: W
LayerCount: 2
Fore
SplineSet
498 533.5 m 128,-1,1
 439 591 439 591 360 591 c 128,-1,2
 281 591 281 591 222.5 533 c 128,-1,3
 164 475 164 475 164 392.5 c 128,-1,4
 164 310 164 310 222.5 253 c 128,-1,5
 281 196 281 196 361 196 c 128,-1,6
 441 196 441 196 499 253 c 128,-1,7
 557 310 557 310 557 393 c 128,-1,0
 557 476 557 476 498 533.5 c 128,-1,1
154 231 m 1,8,9
 97 304 97 304 97 390.5 c 128,-1,10
 97 477 97 477 154 555 c 1,11,-1
 60 648 l 1,12,-1
 102 691 l 1,13,-1
 197 597 l 1,14,15
 272 656 272 656 359.5 656 c 128,-1,16
 447 656 447 656 523 597 c 1,17,-1
 614 687 l 1,18,-1
 657 645 l 1,19,-1
 567 555 l 1,20,21
 624 477 624 477 624 391.5 c 128,-1,22
 624 306 624 306 567 231 c 1,23,-1
 661 137 l 1,24,-1
 619 93 l 1,25,-1
 524 188 l 1,26,27
 450 129 450 129 363.5 129 c 128,-1,28
 277 129 277 129 198 188 c 1,29,-1
 108 97 l 1,30,-1
 65 141 l 1,31,-1
 154 231 l 1,8,9
EndSplineSet
EndChar

StartChar: yen
Encoding: 165 165 105
Width: 695
GlyphClass: 2
Flags: W
LayerCount: 2
Fore
SplineSet
144 321 m 1,0,-1
 144 365 l 1,1,-1
 318 365 l 1,2,-1
 126 688 l 1,3,-1
 30 713 l 1,4,-1
 30 750 l 1,5,-1
 334 750 l 1,6,-1
 334 713 l 1,7,-1
 246 692 l 1,8,-1
 436 366 l 1,9,-1
 611 689 l 1,10,-1
 524 714 l 1,11,-1
 524 750 l 1,12,-1
 769 750 l 1,13,-1
 769 714 l 1,14,-1
 680 687 l 1,15,-1
 484 365 l 1,16,-1
 670 365 l 1,17,-1
 670 321 l 1,18,-1
 458 321 l 1,19,-1
 458 266 l 1,20,-1
 670 266 l 1,21,-1
 670 222 l 1,22,-1
 458 222 l 1,23,-1
 458 60 l 1,24,-1
 561 37 l 1,25,-1
 561 0 l 1,26,-1
 257 0 l 1,27,-1
 257 37 l 1,28,-1
 353 59 l 1,29,-1
 353 222 l 1,30,-1
 144 222 l 1,31,-1
 144 266 l 1,32,-1
 353 266 l 1,33,-1
 353 307 l 1,34,-1
 344 321 l 1,35,-1
 144 321 l 1,0,-1
EndSplineSet
EndChar

StartChar: brokenbar
Encoding: 166 166 106
Width: 562
GlyphClass: 2
Flags: W
LayerCount: 2
Fore
SplineSet
246 172 m 1,0,-1
 315 172 l 1,1,-1
 315 -188 l 1,2,-1
 246 -188 l 1,3,-1
 246 172 l 1,0,-1
246 750 m 1,4,-1
 315 750 l 1,5,-1
 315 378 l 1,6,-1
 246 378 l 1,7,-1
 246 750 l 1,4,-1
EndSplineSet
EndChar

StartChar: section
Encoding: 167 167 107
Width: 585
GlyphClass: 2
Flags: W
LayerCount: 2
Fore
SplineSet
506 218 m 0,0,1
 506 146 506 146 384 51 c 1,2,3
 485 -29 485 -29 485 -110 c 2,4,-1
 485 -114 l 1,5,6
 483 -184 483 -184 426.5 -233 c 128,-1,7
 370 -282 370 -282 275 -282 c 0,8,9
 231 -282 231 -282 185.5 -264 c 128,-1,10
 140 -246 140 -246 112 -221 c 1,11,-1
 112 -65 l 1,12,-1
 159 -65 l 1,13,-1
 199 -217 l 1,14,15
 224 -241 224 -241 278.5 -241 c 128,-1,16
 333 -241 333 -241 366.5 -216.5 c 128,-1,17
 400 -192 400 -192 400 -150 c 0,18,19
 400 -103 400 -103 348 -54 c 0,20,21
 313 -21 313 -21 254.5 22 c 128,-1,22
 196 65 196 65 174 82.5 c 128,-1,23
 152 100 152 100 120 130 c 0,24,25
 62 186 62 186 62 249 c 0,26,27
 62 322 62 322 180 412 c 1,28,29
 67 491 67 491 67 574 c 0,30,31
 67 644 67 644 129 696.5 c 128,-1,32
 191 749 191 749 281 749 c 0,33,34
 324 749 324 749 366 731.5 c 128,-1,35
 408 714 408 714 436 688 c 1,36,-1
 436 532 l 1,37,-1
 389 532 l 1,38,-1
 349 684 l 1,39,40
 324 709 324 709 274.5 709 c 128,-1,41
 225 709 225 709 194 683.5 c 128,-1,42
 163 658 163 658 163 616 c 0,43,44
 163 593 163 593 173.5 571.5 c 128,-1,45
 184 550 184 550 213 523.5 c 128,-1,46
 242 497 242 497 257.5 485 c 128,-1,47
 273 473 273 473 319.5 439 c 128,-1,48
 366 405 366 405 387 388.5 c 128,-1,49
 408 372 408 372 442 340 c 0,50,51
 506 281 506 281 506 218 c 0,0,1
210 389 m 1,52,53
 139 328 139 328 139 293 c 128,-1,54
 139 258 139 258 176.5 219 c 128,-1,55
 214 180 214 180 352 74 c 1,56,57
 424 136 424 136 424 172.5 c 128,-1,58
 424 209 424 209 387 246.5 c 128,-1,59
 350 284 350 284 210 389 c 1,52,53
EndSplineSet
EndChar

StartChar: dieresis
Encoding: 168 168 108
Width: 562
GlyphClass: 2
Flags: W
LayerCount: 2
Fore
SplineSet
120.5 740.5 m 128,-1,1
 138 756 138 756 167.5 756 c 128,-1,2
 197 756 197 756 215 740.5 c 128,-1,3
 233 725 233 725 233 698.5 c 128,-1,4
 233 672 233 672 216 656 c 128,-1,5
 199 640 199 640 168.5 640 c 128,-1,6
 138 640 138 640 120.5 655.5 c 128,-1,7
 103 671 103 671 103 698 c 128,-1,0
 103 725 103 725 120.5 740.5 c 128,-1,1
343.5 740.5 m 128,-1,9
 361 756 361 756 390.5 756 c 128,-1,10
 420 756 420 756 438 740.5 c 128,-1,11
 456 725 456 725 456 698.5 c 128,-1,12
 456 672 456 672 439 656 c 128,-1,13
 422 640 422 640 391.5 640 c 128,-1,14
 361 640 361 640 343.5 655.5 c 128,-1,15
 326 671 326 671 326 698 c 128,-1,8
 326 725 326 725 343.5 740.5 c 128,-1,9
EndSplineSet
EndChar

StartChar: copyright
Encoding: 169 169 109
Width: 897
GlyphClass: 2
Flags: W
LayerCount: 2
Fore
SplineSet
596 298 m 1,0,-1
 596 196 l 1,1,2
 547 152 547 152 449.5 152 c 128,-1,3
 352 152 352 152 289.5 211 c 128,-1,4
 227 270 227 270 227 376 c 128,-1,5
 227 482 227 482 291 543.5 c 128,-1,6
 355 605 355 605 454 605 c 0,7,8
 495 605 495 605 534.5 594 c 128,-1,9
 574 583 574 583 594 565 c 1,10,-1
 594 457 l 1,11,-1
 562 457 l 1,12,-1
 532 553 l 1,13,14
 499 574 499 574 450 574 c 0,15,16
 387 574 387 574 352 523.5 c 128,-1,17
 317 473 317 473 317 375 c 0,18,19
 317 183 317 183 457 183 c 0,20,21
 505 183 505 183 531 197 c 1,22,-1
 564 298 l 1,23,-1
 596 298 l 1,0,-1
678.5 619.5 m 128,-1,25
 578 719 578 719 442 719 c 128,-1,26
 306 719 306 719 207.5 617 c 128,-1,27
 109 515 109 515 109 375 c 128,-1,28
 109 235 109 235 207.5 133.5 c 128,-1,29
 306 32 306 32 443.5 32 c 128,-1,30
 581 32 581 32 680 133.5 c 128,-1,31
 779 235 779 235 779 377.5 c 128,-1,24
 779 520 779 520 678.5 619.5 c 128,-1,25
168.5 648 m 128,-1,33
 280 762 280 762 442 762 c 128,-1,34
 604 762 604 762 717 648 c 128,-1,35
 830 534 830 534 830 375 c 128,-1,36
 830 216 830 216 716 102.5 c 128,-1,37
 602 -11 602 -11 444 -11 c 128,-1,38
 286 -11 286 -11 171.5 103.5 c 128,-1,39
 57 218 57 218 57 376 c 128,-1,32
 57 534 57 534 168.5 648 c 128,-1,33
EndSplineSet
EndChar

StartChar: guillemotleft
Encoding: 171 171 110
Width: 503
GlyphClass: 2
Flags: W
LayerCount: 2
Fore
SplineSet
211 62 m 1,0,-1
 55 252 l 1,1,-1
 211 442 l 1,2,-1
 255 442 l 1,3,-1
 160 252 l 1,4,-1
 256 62 l 1,5,-1
 211 62 l 1,0,-1
402 62 m 1,6,-1
 246 252 l 1,7,-1
 402 442 l 1,8,-1
 447 442 l 1,9,-1
 351 252 l 1,10,-1
 447 62 l 1,11,-1
 402 62 l 1,6,-1
EndSplineSet
EndChar

StartChar: logicalnot
Encoding: 172 172 111
Width: 562
GlyphClass: 2
Flags: W
LayerCount: 2
Fore
SplineSet
457 0 m 1,0,-1
 457 237 l 1,1,-1
 37 237 l 1,2,-1
 37 304 l 1,3,-1
 524 304 l 1,4,-1
 524 0 l 1,5,-1
 457 0 l 1,0,-1
EndSplineSet
EndChar

StartChar: uni00AD
Encoding: 173 173 112
Width: 364
GlyphClass: 2
Flags: W
LayerCount: 2
Fore
SplineSet
55 296 m 1,0,-1
 308 296 l 1,1,-1
 308 228 l 1,2,-1
 55 228 l 1,3,-1
 55 296 l 1,0,-1
EndSplineSet
EndChar

StartChar: registered
Encoding: 174 174 113
Width: 897
GlyphClass: 2
Flags: W
LayerCount: 2
Fore
SplineSet
242 183 m 1,0,-1
 242 212 l 1,1,-1
 303 228 l 1,2,-1
 303 536 l 1,3,-1
 242 553 l 1,4,-1
 242 584 l 1,5,-1
 507 584 l 2,6,7
 553 584 553 584 582.5 551 c 128,-1,8
 612 518 612 518 612 475.5 c 128,-1,9
 612 433 612 433 582.5 401 c 128,-1,10
 553 369 553 369 507 369 c 2,11,-1
 469 369 l 1,12,-1
 586 231 l 1,13,-1
 668 213 l 1,14,-1
 668 183 l 1,15,-1
 538 183 l 1,16,17
 468 276 468 276 424 331 c 2,18,-1
 394 369 l 1,19,-1
 380 369 l 1,20,-1
 380 231 l 1,21,-1
 445 212 l 1,22,-1
 445 183 l 1,23,-1
 242 183 l 1,0,-1
380 396 m 1,24,-1
 459 396 l 2,25,26
 492 396 492 396 514 420.5 c 128,-1,27
 536 445 536 445 536 476.5 c 128,-1,28
 536 508 536 508 514 531.5 c 128,-1,29
 492 555 492 555 459 555 c 2,30,-1
 380 555 l 1,31,-1
 380 396 l 1,24,-1
678.5 619.5 m 128,-1,33
 578 719 578 719 441.5 719 c 128,-1,34
 305 719 305 719 206.5 617 c 128,-1,35
 108 515 108 515 108 375 c 128,-1,36
 108 235 108 235 206.5 133.5 c 128,-1,37
 305 32 305 32 443 32 c 128,-1,38
 581 32 581 32 680 133.5 c 128,-1,39
 779 235 779 235 779 377.5 c 128,-1,32
 779 520 779 520 678.5 619.5 c 128,-1,33
168.5 648 m 128,-1,41
 280 762 280 762 441.5 762 c 128,-1,42
 603 762 603 762 716 648 c 128,-1,43
 829 534 829 534 829 375 c 128,-1,44
 829 216 829 216 715 102.5 c 128,-1,45
 601 -11 601 -11 443.5 -11 c 128,-1,46
 286 -11 286 -11 171.5 103.5 c 128,-1,47
 57 218 57 218 57 376 c 128,-1,40
 57 534 57 534 168.5 648 c 128,-1,41
EndSplineSet
EndChar

StartChar: macron
Encoding: 175 175 114
Width: 562
GlyphClass: 2
Flags: W
LayerCount: 2
Fore
SplineSet
136 750 m 1,0,-1
 425 750 l 1,1,-1
 425 676 l 1,2,-1
 136 676 l 1,3,-1
 136 750 l 1,0,-1
EndSplineSet
EndChar

StartChar: degree
Encoding: 176 176 115
Width: 450
GlyphClass: 2
Flags: W
LayerCount: 2
Fore
SplineSet
298 676.5 m 128,-1,1
 268 708 268 708 225 708 c 128,-1,2
 182 708 182 708 150.5 676 c 128,-1,3
 119 644 119 644 119 600 c 128,-1,4
 119 556 119 556 150.5 524.5 c 128,-1,5
 182 493 182 493 226.5 493 c 128,-1,6
 271 493 271 493 299.5 523.5 c 128,-1,7
 328 554 328 554 328 599.5 c 128,-1,0
 328 645 328 645 298 676.5 c 128,-1,1
228 772 m 128,-1,9
 297 772 297 772 345.5 722 c 128,-1,10
 394 672 394 672 394 599 c 128,-1,11
 394 526 394 526 344 476.5 c 128,-1,12
 294 427 294 427 224 427 c 128,-1,13
 154 427 154 427 105 477 c 128,-1,14
 56 527 56 527 56 599.5 c 128,-1,15
 56 672 56 672 107.5 722 c 128,-1,8
 159 772 159 772 228 772 c 128,-1,9
EndSplineSet
EndChar

StartChar: plusminus
Encoding: 177 177 116
Width: 618
GlyphClass: 2
Flags: W
LayerCount: 2
Fore
SplineSet
340 745 m 1,0,-1
 340 476 l 1,1,-1
 606 476 l 1,2,-1
 606 414 l 1,3,-1
 340 414 l 1,4,-1
 340 145 l 1,5,-1
 278 145 l 1,6,-1
 278 414 l 1,7,-1
 11 414 l 1,8,-1
 11 476 l 1,9,-1
 278 476 l 1,10,-1
 278 745 l 1,11,-1
 340 745 l 1,0,-1
12 62 m 1,12,-1
 602 62 l 1,13,-1
 602 0 l 1,14,-1
 12 0 l 1,15,-1
 12 62 l 1,12,-1
EndSplineSet
EndChar

StartChar: acute
Encoding: 180 180 117
Width: 388
GlyphClass: 2
Flags: W
LayerCount: 2
Fore
SplineSet
66 604 m 1,0,-1
 34 604 l 1,1,-1
 166 750 l 1,2,-1
 300 750 l 1,3,-1
 66 604 l 1,0,-1
EndSplineSet
EndChar

StartChar: paragraph
Encoding: 182 182 118
Width: 618
GlyphClass: 2
Flags: W
LayerCount: 2
Fore
SplineSet
278 -314 m 1,0,-1
 278 346 l 1,1,-1
 254 346 l 2,2,3
 153 346 153 346 94 402 c 128,-1,4
 35 458 35 458 35 549 c 128,-1,5
 35 640 35 640 97 695 c 128,-1,6
 159 750 159 750 271 750 c 2,7,-1
 559 750 l 1,8,-1
 559 706 l 1,9,-1
 494 706 l 1,10,-1
 494 -314 l 1,11,-1
 448 -314 l 1,12,-1
 448 706 l 1,13,-1
 325 706 l 1,14,-1
 325 -314 l 1,15,-1
 278 -314 l 1,0,-1
EndSplineSet
EndChar

StartChar: periodcentered
Encoding: 183 183 119
Width: 249
GlyphClass: 2
Flags: W
LayerCount: 2
Fore
SplineSet
75 325.5 m 128,-1,1
 93 345 93 345 122.5 345 c 128,-1,2
 152 345 152 345 170.5 326.5 c 128,-1,3
 189 308 189 308 189 279.5 c 128,-1,4
 189 251 189 251 170.5 232.5 c 128,-1,5
 152 214 152 214 123.5 214 c 128,-1,6
 95 214 95 214 76 233 c 128,-1,7
 57 252 57 252 57 279 c 128,-1,0
 57 306 57 306 75 325.5 c 128,-1,1
EndSplineSet
EndChar

StartChar: cedilla
Encoding: 184 184 120
Width: 232
GlyphClass: 2
Flags: W
LayerCount: 2
Fore
SplineSet
123 0 m 1,0,-1
 123 -43 l 1,1,2
 158 -45 158 -45 181.5 -64 c 128,-1,3
 205 -83 205 -83 205 -118 c 0,4,5
 205 -201 205 -201 44 -236 c 1,6,-1
 34 -212 l 1,7,8
 38 -210 38 -210 58 -200.5 c 128,-1,9
 78 -191 78 -191 87.5 -185 c 128,-1,10
 97 -179 97 -179 112 -168 c 0,11,12
 139 -149 139 -149 139 -118 c 0,13,14
 139 -82 139 -82 81 -72 c 1,15,-1
 81 0 l 1,16,-1
 123 0 l 1,0,-1
EndSplineSet
EndChar

StartChar: ordmasculine
Encoding: 186 186 121
Width: 371
GlyphClass: 2
Flags: W
LayerCount: 2
Fore
SplineSet
184 574 m 0,0,1
 99 574 99 574 99 445.5 c 128,-1,2
 99 317 99 317 184 317 c 0,3,4
 272 317 272 317 272 445 c 0,5,6
 272 509 272 509 252.5 541.5 c 128,-1,7
 233 574 233 574 184 574 c 0,0,1
70.5 559 m 128,-1,9
 113 601 113 601 185.5 601 c 128,-1,10
 258 601 258 601 300.5 559 c 128,-1,11
 343 517 343 517 343 445 c 128,-1,12
 343 373 343 373 300 332 c 128,-1,13
 257 291 257 291 185 291 c 128,-1,14
 113 291 113 291 70.5 332 c 128,-1,15
 28 373 28 373 28 445 c 128,-1,8
 28 517 28 517 70.5 559 c 128,-1,9
EndSplineSet
EndChar

StartChar: guillemotright
Encoding: 187 187 122
Width: 503
GlyphClass: 2
Flags: W
LayerCount: 2
Fore
SplineSet
291 442 m 1,0,-1
 447 252 l 1,1,-1
 291 62 l 1,2,-1
 247 62 l 1,3,-1
 343 252 l 1,4,-1
 247 442 l 1,5,-1
 291 442 l 1,0,-1
100 442 m 1,6,-1
 256 252 l 1,7,-1
 100 62 l 1,8,-1
 56 62 l 1,9,-1
 152 252 l 1,10,-1
 55 442 l 1,11,-1
 100 442 l 1,6,-1
EndSplineSet
EndChar

StartChar: questiondown
Encoding: 191 191 123
Width: 555
GlyphClass: 2
Flags: W
LayerCount: 2
Fore
SplineSet
469 209 m 1,0,-1
 469 77 l 1,1,2
 440 35 440 35 384.5 12.5 c 128,-1,3
 329 -10 329 -10 264 -10 c 0,4,5
 170 -10 170 -10 101.5 34.5 c 128,-1,6
 33 79 33 79 33 160 c 0,7,8
 33 208 33 208 61 254 c 128,-1,9
 89 300 89 300 144 335 c 2,10,-1
 175 355 l 2,11,12
 234 393 234 393 253.5 435.5 c 128,-1,13
 273 478 273 478 273 550 c 2,14,-1
 273 570 l 1,15,-1
 318 570 l 1,16,-1
 318 531 l 2,17,18
 318 466 318 466 300 426.5 c 128,-1,19
 282 387 282 387 227 328 c 2,20,-1
 193 292 l 1,21,22
 141 235 141 235 141 156 c 0,23,24
 141 96 141 96 179.5 61 c 128,-1,25
 218 26 218 26 276 26 c 128,-1,26
 334 26 334 26 369 75 c 1,27,-1
 418 209 l 1,28,-1
 469 209 l 1,0,-1
341 651.5 m 128,-1,30
 323 633 323 633 294 633 c 128,-1,31
 265 633 265 633 246.5 650.5 c 128,-1,32
 228 668 228 668 228 697 c 128,-1,33
 228 726 228 726 246 744.5 c 128,-1,34
 264 763 264 763 293 763 c 128,-1,35
 322 763 322 763 340.5 744 c 128,-1,36
 359 725 359 725 359 697.5 c 128,-1,29
 359 670 359 670 341 651.5 c 128,-1,30
EndSplineSet
EndChar

StartChar: Agrave
Encoding: 192 192 124
Width: 915
GlyphClass: 2
Flags: W
LayerCount: 2
Fore
SplineSet
50 0 m 1,0,-1
 50 37 l 1,1,-1
 139 59 l 1,2,-1
 442 758 l 1,3,-1
 493 758 l 1,4,-1
 781 59 l 1,5,-1
 865 37 l 1,6,-1
 865 0 l 1,7,-1
 581 0 l 1,8,-1
 581 37 l 1,9,-1
 668 58 l 1,10,-1
 589 252 l 1,11,-1
 287 252 l 1,12,-1
 212 58 l 1,13,-1
 302 37 l 1,14,-1
 302 0 l 1,15,-1
 50 0 l 1,0,-1
301 290 m 1,16,-1
 575 290 l 1,17,-1
 435 641 l 1,18,-1
 301 290 l 1,16,-1
561 802 m 1,19,-1
 530 802 l 1,20,-1
 295 947 l 1,21,-1
 429 947 l 1,22,-1
 561 802 l 1,19,-1
EndSplineSet
EndChar

StartChar: Aacute
Encoding: 193 193 125
Width: 915
GlyphClass: 2
Flags: W
LayerCount: 2
Fore
SplineSet
50 0 m 1,0,-1
 50 37 l 1,1,-1
 139 59 l 1,2,-1
 442 758 l 1,3,-1
 493 758 l 1,4,-1
 781 59 l 1,5,-1
 865 37 l 1,6,-1
 865 0 l 1,7,-1
 581 0 l 1,8,-1
 581 37 l 1,9,-1
 668 58 l 1,10,-1
 589 252 l 1,11,-1
 287 252 l 1,12,-1
 212 58 l 1,13,-1
 302 37 l 1,14,-1
 302 0 l 1,15,-1
 50 0 l 1,0,-1
301 290 m 1,16,-1
 575 290 l 1,17,-1
 435 641 l 1,18,-1
 301 290 l 1,16,-1
352 801 m 1,19,-1
 320 801 l 1,20,-1
 452 947 l 1,21,-1
 586 947 l 1,22,-1
 352 801 l 1,19,-1
EndSplineSet
EndChar

StartChar: Acircumflex
Encoding: 194 194 126
Width: 915
GlyphClass: 2
Flags: W
LayerCount: 2
Fore
SplineSet
50 0 m 1,0,-1
 50 37 l 1,1,-1
 139 59 l 1,2,-1
 442 758 l 1,3,-1
 493 758 l 1,4,-1
 781 59 l 1,5,-1
 865 37 l 1,6,-1
 865 0 l 1,7,-1
 581 0 l 1,8,-1
 581 37 l 1,9,-1
 668 58 l 1,10,-1
 589 252 l 1,11,-1
 287 252 l 1,12,-1
 212 58 l 1,13,-1
 302 37 l 1,14,-1
 302 0 l 1,15,-1
 50 0 l 1,0,-1
301 290 m 1,16,-1
 575 290 l 1,17,-1
 435 641 l 1,18,-1
 301 290 l 1,16,-1
463 965 m 1,19,-1
 618 801 l 1,20,-1
 578 801 l 1,21,-1
 446 876 l 1,22,-1
 322 801 l 1,23,-1
 283 801 l 1,24,-1
 429 965 l 1,25,-1
 463 965 l 1,19,-1
EndSplineSet
EndChar

StartChar: Atilde
Encoding: 195 195 127
Width: 915
GlyphClass: 2
Flags: W
LayerCount: 2
Fore
SplineSet
50 0 m 1,0,-1
 50 37 l 1,1,-1
 139 59 l 1,2,-1
 442 758 l 1,3,-1
 493 758 l 1,4,-1
 781 59 l 1,5,-1
 865 37 l 1,6,-1
 865 0 l 1,7,-1
 581 0 l 1,8,-1
 581 37 l 1,9,-1
 668 58 l 1,10,-1
 589 252 l 1,11,-1
 287 252 l 1,12,-1
 212 58 l 1,13,-1
 302 37 l 1,14,-1
 302 0 l 1,15,-1
 50 0 l 1,0,-1
301 290 m 1,16,-1
 575 290 l 1,17,-1
 435 641 l 1,18,-1
 301 290 l 1,16,-1
343.5 914.5 m 128,-1,20
 368 933 368 933 402.5 933 c 128,-1,21
 437 933 437 933 482.5 901 c 128,-1,22
 528 869 528 869 550 869 c 0,23,24
 587 869 587 869 625 925 c 1,25,-1
 650 907 l 1,26,27
 586 801 586 801 529 801 c 0,28,29
 504 801 504 801 453.5 833 c 128,-1,30
 403 865 403 865 369.5 865 c 128,-1,31
 336 865 336 865 291 807 c 1,32,-1
 269 825 l 1,33,-1
 284 846 l 2,34,19
 319 896 319 896 343.5 914.5 c 128,-1,20
EndSplineSet
EndChar

StartChar: Adieresis
Encoding: 196 196 128
Width: 885
GlyphClass: 2
Flags: W
LayerCount: 2
Fore
SplineSet
50 0 m 1,0,-1
 50 37 l 1,1,-1
 139 59 l 1,2,-1
 442 758 l 1,3,-1
 493 758 l 1,4,-1
 781 59 l 1,5,-1
 865 37 l 1,6,-1
 865 0 l 1,7,-1
 581 0 l 1,8,-1
 581 37 l 1,9,-1
 668 58 l 1,10,-1
 589 252 l 1,11,-1
 287 252 l 1,12,-1
 212 58 l 1,13,-1
 302 37 l 1,14,-1
 302 0 l 1,15,-1
 50 0 l 1,0,-1
301 290 m 1,16,-1
 575 290 l 1,17,-1
 435 641 l 1,18,-1
 301 290 l 1,16,-1
291.5 929.5 m 128,-1,20
 309 945 309 945 338.5 945 c 128,-1,21
 368 945 368 945 386 929.5 c 128,-1,22
 404 914 404 914 404 887.5 c 128,-1,23
 404 861 404 861 387 845 c 128,-1,24
 370 829 370 829 339.5 829 c 128,-1,25
 309 829 309 829 291.5 844.5 c 128,-1,26
 274 860 274 860 274 887 c 128,-1,19
 274 914 274 914 291.5 929.5 c 128,-1,20
514.5 929.5 m 128,-1,28
 532 945 532 945 561.5 945 c 128,-1,29
 591 945 591 945 609 929.5 c 128,-1,30
 627 914 627 914 627 887.5 c 128,-1,31
 627 861 627 861 610 845 c 128,-1,32
 593 829 593 829 562.5 829 c 128,-1,33
 532 829 532 829 514.5 844.5 c 128,-1,34
 497 860 497 860 497 887 c 128,-1,27
 497 914 497 914 514.5 929.5 c 128,-1,28
EndSplineSet
EndChar

StartChar: Aring
Encoding: 197 197 129
Width: 915
GlyphClass: 2
Flags: W
LayerCount: 2
Fore
SplineSet
50 0 m 1,0,-1
 50 37 l 1,1,-1
 139 59 l 1,2,-1
 442 758 l 1,3,-1
 493 758 l 1,4,-1
 781 59 l 1,5,-1
 865 37 l 1,6,-1
 865 0 l 1,7,-1
 581 0 l 1,8,-1
 581 37 l 1,9,-1
 668 58 l 1,10,-1
 589 252 l 1,11,-1
 287 252 l 1,12,-1
 212 58 l 1,13,-1
 302 37 l 1,14,-1
 302 0 l 1,15,-1
 50 0 l 1,0,-1
301 290 m 1,16,-1
 575 290 l 1,17,-1
 435 641 l 1,18,-1
 301 290 l 1,16,-1
517.5 1006.5 m 128,-1,20
 499 1032 499 1032 467.5 1032 c 128,-1,21
 436 1032 436 1032 418 1006.5 c 128,-1,22
 400 981 400 981 400 946 c 128,-1,23
 400 911 400 911 417.5 886 c 128,-1,24
 435 861 435 861 467 861 c 128,-1,25
 499 861 499 861 517.5 886 c 128,-1,26
 536 911 536 911 536 946 c 128,-1,19
 536 981 536 981 517.5 1006.5 c 128,-1,20
380.5 1027.5 m 128,-1,28
 412 1062 412 1062 468 1062 c 128,-1,29
 524 1062 524 1062 554 1028 c 128,-1,30
 584 994 584 994 584 947.5 c 128,-1,31
 584 901 584 901 552.5 866 c 128,-1,32
 521 831 521 831 466 831 c 128,-1,33
 411 831 411 831 380 865 c 128,-1,34
 349 899 349 899 349 946 c 128,-1,27
 349 993 349 993 380.5 1027.5 c 128,-1,28
EndSplineSet
EndChar

StartChar: AE
Encoding: 198 198 130
Width: 1029
GlyphClass: 2
Flags: W
LayerCount: 2
Fore
SplineSet
50 0 m 1,0,-1
 50 37 l 1,1,-1
 139 59 l 1,2,-1
 442 750 l 1,3,-1
 913 750 l 1,4,-1
 913 571 l 1,5,-1
 861 571 l 1,6,-1
 822 707 l 1,7,-1
 510 707 l 1,8,-1
 632 408 l 1,9,-1
 797 408 l 1,10,-1
 824 495 l 1,11,-1
 861 495 l 1,12,-1
 861 288 l 1,13,-1
 824 288 l 1,14,-1
 797 364 l 1,15,-1
 655 364 l 1,16,-1
 785 43 l 1,17,-1
 887 43 l 1,18,-1
 926 178 l 1,19,-1
 979 178 l 1,20,-1
 979 0 l 1,21,-1
 581 0 l 1,22,-1
 581 37 l 1,23,-1
 668 58 l 1,24,-1
 589 252 l 1,25,-1
 287 252 l 1,26,-1
 212 58 l 1,27,-1
 302 37 l 1,28,-1
 302 0 l 1,29,-1
 50 0 l 1,0,-1
301 290 m 1,30,-1
 575 290 l 1,31,-1
 435 641 l 1,32,-1
 301 290 l 1,30,-1
EndSplineSet
EndChar

StartChar: Ccedilla
Encoding: 199 199 131
Width: 758
GlyphClass: 2
Flags: W
LayerCount: 2
Fore
SplineSet
433 -21 m 1,0,-1
 422 -20 l 1,1,-1
 422 -43 l 1,2,3
 457 -45 457 -45 480.5 -64 c 128,-1,4
 504 -83 504 -83 504 -118 c 0,5,6
 504 -201 504 -201 343 -236 c 1,7,-1
 333 -212 l 1,8,9
 337 -210 337 -210 357 -200.5 c 128,-1,10
 377 -191 377 -191 386.5 -185 c 128,-1,11
 396 -179 396 -179 410 -168 c 1,12,13
 438 -149 438 -149 438 -118 c 0,14,15
 438 -82 438 -82 380 -72 c 1,16,-1
 380 -17 l 1,17,18
 239 -1 239 -1 149.5 103.5 c 128,-1,19
 60 208 60 208 60 378.5 c 128,-1,20
 60 549 60 549 167 654.5 c 128,-1,21
 274 760 274 760 432.5 760 c 128,-1,22
 591 760 591 760 678 677 c 1,23,-1
 678 515 l 1,24,-1
 626 515 l 1,25,-1
 577 674 l 1,26,27
 522 723 522 723 432 723 c 0,28,29
 318 723 318 723 247 632.5 c 128,-1,30
 176 542 176 542 176 375.5 c 128,-1,31
 176 209 176 209 244.5 114 c 128,-1,32
 313 19 313 19 428 19 c 0,33,34
 521 19 521 19 581 75 c 1,35,-1
 631 241 l 1,36,-1
 678 241 l 1,37,-1
 678 72 l 1,38,39
 589 -21 589 -21 433 -21 c 1,0,-1
EndSplineSet
EndChar

StartChar: Egrave
Encoding: 200 200 132
Width: 700
GlyphClass: 2
Flags: W
LayerCount: 2
Fore
SplineSet
90 750 m 1,0,-1
 641 750 l 1,1,-1
 641 571 l 1,2,-1
 589 571 l 1,3,-1
 550 707 l 1,4,-1
 294 707 l 1,5,-1
 294 408 l 1,6,-1
 487 408 l 1,7,-1
 514 495 l 1,8,-1
 551 495 l 1,9,-1
 551 288 l 1,10,-1
 514 288 l 1,11,-1
 487 364 l 1,12,-1
 294 364 l 1,13,-1
 294 43 l 1,14,-1
 568 43 l 1,15,-1
 607 178 l 1,16,-1
 660 178 l 1,17,-1
 660 0 l 1,18,-1
 90 0 l 1,19,-1
 90 37 l 1,20,-1
 189 60 l 1,21,-1
 189 689 l 1,22,-1
 90 713 l 1,23,-1
 90 750 l 1,0,-1
551 802 m 1,24,-1
 520 802 l 1,25,-1
 285 947 l 1,26,-1
 419 947 l 1,27,-1
 551 802 l 1,24,-1
EndSplineSet
EndChar

StartChar: Eacute
Encoding: 201 201 133
Width: 700
GlyphClass: 2
Flags: W
LayerCount: 2
Fore
SplineSet
90 750 m 1,0,-1
 641 750 l 1,1,-1
 641 571 l 1,2,-1
 589 571 l 1,3,-1
 550 707 l 1,4,-1
 294 707 l 1,5,-1
 294 408 l 1,6,-1
 487 408 l 1,7,-1
 514 495 l 1,8,-1
 551 495 l 1,9,-1
 551 288 l 1,10,-1
 514 288 l 1,11,-1
 487 364 l 1,12,-1
 294 364 l 1,13,-1
 294 43 l 1,14,-1
 568 43 l 1,15,-1
 607 178 l 1,16,-1
 660 178 l 1,17,-1
 660 0 l 1,18,-1
 90 0 l 1,19,-1
 90 37 l 1,20,-1
 189 60 l 1,21,-1
 189 689 l 1,22,-1
 90 713 l 1,23,-1
 90 750 l 1,0,-1
283 801 m 1,24,-1
 251 801 l 1,25,-1
 383 947 l 1,26,-1
 517 947 l 1,27,-1
 283 801 l 1,24,-1
EndSplineSet
EndChar

StartChar: Ecircumflex
Encoding: 202 202 134
Width: 700
GlyphClass: 2
Flags: W
LayerCount: 2
Fore
SplineSet
90 750 m 1,0,-1
 641 750 l 1,1,-1
 641 571 l 1,2,-1
 589 571 l 1,3,-1
 550 707 l 1,4,-1
 294 707 l 1,5,-1
 294 408 l 1,6,-1
 487 408 l 1,7,-1
 514 495 l 1,8,-1
 551 495 l 1,9,-1
 551 288 l 1,10,-1
 514 288 l 1,11,-1
 487 364 l 1,12,-1
 294 364 l 1,13,-1
 294 43 l 1,14,-1
 568 43 l 1,15,-1
 607 178 l 1,16,-1
 660 178 l 1,17,-1
 660 0 l 1,18,-1
 90 0 l 1,19,-1
 90 37 l 1,20,-1
 189 60 l 1,21,-1
 189 689 l 1,22,-1
 90 713 l 1,23,-1
 90 750 l 1,0,-1
442 965 m 1,24,-1
 597 801 l 1,25,-1
 557 801 l 1,26,-1
 425 876 l 1,27,-1
 301 801 l 1,28,-1
 262 801 l 1,29,-1
 408 965 l 1,30,-1
 442 965 l 1,24,-1
EndSplineSet
EndChar

StartChar: Edieresis
Encoding: 203 203 135
Width: 700
GlyphClass: 2
Flags: W
LayerCount: 2
Fore
SplineSet
90 750 m 1,0,-1
 641 750 l 1,1,-1
 641 571 l 1,2,-1
 589 571 l 1,3,-1
 550 707 l 1,4,-1
 294 707 l 1,5,-1
 294 408 l 1,6,-1
 487 408 l 1,7,-1
 514 495 l 1,8,-1
 551 495 l 1,9,-1
 551 288 l 1,10,-1
 514 288 l 1,11,-1
 487 364 l 1,12,-1
 294 364 l 1,13,-1
 294 43 l 1,14,-1
 568 43 l 1,15,-1
 607 178 l 1,16,-1
 660 178 l 1,17,-1
 660 0 l 1,18,-1
 90 0 l 1,19,-1
 90 37 l 1,20,-1
 189 60 l 1,21,-1
 189 689 l 1,22,-1
 90 713 l 1,23,-1
 90 750 l 1,0,-1
255.5 936.5 m 128,-1,25
 273 952 273 952 302.5 952 c 128,-1,26
 332 952 332 952 350 936.5 c 128,-1,27
 368 921 368 921 368 894.5 c 128,-1,28
 368 868 368 868 351 852 c 128,-1,29
 334 836 334 836 303.5 836 c 128,-1,30
 273 836 273 836 255.5 851.5 c 128,-1,31
 238 867 238 867 238 894 c 128,-1,24
 238 921 238 921 255.5 936.5 c 128,-1,25
478.5 936.5 m 128,-1,33
 496 952 496 952 525.5 952 c 128,-1,34
 555 952 555 952 573 936.5 c 128,-1,35
 591 921 591 921 591 894.5 c 128,-1,36
 591 868 591 868 574 852 c 128,-1,37
 557 836 557 836 526.5 836 c 128,-1,38
 496 836 496 836 478.5 851.5 c 128,-1,39
 461 867 461 867 461 894 c 128,-1,32
 461 921 461 921 478.5 936.5 c 128,-1,33
EndSplineSet
EndChar

StartChar: Igrave
Encoding: 204 204 136
Width: 370
GlyphClass: 2
Flags: W
LayerCount: 2
Fore
SplineSet
31 750 m 1,0,-1
 335 750 l 1,1,-1
 335 713 l 1,2,-1
 235 690 l 1,3,-1
 235 59 l 1,4,-1
 335 37 l 1,5,-1
 335 0 l 1,6,-1
 31 0 l 1,7,-1
 31 37 l 1,8,-1
 130 60 l 1,9,-1
 130 689 l 1,10,-1
 31 713 l 1,11,-1
 31 750 l 1,0,-1
316 802 m 1,12,-1
 285 802 l 1,13,-1
 50 947 l 1,14,-1
 184 947 l 1,15,-1
 316 802 l 1,12,-1
EndSplineSet
EndChar

StartChar: Iacute
Encoding: 205 205 137
Width: 454
GlyphClass: 2
Flags: W
LayerCount: 2
Fore
SplineSet
60 750 m 1,0,-1
 364 750 l 1,1,-1
 364 713 l 1,2,-1
 264 690 l 1,3,-1
 264 59 l 1,4,-1
 364 37 l 1,5,-1
 364 0 l 1,6,-1
 60 0 l 1,7,-1
 60 37 l 1,8,-1
 159 60 l 1,9,-1
 159 689 l 1,10,-1
 60 713 l 1,11,-1
 60 750 l 1,0,-1
103 801 m 1,12,-1
 71 801 l 1,13,-1
 203 947 l 1,14,-1
 337 947 l 1,15,-1
 103 801 l 1,12,-1
EndSplineSet
EndChar

StartChar: Icircumflex
Encoding: 206 206 138
Width: 383
GlyphClass: 2
Flags: W
LayerCount: 2
Fore
SplineSet
39 750 m 1,0,-1
 343 750 l 1,1,-1
 343 713 l 1,2,-1
 243 690 l 1,3,-1
 243 59 l 1,4,-1
 343 37 l 1,5,-1
 343 0 l 1,6,-1
 39 0 l 1,7,-1
 39 37 l 1,8,-1
 138 60 l 1,9,-1
 138 689 l 1,10,-1
 39 713 l 1,11,-1
 39 750 l 1,0,-1
204 965 m 1,12,-1
 359 801 l 1,13,-1
 319 801 l 1,14,-1
 187 876 l 1,15,-1
 63 801 l 1,16,-1
 24 801 l 1,17,-1
 170 965 l 1,18,-1
 204 965 l 1,12,-1
EndSplineSet
EndChar

StartChar: Idieresis
Encoding: 207 207 139
Width: 400
GlyphClass: 2
Flags: W
LayerCount: 2
Fore
SplineSet
60 750 m 1,0,-1
 364 750 l 1,1,-1
 364 713 l 1,2,-1
 264 690 l 1,3,-1
 264 59 l 1,4,-1
 364 37 l 1,5,-1
 364 0 l 1,6,-1
 60 0 l 1,7,-1
 60 37 l 1,8,-1
 159 60 l 1,9,-1
 159 689 l 1,10,-1
 60 713 l 1,11,-1
 60 750 l 1,0,-1
50.5 923.5 m 128,-1,13
 68 939 68 939 97.5 939 c 128,-1,14
 127 939 127 939 145 923.5 c 128,-1,15
 163 908 163 908 163 881.5 c 128,-1,16
 163 855 163 855 146 839 c 128,-1,17
 129 823 129 823 98.5 823 c 128,-1,18
 68 823 68 823 50.5 838.5 c 128,-1,19
 33 854 33 854 33 881 c 128,-1,12
 33 908 33 908 50.5 923.5 c 128,-1,13
273.5 923.5 m 128,-1,21
 291 939 291 939 320.5 939 c 128,-1,22
 350 939 350 939 368 923.5 c 128,-1,23
 386 908 386 908 386 881.5 c 128,-1,24
 386 855 386 855 369 839 c 128,-1,25
 352 823 352 823 321.5 823 c 128,-1,26
 291 823 291 823 273.5 838.5 c 128,-1,27
 256 854 256 854 256 881 c 128,-1,20
 256 908 256 908 273.5 923.5 c 128,-1,21
EndSplineSet
EndChar

StartChar: Eth
Encoding: 208 208 140
Width: 805
GlyphClass: 2
Flags: W
LayerCount: 2
Fore
SplineSet
20 406 m 1,0,-1
 120 406 l 1,1,-1
 120 689 l 1,2,-1
 21 713 l 1,3,-1
 21 750 l 1,4,-1
 287 750 l 2,5,6
 389 750 389 750 466 731.5 c 128,-1,7
 543 713 543 713 603.5 670.5 c 128,-1,8
 664 628 664 628 695.5 553 c 128,-1,9
 727 478 727 478 727 371 c 128,-1,10
 727 264 727 264 695 190 c 128,-1,11
 663 116 663 116 600 75.5 c 128,-1,12
 537 35 537 35 457.5 17.5 c 128,-1,13
 378 0 378 0 269 0 c 2,14,-1
 21 0 l 1,15,-1
 21 37 l 1,16,-1
 120 60 l 1,17,-1
 120 360 l 1,18,-1
 20 360 l 1,19,-1
 20 406 l 1,0,-1
225 42 m 1,20,-1
 274 42 l 2,21,22
 447 42 447 42 529 116 c 128,-1,23
 611 190 611 190 611 370.5 c 128,-1,24
 611 551 611 551 534 629.5 c 128,-1,25
 457 708 457 708 291 708 c 2,26,-1
 225 708 l 1,27,-1
 225 406 l 1,28,-1
 425 406 l 1,29,-1
 425 360 l 1,30,-1
 225 360 l 1,31,-1
 225 42 l 1,20,-1
EndSplineSet
EndChar

StartChar: Ntilde
Encoding: 209 209 141
Width: 789
GlyphClass: 2
Flags: W
LayerCount: 2
Fore
SplineSet
639 750 m 1,0,-1
 885 750 l 1,1,-1
 885 713 l 1,2,-1
 787 688 l 1,3,-1
 787 0 l 1,4,-1
 717 0 l 1,5,-1
 249 686 l 1,6,-1
 249 59 l 1,7,-1
 347 37 l 1,8,-1
 347 0 l 1,9,-1
 106 0 l 1,10,-1
 106 37 l 1,11,-1
 199 59 l 1,12,-1
 199 687 l 1,13,-1
 106 713 l 1,14,-1
 106 750 l 1,15,-1
 329 750 l 1,16,-1
 737 158 l 1,17,-1
 737 687 l 1,18,-1
 639 713 l 1,19,-1
 639 750 l 1,0,-1
319.5 996.5 m 128,-1,21
 344 1015 344 1015 378.5 1015 c 128,-1,22
 413 1015 413 1015 458.5 983 c 128,-1,23
 504 951 504 951 526 951 c 0,24,25
 563 951 563 951 601 1007 c 1,26,-1
 626 989 l 1,27,28
 562 883 562 883 505 883 c 0,29,30
 480 883 480 883 429 915 c 128,-1,31
 378 947 378 947 345 947 c 128,-1,32
 312 947 312 947 267 889 c 1,33,-1
 245 907 l 1,34,-1
 260 928 l 2,35,20
 295 978 295 978 319.5 996.5 c 128,-1,21
EndSplineSet
EndChar

StartChar: Ograve
Encoding: 210 210 142
Width: 832
GlyphClass: 2
Flags: W
LayerCount: 2
Fore
SplineSet
595.5 639 m 128,-1,1
 533 728 533 728 415.5 728 c 128,-1,2
 298 728 298 728 237 637 c 128,-1,3
 176 546 176 546 176 375 c 128,-1,4
 176 204 176 204 235.5 112.5 c 128,-1,5
 295 21 295 21 412 21 c 128,-1,6
 529 21 529 21 593.5 111 c 128,-1,7
 658 201 658 201 658 375.5 c 128,-1,0
 658 550 658 550 595.5 639 c 128,-1,1
160 661.5 m 128,-1,9
 260 768 260 768 417.5 768 c 128,-1,10
 575 768 575 768 673.5 659 c 128,-1,11
 772 550 772 550 772 373 c 128,-1,12
 772 196 772 196 674 88.5 c 128,-1,13
 576 -19 576 -19 415 -19 c 128,-1,14
 254 -19 254 -19 157 87.5 c 128,-1,15
 60 194 60 194 60 374.5 c 128,-1,8
 60 555 60 555 160 661.5 c 128,-1,9
539 802 m 1,16,-1
 508 802 l 1,17,-1
 273 947 l 1,18,-1
 407 947 l 1,19,-1
 539 802 l 1,16,-1
EndSplineSet
EndChar

StartChar: Oacute
Encoding: 211 211 143
Width: 832
GlyphClass: 2
Flags: W
LayerCount: 2
Fore
SplineSet
595.5 639 m 128,-1,1
 533 728 533 728 415.5 728 c 128,-1,2
 298 728 298 728 237 637 c 128,-1,3
 176 546 176 546 176 375 c 128,-1,4
 176 204 176 204 235.5 112.5 c 128,-1,5
 295 21 295 21 412 21 c 128,-1,6
 529 21 529 21 593.5 111 c 128,-1,7
 658 201 658 201 658 375.5 c 128,-1,0
 658 550 658 550 595.5 639 c 128,-1,1
160 661.5 m 128,-1,9
 260 768 260 768 417.5 768 c 128,-1,10
 575 768 575 768 673.5 659 c 128,-1,11
 772 550 772 550 772 373 c 128,-1,12
 772 196 772 196 674 88.5 c 128,-1,13
 576 -19 576 -19 415 -19 c 128,-1,14
 254 -19 254 -19 157 87.5 c 128,-1,15
 60 194 60 194 60 374.5 c 128,-1,8
 60 555 60 555 160 661.5 c 128,-1,9
317 801 m 1,16,-1
 285 801 l 1,17,-1
 417 947 l 1,18,-1
 551 947 l 1,19,-1
 317 801 l 1,16,-1
EndSplineSet
EndChar

StartChar: Ocircumflex
Encoding: 212 212 144
Width: 832
GlyphClass: 2
Flags: W
LayerCount: 2
Fore
SplineSet
595.5 639 m 128,-1,1
 533 728 533 728 415.5 728 c 128,-1,2
 298 728 298 728 237 637 c 128,-1,3
 176 546 176 546 176 375 c 128,-1,4
 176 204 176 204 235.5 112.5 c 128,-1,5
 295 21 295 21 412 21 c 128,-1,6
 529 21 529 21 593.5 111 c 128,-1,7
 658 201 658 201 658 375.5 c 128,-1,0
 658 550 658 550 595.5 639 c 128,-1,1
160 661.5 m 128,-1,9
 260 768 260 768 417.5 768 c 128,-1,10
 575 768 575 768 673.5 659 c 128,-1,11
 772 550 772 550 772 373 c 128,-1,12
 772 196 772 196 674 88.5 c 128,-1,13
 576 -19 576 -19 415 -19 c 128,-1,14
 254 -19 254 -19 157 87.5 c 128,-1,15
 60 194 60 194 60 374.5 c 128,-1,8
 60 555 60 555 160 661.5 c 128,-1,9
426 965 m 1,16,-1
 581 801 l 1,17,-1
 541 801 l 1,18,-1
 409 876 l 1,19,-1
 285 801 l 1,20,-1
 246 801 l 1,21,-1
 392 965 l 1,22,-1
 426 965 l 1,16,-1
EndSplineSet
EndChar

StartChar: Otilde
Encoding: 213 213 145
Width: 832
GlyphClass: 2
Flags: W
LayerCount: 2
Fore
SplineSet
595.5 639 m 128,-1,1
 533 728 533 728 415.5 728 c 128,-1,2
 298 728 298 728 237 637 c 128,-1,3
 176 546 176 546 176 375 c 128,-1,4
 176 204 176 204 235.5 112.5 c 128,-1,5
 295 21 295 21 412 21 c 128,-1,6
 529 21 529 21 593.5 111 c 128,-1,7
 658 201 658 201 658 375.5 c 128,-1,0
 658 550 658 550 595.5 639 c 128,-1,1
160 661.5 m 128,-1,9
 260 768 260 768 417.5 768 c 128,-1,10
 575 768 575 768 673.5 659 c 128,-1,11
 772 550 772 550 772 373 c 128,-1,12
 772 196 772 196 674 88.5 c 128,-1,13
 576 -19 576 -19 415 -19 c 128,-1,14
 254 -19 254 -19 157 87.5 c 128,-1,15
 60 194 60 194 60 374.5 c 128,-1,8
 60 555 60 555 160 661.5 c 128,-1,9
288.5 914.5 m 128,-1,17
 313 933 313 933 347.5 933 c 128,-1,18
 382 933 382 933 427.5 901 c 128,-1,19
 473 869 473 869 495 869 c 0,20,21
 532 869 532 869 570 925 c 1,22,-1
 595 907 l 1,23,24
 531 801 531 801 474 801 c 0,25,26
 448 801 448 801 398 833 c 128,-1,27
 348 865 348 865 314.5 865 c 128,-1,28
 281 865 281 865 236 807 c 1,29,-1
 214 825 l 1,30,-1
 229 846 l 2,31,16
 264 896 264 896 288.5 914.5 c 128,-1,17
EndSplineSet
EndChar

StartChar: Odieresis
Encoding: 214 214 146
Width: 832
GlyphClass: 2
Flags: W
LayerCount: 2
Fore
SplineSet
595.5 639 m 128,-1,1
 533 728 533 728 415.5 728 c 128,-1,2
 298 728 298 728 237 637 c 128,-1,3
 176 546 176 546 176 375 c 128,-1,4
 176 204 176 204 235.5 112.5 c 128,-1,5
 295 21 295 21 412 21 c 128,-1,6
 529 21 529 21 593.5 111 c 128,-1,7
 658 201 658 201 658 375.5 c 128,-1,0
 658 550 658 550 595.5 639 c 128,-1,1
160 661.5 m 128,-1,9
 260 768 260 768 417.5 768 c 128,-1,10
 575 768 575 768 673.5 659 c 128,-1,11
 772 550 772 550 772 373 c 128,-1,12
 772 196 772 196 674 88.5 c 128,-1,13
 576 -19 576 -19 415 -19 c 128,-1,14
 254 -19 254 -19 157 87.5 c 128,-1,15
 60 194 60 194 60 374.5 c 128,-1,8
 60 555 60 555 160 661.5 c 128,-1,9
242.5 913.5 m 128,-1,17
 260 929 260 929 289.5 929 c 128,-1,18
 319 929 319 929 337 913.5 c 128,-1,19
 355 898 355 898 355 871.5 c 128,-1,20
 355 845 355 845 338 829 c 128,-1,21
 321 813 321 813 290.5 813 c 128,-1,22
 260 813 260 813 242.5 828.5 c 128,-1,23
 225 844 225 844 225 871 c 128,-1,16
 225 898 225 898 242.5 913.5 c 128,-1,17
465.5 913.5 m 128,-1,25
 483 929 483 929 512.5 929 c 128,-1,26
 542 929 542 929 560 913.5 c 128,-1,27
 578 898 578 898 578 871.5 c 128,-1,28
 578 845 578 845 561 829 c 128,-1,29
 544 813 544 813 513.5 813 c 128,-1,30
 483 813 483 813 465.5 828.5 c 128,-1,31
 448 844 448 844 448 871 c 128,-1,24
 448 898 448 898 465.5 913.5 c 128,-1,25
EndSplineSet
EndChar

StartChar: multiply
Encoding: 215 215 147
Width: 611
GlyphClass: 2
Flags: W
LayerCount: 2
Fore
SplineSet
128 601 m 1,0,-1
 305 423 l 1,1,-1
 479 597 l 1,2,-1
 526 549 l 1,3,-1
 353 376 l 1,4,-1
 530 199 l 1,5,-1
 483 152 l 1,6,-1
 306 328 l 1,7,-1
 133 155 l 1,8,-1
 84 202 l 1,9,-1
 258 376 l 1,10,-1
 81 553 l 1,11,-1
 128 601 l 1,0,-1
EndSplineSet
EndChar

StartChar: Oslash
Encoding: 216 216 148
Width: 829
GlyphClass: 2
Flags: W
LayerCount: 2
Fore
SplineSet
770 373 m 0,0,1
 770 196 770 196 672 88.5 c 128,-1,2
 574 -19 574 -19 413 -19 c 0,3,4
 353 -19 353 -19 302 -3 c 1,5,-1
 247 -141 l 1,6,-1
 193 -141 l 1,7,-1
 255 14 l 1,8,9
 161 59 161 59 109.5 151.5 c 128,-1,10
 58 244 58 244 58 373 c 0,11,12
 58 555 58 555 158 661.5 c 128,-1,13
 258 768 258 768 414 768 c 0,14,15
 486 768 486 768 546 744 c 1,16,-1
 593 861 l 1,17,-1
 646 861 l 1,18,-1
 591 723 l 1,19,20
 676 675 676 675 723 585 c 128,-1,21
 770 495 770 495 770 373 c 0,0,1
415 728 m 0,22,23
 296 728 296 728 235 637 c 128,-1,24
 174 546 174 546 174 373 c 0,25,26
 174 149 174 149 275 66 c 1,27,-1
 528 699 l 1,28,29
 478 728 478 728 415 728 c 0,22,23
656 377 m 0,30,31
 656 579 656 579 569 668 c 1,32,-1
 319 39 l 1,33,34
 360 21 360 21 411 21 c 0,35,36
 527 21 527 21 591.5 111 c 128,-1,37
 656 201 656 201 656 377 c 0,30,31
EndSplineSet
EndChar

StartChar: Ugrave
Encoding: 217 217 149
Width: 890
GlyphClass: 2
Flags: W
LayerCount: 2
Fore
SplineSet
581 750 m 1,0,-1
 830 750 l 1,1,-1
 830 714 l 1,2,-1
 736 689 l 1,3,-1
 736 288 l 2,4,5
 736 -15 736 -15 446 -15 c 0,6,7
 298 -15 298 -15 229 64.5 c 128,-1,8
 160 144 160 144 160 301 c 2,9,-1
 160 689 l 1,10,-1
 60 713 l 1,11,-1
 60 750 l 1,12,-1
 364 750 l 1,13,-1
 364 713 l 1,14,-1
 265 690 l 1,15,-1
 265 282 l 2,16,17
 265 152 265 152 316 91.5 c 128,-1,18
 367 31 367 31 468 31 c 0,19,20
 681 31 681 31 681 293 c 2,21,-1
 681 689 l 1,22,-1
 581 714 l 1,23,-1
 581 750 l 1,0,-1
598 802 m 1,24,-1
 567 802 l 1,25,-1
 332 947 l 1,26,-1
 466 947 l 1,27,-1
 598 802 l 1,24,-1
EndSplineSet
EndChar

StartChar: Uacute
Encoding: 218 218 150
Width: 890
GlyphClass: 2
Flags: W
LayerCount: 2
Fore
SplineSet
581 750 m 1,0,-1
 830 750 l 1,1,-1
 830 714 l 1,2,-1
 736 689 l 1,3,-1
 736 288 l 2,4,5
 736 -15 736 -15 446 -15 c 0,6,7
 298 -15 298 -15 229 64.5 c 128,-1,8
 160 144 160 144 160 301 c 2,9,-1
 160 689 l 1,10,-1
 60 713 l 1,11,-1
 60 750 l 1,12,-1
 364 750 l 1,13,-1
 364 713 l 1,14,-1
 265 690 l 1,15,-1
 265 282 l 2,16,17
 265 152 265 152 316 91.5 c 128,-1,18
 367 31 367 31 468 31 c 0,19,20
 681 31 681 31 681 293 c 2,21,-1
 681 689 l 1,22,-1
 581 714 l 1,23,-1
 581 750 l 1,0,-1
348 801 m 1,24,-1
 316 801 l 1,25,-1
 448 947 l 1,26,-1
 582 947 l 1,27,-1
 348 801 l 1,24,-1
EndSplineSet
EndChar

StartChar: Ucircumflex
Encoding: 219 219 151
Width: 890
GlyphClass: 2
Flags: W
LayerCount: 2
Fore
SplineSet
581 750 m 1,0,-1
 830 750 l 1,1,-1
 830 714 l 1,2,-1
 736 689 l 1,3,-1
 736 288 l 2,4,5
 736 -15 736 -15 446 -15 c 0,6,7
 298 -15 298 -15 229 64.5 c 128,-1,8
 160 144 160 144 160 301 c 2,9,-1
 160 689 l 1,10,-1
 60 713 l 1,11,-1
 60 750 l 1,12,-1
 364 750 l 1,13,-1
 364 713 l 1,14,-1
 265 690 l 1,15,-1
 265 282 l 2,16,17
 265 152 265 152 316 91.5 c 128,-1,18
 367 31 367 31 468 31 c 0,19,20
 681 31 681 31 681 293 c 2,21,-1
 681 689 l 1,22,-1
 581 714 l 1,23,-1
 581 750 l 1,0,-1
489 965 m 1,24,-1
 644 801 l 1,25,-1
 604 801 l 1,26,-1
 472 876 l 1,27,-1
 348 801 l 1,28,-1
 309 801 l 1,29,-1
 455 965 l 1,30,-1
 489 965 l 1,24,-1
EndSplineSet
EndChar

StartChar: Udieresis
Encoding: 220 220 152
Width: 890
GlyphClass: 2
Flags: W
LayerCount: 2
Fore
SplineSet
581 750 m 1,0,-1
 830 750 l 1,1,-1
 830 714 l 1,2,-1
 736 689 l 1,3,-1
 736 288 l 2,4,5
 736 -15 736 -15 446 -15 c 0,6,7
 298 -15 298 -15 229 64.5 c 128,-1,8
 160 144 160 144 160 301 c 2,9,-1
 160 689 l 1,10,-1
 60 713 l 1,11,-1
 60 750 l 1,12,-1
 364 750 l 1,13,-1
 364 713 l 1,14,-1
 265 690 l 1,15,-1
 265 282 l 2,16,17
 265 152 265 152 316 91.5 c 128,-1,18
 367 31 367 31 468 31 c 0,19,20
 681 31 681 31 681 293 c 2,21,-1
 681 689 l 1,22,-1
 581 714 l 1,23,-1
 581 750 l 1,0,-1
299.5 919.5 m 128,-1,25
 317 935 317 935 346.5 935 c 128,-1,26
 376 935 376 935 394 919.5 c 128,-1,27
 412 904 412 904 412 877.5 c 128,-1,28
 412 851 412 851 395 835 c 128,-1,29
 378 819 378 819 347.5 819 c 128,-1,30
 317 819 317 819 299.5 834.5 c 128,-1,31
 282 850 282 850 282 877 c 128,-1,24
 282 904 282 904 299.5 919.5 c 128,-1,25
522.5 919.5 m 128,-1,33
 540 935 540 935 569.5 935 c 128,-1,34
 599 935 599 935 617 919.5 c 128,-1,35
 635 904 635 904 635 877.5 c 128,-1,36
 635 851 635 851 618 835 c 128,-1,37
 601 819 601 819 570.5 819 c 128,-1,38
 540 819 540 819 522.5 834.5 c 128,-1,39
 505 850 505 850 505 877 c 128,-1,32
 505 904 505 904 522.5 919.5 c 128,-1,33
EndSplineSet
EndChar

StartChar: Yacute
Encoding: 221 221 153
Width: 799
GlyphClass: 2
Flags: W
LayerCount: 2
Fore
SplineSet
30 750 m 1,0,-1
 334 750 l 1,1,-1
 334 713 l 1,2,-1
 246 692 l 1,3,-1
 436 366 l 1,4,-1
 611 689 l 1,5,-1
 524 714 l 1,6,-1
 524 750 l 1,7,-1
 769 750 l 1,8,-1
 769 714 l 1,9,-1
 680 687 l 1,10,-1
 458 321 l 1,11,-1
 458 60 l 1,12,-1
 561 37 l 1,13,-1
 561 0 l 1,14,-1
 257 0 l 1,15,-1
 257 37 l 1,16,-1
 353 59 l 1,17,-1
 353 307 l 1,18,-1
 126 688 l 1,19,-1
 30 713 l 1,20,-1
 30 750 l 1,0,-1
326 801 m 1,21,-1
 294 801 l 1,22,-1
 426 947 l 1,23,-1
 560 947 l 1,24,-1
 326 801 l 1,21,-1
EndSplineSet
EndChar

StartChar: Thorn
Encoding: 222 222 154
Width: 629
GlyphClass: 2
Flags: W
LayerCount: 2
Fore
SplineSet
312 648 m 1,0,-1
 405 648 l 2,1,2
 704 648 704 648 704 410 c 0,3,4
 704 295 704 295 623 227.5 c 128,-1,5
 542 160 542 160 401 160 c 2,6,-1
 312 160 l 1,7,-1
 312 61 l 1,8,-1
 415 36 l 1,9,-1
 415 0 l 1,10,-1
 108 0 l 1,11,-1
 108 36 l 1,12,-1
 206 61 l 1,13,-1
 206 688 l 1,14,-1
 108 714 l 1,15,-1
 108 750 l 1,16,-1
 400 750 l 1,17,-1
 400 724 l 1,18,-1
 312 688 l 1,19,-1
 312 648 l 1,0,-1
312 204 m 1,20,-1
 370 204 l 2,21,22
 472 204 472 204 529.5 255.5 c 128,-1,23
 587 307 587 307 587 403 c 128,-1,24
 587 499 587 499 539 551.5 c 128,-1,25
 491 604 491 604 400 604 c 2,26,-1
 312 604 l 1,27,-1
 312 204 l 1,20,-1
EndSplineSet
EndChar

StartChar: germandbls
Encoding: 223 223 155
Width: 650
GlyphClass: 2
Flags: W
LayerCount: 2
Fore
SplineSet
223 0 m 1,0,-1
 53 0 l 1,1,-1
 53 37 l 1,2,-1
 130 59 l 1,3,-1
 130 523 l 2,4,5
 130 644 130 644 190 703 c 128,-1,6
 250 762 250 762 346 762 c 128,-1,7
 442 762 442 762 496.5 720.5 c 128,-1,8
 551 679 551 679 551 621 c 0,9,10
 551 551 551 551 473 499 c 2,11,-1
 443 479 l 1,12,13
 388 439 388 439 388 403.5 c 128,-1,14
 388 368 388 368 452 333 c 2,15,-1
 534 289 l 1,16,17
 636 242 636 242 636 148 c 0,18,19
 636 80 636 80 581.5 35.5 c 128,-1,20
 527 -9 527 -9 451 -9 c 0,21,22
 353 -9 353 -9 300 44 c 1,23,-1
 300 178 l 1,24,-1
 341 178 l 1,25,-1
 382 51 l 1,26,27
 413 26 413 26 454.5 26 c 128,-1,28
 496 26 496 26 526.5 48 c 128,-1,29
 557 70 557 70 557 102.5 c 128,-1,30
 557 135 557 135 534 167.5 c 128,-1,31
 511 200 511 200 470 223 c 1,32,-1
 400 260 l 2,33,34
 357 282 357 282 331.5 313 c 128,-1,35
 306 344 306 344 306 376 c 0,36,37
 306 431 306 431 381 477 c 1,38,-1
 408 494 l 1,39,40
 475 534 475 534 475 607 c 0,41,42
 475 656 475 656 442 691 c 128,-1,43
 409 726 409 726 345 726 c 128,-1,44
 281 726 281 726 252 684 c 128,-1,45
 223 642 223 642 223 553 c 2,46,-1
 223 0 l 1,0,-1
EndSplineSet
EndChar

StartChar: agrave
Encoding: 224 224 156
Width: 582
GlyphClass: 2
Flags: W
LayerCount: 2
Fore
SplineSet
542 0 m 1,0,-1
 366 0 l 1,1,-1
 366 101 l 1,2,3
 319 -9 319 -9 201 -9 c 0,4,5
 122 -9 122 -9 81 25.5 c 128,-1,6
 40 60 40 60 40 122 c 0,7,8
 40 210 40 210 117.5 248.5 c 128,-1,9
 195 287 195 287 364 290 c 1,10,-1
 364 333 l 2,11,12
 364 404 364 404 335 429.5 c 128,-1,13
 306 455 306 455 249 455 c 128,-1,14
 192 455 192 455 150 429 c 1,15,-1
 117 330 l 1,16,-1
 80 330 l 1,17,-1
 80 443 l 1,18,19
 105 464 105 464 149 478.5 c 128,-1,20
 193 493 193 493 245 493 c 0,21,22
 351 493 351 493 404.5 452.5 c 128,-1,23
 458 412 458 412 458 309 c 2,24,-1
 458 60 l 1,25,-1
 542 37 l 1,26,-1
 542 0 l 1,0,-1
227 33 m 0,27,28
 291 33 291 33 327.5 82.5 c 128,-1,29
 364 132 364 132 364 255 c 1,30,31
 192 255 192 255 154 202 c 0,32,33
 136 177 136 177 136 128 c 128,-1,34
 136 79 136 79 157.5 56 c 128,-1,35
 179 33 179 33 227 33 c 0,27,28
389 605 m 1,36,-1
 358 605 l 1,37,-1
 123 750 l 1,38,-1
 257 750 l 1,39,-1
 389 605 l 1,36,-1
EndSplineSet
EndChar

StartChar: aacute
Encoding: 225 225 157
Width: 582
GlyphClass: 2
Flags: W
LayerCount: 2
Fore
SplineSet
542 0 m 1,0,-1
 366 0 l 1,1,-1
 366 101 l 1,2,3
 319 -9 319 -9 201 -9 c 0,4,5
 122 -9 122 -9 81 25.5 c 128,-1,6
 40 60 40 60 40 122 c 0,7,8
 40 210 40 210 117.5 248.5 c 128,-1,9
 195 287 195 287 364 290 c 1,10,-1
 364 333 l 2,11,12
 364 404 364 404 335 429.5 c 128,-1,13
 306 455 306 455 249 455 c 128,-1,14
 192 455 192 455 150 429 c 1,15,-1
 117 330 l 1,16,-1
 80 330 l 1,17,-1
 80 443 l 1,18,19
 105 464 105 464 149 478.5 c 128,-1,20
 193 493 193 493 245 493 c 0,21,22
 351 493 351 493 404.5 452.5 c 128,-1,23
 458 412 458 412 458 309 c 2,24,-1
 458 60 l 1,25,-1
 542 37 l 1,26,-1
 542 0 l 1,0,-1
227 33 m 0,27,28
 291 33 291 33 327.5 82.5 c 128,-1,29
 364 132 364 132 364 255 c 1,30,31
 192 255 192 255 154 202 c 0,32,33
 136 177 136 177 136 128 c 128,-1,34
 136 79 136 79 157.5 56 c 128,-1,35
 179 33 179 33 227 33 c 0,27,28
149 604 m 1,36,-1
 117 604 l 1,37,-1
 249 750 l 1,38,-1
 383 750 l 1,39,-1
 149 604 l 1,36,-1
EndSplineSet
EndChar

StartChar: acircumflex
Encoding: 226 226 158
Width: 582
GlyphClass: 2
Flags: W
LayerCount: 2
Fore
SplineSet
542 0 m 1,0,-1
 366 0 l 1,1,-1
 366 101 l 1,2,3
 319 -9 319 -9 201 -9 c 0,4,5
 122 -9 122 -9 81 25.5 c 128,-1,6
 40 60 40 60 40 122 c 0,7,8
 40 210 40 210 117.5 248.5 c 128,-1,9
 195 287 195 287 364 290 c 1,10,-1
 364 333 l 2,11,12
 364 404 364 404 335 429.5 c 128,-1,13
 306 455 306 455 249 455 c 128,-1,14
 192 455 192 455 150 429 c 1,15,-1
 117 330 l 1,16,-1
 80 330 l 1,17,-1
 80 443 l 1,18,19
 105 464 105 464 149 478.5 c 128,-1,20
 193 493 193 493 245 493 c 0,21,22
 351 493 351 493 404.5 452.5 c 128,-1,23
 458 412 458 412 458 309 c 2,24,-1
 458 60 l 1,25,-1
 542 37 l 1,26,-1
 542 0 l 1,0,-1
227 33 m 0,27,28
 291 33 291 33 327.5 82.5 c 128,-1,29
 364 132 364 132 364 255 c 1,30,31
 192 255 192 255 154 202 c 0,32,33
 136 177 136 177 136 128 c 128,-1,34
 136 79 136 79 157.5 56 c 128,-1,35
 179 33 179 33 227 33 c 0,27,28
263 750 m 1,36,-1
 418 586 l 1,37,-1
 378 586 l 1,38,-1
 246 661 l 1,39,-1
 122 586 l 1,40,-1
 83 586 l 1,41,-1
 229 750 l 1,42,-1
 263 750 l 1,36,-1
EndSplineSet
EndChar

StartChar: atilde
Encoding: 227 227 159
Width: 582
GlyphClass: 2
Flags: W
LayerCount: 2
Fore
SplineSet
542 0 m 1,0,-1
 366 0 l 1,1,-1
 366 101 l 1,2,3
 319 -9 319 -9 201 -9 c 0,4,5
 122 -9 122 -9 81 25.5 c 128,-1,6
 40 60 40 60 40 122 c 0,7,8
 40 210 40 210 117.5 248.5 c 128,-1,9
 195 287 195 287 364 290 c 1,10,-1
 364 333 l 2,11,12
 364 404 364 404 335 429.5 c 128,-1,13
 306 455 306 455 249 455 c 128,-1,14
 192 455 192 455 150 429 c 1,15,-1
 117 330 l 1,16,-1
 80 330 l 1,17,-1
 80 443 l 1,18,19
 105 464 105 464 149 478.5 c 128,-1,20
 193 493 193 493 245 493 c 0,21,22
 351 493 351 493 404.5 452.5 c 128,-1,23
 458 412 458 412 458 309 c 2,24,-1
 458 60 l 1,25,-1
 542 37 l 1,26,-1
 542 0 l 1,0,-1
227 33 m 0,27,28
 291 33 291 33 327.5 82.5 c 128,-1,29
 364 132 364 132 364 255 c 1,30,31
 192 255 192 255 154 202 c 0,32,33
 136 177 136 177 136 128 c 128,-1,34
 136 79 136 79 157.5 56 c 128,-1,35
 179 33 179 33 227 33 c 0,27,28
142.5 731.5 m 128,-1,37
 167 750 167 750 201.5 750 c 128,-1,38
 236 750 236 750 281.5 718 c 128,-1,39
 327 686 327 686 349 686 c 0,40,41
 386 686 386 686 424 742 c 1,42,-1
 449 724 l 1,43,44
 385 618 385 618 328 618 c 0,45,46
 302 618 302 618 252 650 c 128,-1,47
 202 682 202 682 168.5 682 c 128,-1,48
 135 682 135 682 90 624 c 1,49,-1
 68 642 l 1,50,-1
 83 663 l 2,51,36
 118 713 118 713 142.5 731.5 c 128,-1,37
EndSplineSet
EndChar

StartChar: adieresis
Encoding: 228 228 160
Width: 582
GlyphClass: 2
Flags: W
LayerCount: 2
Fore
SplineSet
542 0 m 1,0,-1
 366 0 l 1,1,-1
 366 101 l 1,2,3
 319 -9 319 -9 201 -9 c 0,4,5
 122 -9 122 -9 81 25.5 c 128,-1,6
 40 60 40 60 40 122 c 0,7,8
 40 210 40 210 117.5 248.5 c 128,-1,9
 195 287 195 287 364 290 c 1,10,-1
 364 333 l 2,11,12
 364 404 364 404 335 429.5 c 128,-1,13
 306 455 306 455 249 455 c 128,-1,14
 192 455 192 455 150 429 c 1,15,-1
 117 330 l 1,16,-1
 80 330 l 1,17,-1
 80 443 l 1,18,19
 105 464 105 464 149 478.5 c 128,-1,20
 193 493 193 493 245 493 c 0,21,22
 351 493 351 493 404.5 452.5 c 128,-1,23
 458 412 458 412 458 309 c 2,24,-1
 458 60 l 1,25,-1
 542 37 l 1,26,-1
 542 0 l 1,0,-1
227 33 m 0,27,28
 291 33 291 33 327.5 82.5 c 128,-1,29
 364 132 364 132 364 255 c 1,30,31
 192 255 192 255 154 202 c 0,32,33
 136 177 136 177 136 128 c 128,-1,34
 136 79 136 79 157.5 56 c 128,-1,35
 179 33 179 33 227 33 c 0,27,28
87.5 740.5 m 128,-1,37
 105 756 105 756 134.5 756 c 128,-1,38
 164 756 164 756 182 740.5 c 128,-1,39
 200 725 200 725 200 698.5 c 128,-1,40
 200 672 200 672 183 656 c 128,-1,41
 166 640 166 640 135.5 640 c 128,-1,42
 105 640 105 640 87.5 655.5 c 128,-1,43
 70 671 70 671 70 698 c 128,-1,36
 70 725 70 725 87.5 740.5 c 128,-1,37
310.5 740.5 m 128,-1,45
 328 756 328 756 357.5 756 c 128,-1,46
 387 756 387 756 405 740.5 c 128,-1,47
 423 725 423 725 423 698.5 c 128,-1,48
 423 672 423 672 406 656 c 128,-1,49
 389 640 389 640 358.5 640 c 128,-1,50
 328 640 328 640 310.5 655.5 c 128,-1,51
 293 671 293 671 293 698 c 128,-1,44
 293 725 293 725 310.5 740.5 c 128,-1,45
EndSplineSet
EndChar

StartChar: aring
Encoding: 229 229 161
Width: 532
GlyphClass: 2
Flags: W
LayerCount: 2
Fore
SplineSet
519 0 m 1,0,-1
 343 0 l 1,1,-1
 343 101 l 1,2,3
 296 -9 296 -9 178 -9 c 0,4,5
 99 -9 99 -9 58 25.5 c 128,-1,6
 17 60 17 60 17 122 c 0,7,8
 17 210 17 210 94.5 248.5 c 128,-1,9
 172 287 172 287 341 290 c 1,10,-1
 341 333 l 2,11,12
 341 404 341 404 312 429.5 c 128,-1,13
 283 455 283 455 226 455 c 128,-1,14
 169 455 169 455 127 429 c 1,15,-1
 94 330 l 1,16,-1
 57 330 l 1,17,-1
 57 443 l 1,18,19
 82 464 82 464 126 478.5 c 128,-1,20
 170 493 170 493 222 493 c 0,21,22
 328 493 328 493 381.5 452.5 c 128,-1,23
 435 412 435 412 435 309 c 2,24,-1
 435 60 l 1,25,-1
 519 37 l 1,26,-1
 519 0 l 1,0,-1
204 33 m 0,27,28
 268 33 268 33 304.5 82.5 c 128,-1,29
 341 132 341 132 341 255 c 1,30,31
 169 255 169 255 131 202 c 0,32,33
 113 177 113 177 113 128 c 128,-1,34
 113 79 113 79 134.5 56 c 128,-1,35
 156 33 156 33 204 33 c 0,27,28
273.5 739.5 m 128,-1,37
 255 765 255 765 223.5 765 c 128,-1,38
 192 765 192 765 174 739.5 c 128,-1,39
 156 714 156 714 156 679 c 128,-1,40
 156 644 156 644 173.5 619 c 128,-1,41
 191 594 191 594 223 594 c 128,-1,42
 255 594 255 594 273.5 619 c 128,-1,43
 292 644 292 644 292 679 c 128,-1,36
 292 714 292 714 273.5 739.5 c 128,-1,37
136.5 760.5 m 128,-1,45
 168 795 168 795 224 795 c 128,-1,46
 280 795 280 795 310 761 c 128,-1,47
 340 727 340 727 340 680.5 c 128,-1,48
 340 634 340 634 308.5 599 c 128,-1,49
 277 564 277 564 222 564 c 128,-1,50
 167 564 167 564 136 598 c 128,-1,51
 105 632 105 632 105 679 c 128,-1,44
 105 726 105 726 136.5 760.5 c 128,-1,45
EndSplineSet
EndChar

StartChar: ae
Encoding: 230 230 162
Width: 874
GlyphClass: 2
Flags: W
LayerCount: 2
Fore
SplineSet
607 29 m 0,0,1
 638 29 638 29 666.5 37.5 c 128,-1,2
 695 46 695 46 708 54 c 128,-1,3
 721 62 721 62 721 64 c 2,4,-1
 758 170 l 1,5,-1
 795 170 l 1,6,-1
 795 56 l 1,7,8
 738 -9 738 -9 603 -9 c 128,-1,9
 468 -9 468 -9 413 81 c 1,10,11
 372 -9 372 -9 218 -9 c 0,12,13
 136 -9 136 -9 89.5 25 c 128,-1,14
 43 59 43 59 43 119 c 0,15,16
 43 206 43 206 119 237.5 c 128,-1,17
 195 269 195 269 371 273 c 1,18,-1
 371 333 l 2,19,20
 371 404 371 404 342 429.5 c 128,-1,21
 313 455 313 455 258 455 c 128,-1,22
 203 455 203 455 157 426 c 1,23,-1
 124 327 l 1,24,-1
 87 327 l 1,25,-1
 87 440 l 1,26,27
 112 462 112 462 156.5 477.5 c 128,-1,28
 201 493 201 493 252 493 c 0,29,30
 366 493 366 493 424 412 c 1,31,32
 456 448 456 448 503 471.5 c 128,-1,33
 550 495 550 495 602 495 c 128,-1,34
 654 495 654 495 694.5 475 c 128,-1,35
 735 455 735 455 757 426 c 128,-1,36
 779 397 779 397 793 359 c 0,37,38
 815 299 815 299 815 237 c 1,39,-1
 465 238 l 1,40,41
 466 130 466 130 498.5 79.5 c 128,-1,42
 531 29 531 29 607 29 c 0,0,1
244 33 m 0,43,44
 309 33 309 33 340 74.5 c 128,-1,45
 371 116 371 116 371 238 c 1,46,47
 232 238 232 238 185.5 215.5 c 128,-1,48
 139 193 139 193 139 129 c 0,49,50
 139 33 139 33 244 33 c 0,43,44
687.5 403.5 m 128,-1,52
 651 456 651 456 603 456 c 128,-1,53
 555 456 555 456 526 429 c 0,54,55
 471 378 471 378 465 269 c 1,56,-1
 724 269 l 1,57,51
 724 351 724 351 687.5 403.5 c 128,-1,52
EndSplineSet
EndChar

StartChar: ccedilla
Encoding: 231 231 163
Width: 515
GlyphClass: 2
Flags: W
LayerCount: 2
Fore
SplineSet
457 156 m 1,0,-1
 457 38 l 1,1,2
 413 -4 413 -4 307 -10 c 1,3,-1
 307 -43 l 1,4,5
 342 -45 342 -45 365.5 -64 c 128,-1,6
 389 -83 389 -83 389 -118 c 0,7,8
 389 -201 389 -201 228 -236 c 1,9,-1
 218 -212 l 1,10,11
 222 -210 222 -210 242 -200.5 c 128,-1,12
 262 -191 262 -191 271.5 -185 c 128,-1,13
 281 -179 281 -179 296 -168 c 0,14,15
 323 -149 323 -149 323 -118 c 0,16,17
 323 -82 323 -82 265 -72 c 1,18,-1
 265 -8 l 1,19,20
 169 1 169 1 108 66 c 128,-1,21
 47 131 47 131 47 244.5 c 128,-1,22
 47 358 47 358 118.5 426.5 c 128,-1,23
 190 495 190 495 301 495 c 0,24,25
 347 495 347 495 390 483.5 c 128,-1,26
 433 472 433 472 455 452 c 1,27,-1
 455 328 l 1,28,-1
 418 328 l 1,29,-1
 385 437 l 1,30,31
 357 458 357 458 292 458 c 128,-1,32
 227 458 227 458 188.5 402 c 128,-1,33
 150 346 150 346 150 239 c 0,34,35
 150 28 150 28 304 28 c 0,36,37
 355 28 355 28 385 42 c 1,38,-1
 420 156 l 1,39,-1
 457 156 l 1,0,-1
EndSplineSet
EndChar

StartChar: egrave
Encoding: 232 232 164
Width: 551
GlyphClass: 2
Flags: W
LayerCount: 2
Fore
SplineSet
483 169 m 1,0,-1
 483 55 l 1,1,2
 426 -10 426 -10 299.5 -10 c 128,-1,3
 173 -10 173 -10 112 56.5 c 128,-1,4
 51 123 51 123 51 241 c 128,-1,5
 51 359 51 359 115.5 426.5 c 128,-1,6
 180 494 180 494 289 494 c 0,7,8
 354 494 354 494 397.5 470 c 128,-1,9
 441 446 441 446 460 406 c 0,10,11
 490 340 490 340 490 267 c 1,12,-1
 151 267 l 1,13,14
 151 154 151 154 177 95 c 0,15,16
 207 28 207 28 295 28 c 0,17,18
 326 28 326 28 354.5 36.5 c 128,-1,19
 383 45 383 45 396 53 c 128,-1,20
 409 61 409 61 409 63 c 2,21,-1
 446 169 l 1,22,-1
 483 169 l 1,0,-1
287 455 m 0,23,24
 202 455 202 455 171 377 c 1,25,26
 156 342 156 342 153 300 c 1,27,-1
 403 300 l 1,28,29
 403 455 403 455 287 455 c 0,23,24
408 605 m 1,30,-1
 377 605 l 1,31,-1
 142 750 l 1,32,-1
 276 750 l 1,33,-1
 408 605 l 1,30,-1
EndSplineSet
EndChar

StartChar: eacute
Encoding: 233 233 165
Width: 551
GlyphClass: 2
Flags: W
LayerCount: 2
Fore
SplineSet
483 169 m 1,0,-1
 483 55 l 1,1,2
 426 -10 426 -10 299.5 -10 c 128,-1,3
 173 -10 173 -10 112 56.5 c 128,-1,4
 51 123 51 123 51 241 c 128,-1,5
 51 359 51 359 115.5 426.5 c 128,-1,6
 180 494 180 494 289 494 c 0,7,8
 354 494 354 494 397.5 470 c 128,-1,9
 441 446 441 446 460 406 c 0,10,11
 490 340 490 340 490 267 c 1,12,-1
 151 267 l 1,13,14
 151 154 151 154 177 95 c 0,15,16
 207 28 207 28 295 28 c 0,17,18
 326 28 326 28 354.5 36.5 c 128,-1,19
 383 45 383 45 396 53 c 128,-1,20
 409 61 409 61 409 63 c 2,21,-1
 446 169 l 1,22,-1
 483 169 l 1,0,-1
287 455 m 0,23,24
 202 455 202 455 171 377 c 1,25,26
 156 342 156 342 153 300 c 1,27,-1
 403 300 l 1,28,29
 403 455 403 455 287 455 c 0,23,24
180 604 m 1,30,-1
 148 604 l 1,31,-1
 280 750 l 1,32,-1
 414 750 l 1,33,-1
 180 604 l 1,30,-1
EndSplineSet
EndChar

StartChar: ecircumflex
Encoding: 234 234 166
Width: 551
GlyphClass: 2
Flags: W
LayerCount: 2
Fore
SplineSet
483 169 m 1,0,-1
 483 55 l 1,1,2
 426 -10 426 -10 299.5 -10 c 128,-1,3
 173 -10 173 -10 112 56.5 c 128,-1,4
 51 123 51 123 51 241 c 128,-1,5
 51 359 51 359 115.5 426.5 c 128,-1,6
 180 494 180 494 289 494 c 0,7,8
 354 494 354 494 397.5 470 c 128,-1,9
 441 446 441 446 460 406 c 0,10,11
 490 340 490 340 490 267 c 1,12,-1
 151 267 l 1,13,14
 151 154 151 154 177 95 c 0,15,16
 207 28 207 28 295 28 c 0,17,18
 326 28 326 28 354.5 36.5 c 128,-1,19
 383 45 383 45 396 53 c 128,-1,20
 409 61 409 61 409 63 c 2,21,-1
 446 169 l 1,22,-1
 483 169 l 1,0,-1
287 455 m 0,23,24
 202 455 202 455 171 377 c 1,25,26
 156 342 156 342 153 300 c 1,27,-1
 403 300 l 1,28,29
 403 455 403 455 287 455 c 0,23,24
295 750 m 1,30,-1
 450 586 l 1,31,-1
 410 586 l 1,32,-1
 278 661 l 1,33,-1
 154 586 l 1,34,-1
 115 586 l 1,35,-1
 261 750 l 1,36,-1
 295 750 l 1,30,-1
EndSplineSet
EndChar

StartChar: edieresis
Encoding: 235 235 167
Width: 551
GlyphClass: 2
Flags: W
LayerCount: 2
Fore
SplineSet
483 169 m 1,0,-1
 483 55 l 1,1,2
 426 -10 426 -10 299.5 -10 c 128,-1,3
 173 -10 173 -10 112 56.5 c 128,-1,4
 51 123 51 123 51 241 c 128,-1,5
 51 359 51 359 115.5 426.5 c 128,-1,6
 180 494 180 494 289 494 c 0,7,8
 354 494 354 494 397.5 470 c 128,-1,9
 441 446 441 446 460 406 c 0,10,11
 490 340 490 340 490 267 c 1,12,-1
 151 267 l 1,13,14
 151 154 151 154 177 95 c 0,15,16
 207 28 207 28 295 28 c 0,17,18
 326 28 326 28 354.5 36.5 c 128,-1,19
 383 45 383 45 396 53 c 128,-1,20
 409 61 409 61 409 63 c 2,21,-1
 446 169 l 1,22,-1
 483 169 l 1,0,-1
287 455 m 0,23,24
 202 455 202 455 171 377 c 1,25,26
 156 342 156 342 153 300 c 1,27,-1
 403 300 l 1,28,29
 403 455 403 455 287 455 c 0,23,24
134.5 740.5 m 128,-1,31
 152 756 152 756 181.5 756 c 128,-1,32
 211 756 211 756 229 740.5 c 128,-1,33
 247 725 247 725 247 698.5 c 128,-1,34
 247 672 247 672 230 656 c 128,-1,35
 213 640 213 640 182.5 640 c 128,-1,36
 152 640 152 640 134.5 655.5 c 128,-1,37
 117 671 117 671 117 698 c 128,-1,30
 117 725 117 725 134.5 740.5 c 128,-1,31
357.5 740.5 m 128,-1,39
 375 756 375 756 404.5 756 c 128,-1,40
 434 756 434 756 452 740.5 c 128,-1,41
 470 725 470 725 470 698.5 c 128,-1,42
 470 672 470 672 453 656 c 128,-1,43
 436 640 436 640 405.5 640 c 128,-1,44
 375 640 375 640 357.5 655.5 c 128,-1,45
 340 671 340 671 340 698 c 128,-1,38
 340 725 340 725 357.5 740.5 c 128,-1,39
EndSplineSet
EndChar

StartChar: igrave
Encoding: 236 236 168
Width: 322
GlyphClass: 2
Flags: W
LayerCount: 2
Fore
SplineSet
50 485 m 1,0,-1
 212 485 l 1,1,-1
 212 57 l 1,2,-1
 282 37 l 1,3,-1
 282 0 l 1,4,-1
 45 0 l 1,5,-1
 45 37 l 1,6,-1
 118 59 l 1,7,-1
 118 437 l 1,8,-1
 50 449 l 1,9,-1
 50 485 l 1,0,-1
294 605 m 1,10,-1
 263 605 l 1,11,-1
 28 750 l 1,12,-1
 162 750 l 1,13,-1
 294 605 l 1,10,-1
EndSplineSet
EndChar

StartChar: iacute
Encoding: 237 237 169
Width: 322
GlyphClass: 2
Flags: W
LayerCount: 2
Fore
SplineSet
50 485 m 1,0,-1
 212 485 l 1,1,-1
 212 57 l 1,2,-1
 282 37 l 1,3,-1
 282 0 l 1,4,-1
 45 0 l 1,5,-1
 45 37 l 1,6,-1
 118 59 l 1,7,-1
 118 437 l 1,8,-1
 50 449 l 1,9,-1
 50 485 l 1,0,-1
60 604 m 1,10,-1
 28 604 l 1,11,-1
 160 750 l 1,12,-1
 294 750 l 1,13,-1
 60 604 l 1,10,-1
EndSplineSet
EndChar

StartChar: icircumflex
Encoding: 238 238 170
Width: 322
GlyphClass: 2
Flags: W
LayerCount: 2
Fore
SplineSet
50 485 m 1,0,-1
 212 485 l 1,1,-1
 212 57 l 1,2,-1
 282 37 l 1,3,-1
 282 0 l 1,4,-1
 45 0 l 1,5,-1
 45 37 l 1,6,-1
 118 59 l 1,7,-1
 118 437 l 1,8,-1
 50 449 l 1,9,-1
 50 485 l 1,0,-1
174 750 m 1,10,-1
 329 586 l 1,11,-1
 289 586 l 1,12,-1
 157 661 l 1,13,-1
 33 586 l 1,14,-1
 -6 586 l 1,15,-1
 140 750 l 1,16,-1
 174 750 l 1,10,-1
EndSplineSet
EndChar

StartChar: idieresis
Encoding: 239 239 171
Width: 322
GlyphClass: 2
Flags: W
LayerCount: 2
Fore
SplineSet
50 485 m 1,0,-1
 212 485 l 1,1,-1
 212 57 l 1,2,-1
 282 37 l 1,3,-1
 282 0 l 1,4,-1
 45 0 l 1,5,-1
 45 37 l 1,6,-1
 118 59 l 1,7,-1
 118 437 l 1,8,-1
 50 449 l 1,9,-1
 50 485 l 1,0,-1
223.5 698 m 128,-1,11
 240 714 240 714 265.5 714 c 128,-1,12
 291 714 291 714 306.5 698 c 128,-1,13
 322 682 322 682 322 657 c 128,-1,14
 322 632 322 632 305.5 616 c 128,-1,15
 289 600 289 600 263.5 600 c 128,-1,16
 238 600 238 600 222.5 614.5 c 128,-1,17
 207 629 207 629 207 655.5 c 128,-1,10
 207 682 207 682 223.5 698 c 128,-1,11
1.5 698 m 128,-1,19
 18 714 18 714 43.5 714 c 128,-1,20
 69 714 69 714 84.5 698 c 128,-1,21
 100 682 100 682 100 657 c 128,-1,22
 100 632 100 632 84 616 c 128,-1,23
 68 600 68 600 42.5 600 c 128,-1,24
 17 600 17 600 1 614.5 c 128,-1,25
 -15 629 -15 629 -15 655.5 c 128,-1,18
 -15 682 -15 682 1.5 698 c 128,-1,19
EndSplineSet
EndChar

StartChar: eth
Encoding: 240 240 172
Width: 582
GlyphClass: 2
Flags: W
LayerCount: 2
Fore
SplineSet
523 430 m 128,-1,1
 540 370 540 370 540 301 c 128,-1,2
 540 232 540 232 527 180 c 128,-1,3
 514 128 514 128 486.5 84.5 c 128,-1,4
 459 41 459 41 409 16 c 128,-1,5
 359 -9 359 -9 291 -9 c 0,6,7
 177 -9 177 -9 112 60 c 128,-1,8
 47 129 47 129 47 247.5 c 128,-1,9
 47 366 47 366 113 429.5 c 128,-1,10
 179 493 179 493 284 493 c 0,11,12
 360 493 360 493 432 448 c 1,13,-1
 432 458 l 2,14,15
 432 515 432 515 391 553 c 128,-1,16
 350 591 350 591 268 629 c 1,17,-1
 136 534 l 1,18,-1
 103 567 l 1,19,-1
 220 651 l 1,20,-1
 73 721 l 1,21,-1
 98 759 l 1,22,-1
 265 683 l 1,23,-1
 384 769 l 1,24,-1
 417 736 l 1,25,-1
 312 661 l 1,26,27
 364 635 364 635 402 605.5 c 128,-1,28
 440 576 440 576 473 533 c 128,-1,0
 506 490 506 490 523 430 c 128,-1,1
292 32 m 0,29,30
 364 32 364 32 398.5 83.5 c 128,-1,31
 433 135 433 135 433 244.5 c 128,-1,32
 433 354 433 354 398.5 402.5 c 128,-1,33
 364 451 364 451 288.5 451 c 128,-1,34
 213 451 213 451 180 402.5 c 128,-1,35
 147 354 147 354 147 247 c 0,36,37
 147 32 147 32 292 32 c 0,29,30
EndSplineSet
EndChar

StartChar: ntilde
Encoding: 241 241 173
Width: 688
GlyphClass: 2
Flags: W
LayerCount: 2
Fore
SplineSet
67 486 m 1,0,-1
 229 486 l 1,1,-1
 229 345 l 1,2,3
 269 493 269 493 407 493 c 0,4,5
 488 493 488 493 527 443.5 c 128,-1,6
 566 394 566 394 566 307 c 2,7,-1
 566 59 l 1,8,-1
 643 37 l 1,9,-1
 643 0 l 1,10,-1
 406 0 l 1,11,-1
 406 37 l 1,12,-1
 473 57 l 1,13,-1
 473 295 l 2,14,15
 473 376 473 376 451.5 411 c 128,-1,16
 430 446 430 446 384 446 c 0,17,18
 313 446 313 446 274.5 378.5 c 128,-1,19
 236 311 236 311 236 176 c 2,20,-1
 236 57 l 1,21,-1
 306 37 l 1,22,-1
 306 0 l 1,23,-1
 67 0 l 1,24,-1
 67 37 l 1,25,-1
 141 58 l 1,26,-1
 141 436 l 1,27,-1
 67 450 l 1,28,-1
 67 486 l 1,0,-1
227.5 731.5 m 128,-1,30
 252 750 252 750 286.5 750 c 128,-1,31
 321 750 321 750 366.5 718 c 128,-1,32
 412 686 412 686 434 686 c 0,33,34
 471 686 471 686 509 742 c 1,35,-1
 534 724 l 1,36,37
 470 618 470 618 413 618 c 0,38,39
 388 618 388 618 337 650 c 128,-1,40
 286 682 286 682 253 682 c 128,-1,41
 220 682 220 682 175 624 c 1,42,-1
 153 642 l 1,43,-1
 168 663 l 2,44,29
 203 713 203 713 227.5 731.5 c 128,-1,30
EndSplineSet
EndChar

StartChar: ograve
Encoding: 242 242 174
Width: 582
GlyphClass: 2
Flags: W
LayerCount: 2
Fore
SplineSet
401 399.5 m 128,-1,1
 368 452 368 452 293.5 452 c 128,-1,2
 219 452 219 452 183.5 401.5 c 128,-1,3
 148 351 148 351 148 240 c 128,-1,4
 148 129 148 129 183 80.5 c 128,-1,5
 218 32 218 32 290.5 32 c 128,-1,6
 363 32 363 32 398.5 81.5 c 128,-1,7
 434 131 434 131 434 239 c 128,-1,0
 434 347 434 347 401 399.5 c 128,-1,1
114 425.5 m 128,-1,9
 181 494 181 494 291.5 494 c 128,-1,10
 402 494 402 494 468 427 c 128,-1,11
 534 360 534 360 534 240 c 128,-1,12
 534 120 534 120 468 55.5 c 128,-1,13
 402 -9 402 -9 290.5 -9 c 128,-1,14
 179 -9 179 -9 113 56 c 128,-1,15
 47 121 47 121 47 239 c 128,-1,8
 47 357 47 357 114 425.5 c 128,-1,9
432 605 m 1,16,-1
 401 605 l 1,17,-1
 166 750 l 1,18,-1
 300 750 l 1,19,-1
 432 605 l 1,16,-1
EndSplineSet
EndChar

StartChar: oacute
Encoding: 243 243 175
Width: 582
GlyphClass: 2
Flags: W
LayerCount: 2
Fore
SplineSet
401 399.5 m 128,-1,1
 368 452 368 452 293.5 452 c 128,-1,2
 219 452 219 452 183.5 401.5 c 128,-1,3
 148 351 148 351 148 240 c 128,-1,4
 148 129 148 129 183 80.5 c 128,-1,5
 218 32 218 32 290.5 32 c 128,-1,6
 363 32 363 32 398.5 81.5 c 128,-1,7
 434 131 434 131 434 239 c 128,-1,0
 434 347 434 347 401 399.5 c 128,-1,1
114 425.5 m 128,-1,9
 181 494 181 494 291.5 494 c 128,-1,10
 402 494 402 494 468 427 c 128,-1,11
 534 360 534 360 534 240 c 128,-1,12
 534 120 534 120 468 55.5 c 128,-1,13
 402 -9 402 -9 290.5 -9 c 128,-1,14
 179 -9 179 -9 113 56 c 128,-1,15
 47 121 47 121 47 239 c 128,-1,8
 47 357 47 357 114 425.5 c 128,-1,9
190 604 m 1,16,-1
 158 604 l 1,17,-1
 290 750 l 1,18,-1
 424 750 l 1,19,-1
 190 604 l 1,16,-1
EndSplineSet
EndChar

StartChar: ocircumflex
Encoding: 244 244 176
Width: 582
GlyphClass: 2
Flags: W
LayerCount: 2
Fore
SplineSet
401 399.5 m 128,-1,1
 368 452 368 452 293.5 452 c 128,-1,2
 219 452 219 452 183.5 401.5 c 128,-1,3
 148 351 148 351 148 240 c 128,-1,4
 148 129 148 129 183 80.5 c 128,-1,5
 218 32 218 32 290.5 32 c 128,-1,6
 363 32 363 32 398.5 81.5 c 128,-1,7
 434 131 434 131 434 239 c 128,-1,0
 434 347 434 347 401 399.5 c 128,-1,1
114 425.5 m 128,-1,9
 181 494 181 494 291.5 494 c 128,-1,10
 402 494 402 494 468 427 c 128,-1,11
 534 360 534 360 534 240 c 128,-1,12
 534 120 534 120 468 55.5 c 128,-1,13
 402 -9 402 -9 290.5 -9 c 128,-1,14
 179 -9 179 -9 113 56 c 128,-1,15
 47 121 47 121 47 239 c 128,-1,8
 47 357 47 357 114 425.5 c 128,-1,9
303 750 m 1,16,-1
 458 586 l 1,17,-1
 418 586 l 1,18,-1
 286 661 l 1,19,-1
 162 586 l 1,20,-1
 123 586 l 1,21,-1
 269 750 l 1,22,-1
 303 750 l 1,16,-1
EndSplineSet
EndChar

StartChar: otilde
Encoding: 245 245 177
Width: 582
GlyphClass: 2
Flags: W
LayerCount: 2
Fore
SplineSet
401 399.5 m 128,-1,1
 368 452 368 452 293.5 452 c 128,-1,2
 219 452 219 452 183.5 401.5 c 128,-1,3
 148 351 148 351 148 240 c 128,-1,4
 148 129 148 129 183 80.5 c 128,-1,5
 218 32 218 32 290.5 32 c 128,-1,6
 363 32 363 32 398.5 81.5 c 128,-1,7
 434 131 434 131 434 239 c 128,-1,0
 434 347 434 347 401 399.5 c 128,-1,1
114 425.5 m 128,-1,9
 181 494 181 494 291.5 494 c 128,-1,10
 402 494 402 494 468 427 c 128,-1,11
 534 360 534 360 534 240 c 128,-1,12
 534 120 534 120 468 55.5 c 128,-1,13
 402 -9 402 -9 290.5 -9 c 128,-1,14
 179 -9 179 -9 113 56 c 128,-1,15
 47 121 47 121 47 239 c 128,-1,8
 47 357 47 357 114 425.5 c 128,-1,9
181.5 731.5 m 128,-1,17
 206 750 206 750 240.5 750 c 128,-1,18
 275 750 275 750 320.5 718 c 128,-1,19
 366 686 366 686 388 686 c 0,20,21
 425 686 425 686 463 742 c 1,22,-1
 488 724 l 1,23,24
 424 618 424 618 367 618 c 0,25,26
 342 618 342 618 291 650 c 128,-1,27
 240 682 240 682 207 682 c 128,-1,28
 174 682 174 682 129 624 c 1,29,-1
 107 642 l 1,30,-1
 122 663 l 2,31,16
 157 713 157 713 181.5 731.5 c 128,-1,17
EndSplineSet
EndChar

StartChar: odieresis
Encoding: 246 246 178
Width: 582
GlyphClass: 2
Flags: W
LayerCount: 2
Fore
SplineSet
401 399.5 m 128,-1,1
 368 452 368 452 293.5 452 c 128,-1,2
 219 452 219 452 183.5 401.5 c 128,-1,3
 148 351 148 351 148 240 c 128,-1,4
 148 129 148 129 183 80.5 c 128,-1,5
 218 32 218 32 290.5 32 c 128,-1,6
 363 32 363 32 398.5 81.5 c 128,-1,7
 434 131 434 131 434 239 c 128,-1,0
 434 347 434 347 401 399.5 c 128,-1,1
114 425.5 m 128,-1,9
 181 494 181 494 291.5 494 c 128,-1,10
 402 494 402 494 468 427 c 128,-1,11
 534 360 534 360 534 240 c 128,-1,12
 534 120 534 120 468 55.5 c 128,-1,13
 402 -9 402 -9 290.5 -9 c 128,-1,14
 179 -9 179 -9 113 56 c 128,-1,15
 47 121 47 121 47 239 c 128,-1,8
 47 357 47 357 114 425.5 c 128,-1,9
130.5 740.5 m 128,-1,17
 148 756 148 756 177.5 756 c 128,-1,18
 207 756 207 756 225 740.5 c 128,-1,19
 243 725 243 725 243 698.5 c 128,-1,20
 243 672 243 672 226 656 c 128,-1,21
 209 640 209 640 178.5 640 c 128,-1,22
 148 640 148 640 130.5 655.5 c 128,-1,23
 113 671 113 671 113 698 c 128,-1,16
 113 725 113 725 130.5 740.5 c 128,-1,17
353.5 740.5 m 128,-1,25
 371 756 371 756 400.5 756 c 128,-1,26
 430 756 430 756 448 740.5 c 128,-1,27
 466 725 466 725 466 698.5 c 128,-1,28
 466 672 466 672 449 656 c 128,-1,29
 432 640 432 640 401.5 640 c 128,-1,30
 371 640 371 640 353.5 655.5 c 128,-1,31
 336 671 336 671 336 698 c 128,-1,24
 336 725 336 725 353.5 740.5 c 128,-1,25
EndSplineSet
EndChar

StartChar: divide
Encoding: 247 247 179
Width: 618
GlyphClass: 2
Flags: W
LayerCount: 2
Fore
SplineSet
11 331 m 1,0,-1
 603 331 l 1,1,-1
 603 269 l 1,2,-1
 11 269 l 1,3,-1
 11 331 l 1,0,-1
257.5 569 m 128,-1,5
 278 589 278 589 306.5 589 c 128,-1,6
 335 589 335 589 355.5 569.5 c 128,-1,7
 376 550 376 550 376 521 c 128,-1,8
 376 492 376 492 356 471.5 c 128,-1,9
 336 451 336 451 307 451 c 128,-1,10
 278 451 278 451 257.5 471 c 128,-1,11
 237 491 237 491 237 520 c 128,-1,4
 237 549 237 549 257.5 569 c 128,-1,5
257 120 m 128,-1,13
 277 141 277 141 306 141 c 128,-1,14
 335 141 335 141 355.5 120.5 c 128,-1,15
 376 100 376 100 376 71 c 128,-1,16
 376 42 376 42 354.5 21.5 c 128,-1,17
 333 1 333 1 305.5 1 c 128,-1,18
 278 1 278 1 257.5 21 c 128,-1,19
 237 41 237 41 237 70 c 128,-1,12
 237 99 237 99 257 120 c 128,-1,13
EndSplineSet
EndChar

StartChar: oslash
Encoding: 248 248 180
Width: 582
GlyphClass: 2
Flags: W
LayerCount: 2
Fore
SplineSet
534 240 m 0,0,1
 534 120 534 120 468 55.5 c 128,-1,2
 402 -9 402 -9 291 -9 c 0,3,4
 260 -9 260 -9 223 -2 c 1,5,-1
 188 -91 l 1,6,-1
 134 -91 l 1,7,-1
 175 14 l 1,8,9
 47 72 47 72 47 239 c 0,10,11
 47 357 47 357 114 425.5 c 128,-1,12
 181 494 181 494 292 494 c 0,13,14
 330 494 330 494 363 485 c 1,15,-1
 394 564 l 1,16,-1
 447 564 l 1,17,-1
 409 469 l 1,18,19
 534 406 534 406 534 240 c 0,0,1
292 452 m 0,20,21
 219 452 219 452 183.5 401.5 c 128,-1,22
 148 351 148 351 148 231.5 c 128,-1,23
 148 112 148 112 195 65 c 1,24,-1
 346 443 l 1,25,26
 322 452 322 452 292 452 c 0,20,21
398.5 81.5 m 128,-1,28
 434 131 434 131 434 248 c 128,-1,29
 434 365 434 365 388 415 c 1,30,-1
 239 39 l 1,31,32
 259 32 259 32 290 32 c 0,33,27
 363 32 363 32 398.5 81.5 c 128,-1,28
EndSplineSet
EndChar

StartChar: ugrave
Encoding: 249 249 181
Width: 635
GlyphClass: 2
Flags: W
LayerCount: 2
Fore
SplineSet
42 485 m 1,0,-1
 208 485 l 1,1,-1
 208 186 l 2,2,3
 208 107 208 107 228.5 74 c 128,-1,4
 249 41 249 41 296 41 c 0,5,6
 366 41 366 41 406 107 c 128,-1,7
 446 173 446 173 446 309 c 2,8,-1
 446 435 l 1,9,-1
 373 448 l 1,10,-1
 373 485 l 1,11,-1
 539 485 l 1,12,-1
 539 60 l 1,13,-1
 618 37 l 1,14,-1
 618 0 l 1,15,-1
 452 0 l 1,16,-1
 452 135 l 1,17,18
 426 64 426 64 379.5 26.5 c 128,-1,19
 333 -11 333 -11 278 -11 c 0,20,21
 114 -11 114 -11 114 169 c 2,22,-1
 114 435 l 1,23,-1
 42 448 l 1,24,-1
 42 485 l 1,0,-1
450 605 m 1,25,-1
 419 605 l 1,26,-1
 184 750 l 1,27,-1
 318 750 l 1,28,-1
 450 605 l 1,25,-1
EndSplineSet
EndChar

StartChar: uacute
Encoding: 250 250 182
Width: 635
GlyphClass: 2
Flags: W
LayerCount: 2
Fore
SplineSet
42 485 m 1,0,-1
 208 485 l 1,1,-1
 208 186 l 2,2,3
 208 107 208 107 228.5 74 c 128,-1,4
 249 41 249 41 296 41 c 0,5,6
 366 41 366 41 406 107 c 128,-1,7
 446 173 446 173 446 309 c 2,8,-1
 446 435 l 1,9,-1
 373 448 l 1,10,-1
 373 485 l 1,11,-1
 539 485 l 1,12,-1
 539 60 l 1,13,-1
 618 37 l 1,14,-1
 618 0 l 1,15,-1
 452 0 l 1,16,-1
 452 135 l 1,17,18
 426 64 426 64 379.5 26.5 c 128,-1,19
 333 -11 333 -11 278 -11 c 0,20,21
 114 -11 114 -11 114 169 c 2,22,-1
 114 435 l 1,23,-1
 42 448 l 1,24,-1
 42 485 l 1,0,-1
216 604 m 1,25,-1
 184 604 l 1,26,-1
 316 750 l 1,27,-1
 450 750 l 1,28,-1
 216 604 l 1,25,-1
EndSplineSet
EndChar

StartChar: ucircumflex
Encoding: 251 251 183
Width: 635
GlyphClass: 2
Flags: W
LayerCount: 2
Fore
SplineSet
42 485 m 1,0,-1
 208 485 l 1,1,-1
 208 186 l 2,2,3
 208 107 208 107 228.5 74 c 128,-1,4
 249 41 249 41 296 41 c 0,5,6
 366 41 366 41 406 107 c 128,-1,7
 446 173 446 173 446 309 c 2,8,-1
 446 435 l 1,9,-1
 373 448 l 1,10,-1
 373 485 l 1,11,-1
 539 485 l 1,12,-1
 539 60 l 1,13,-1
 618 37 l 1,14,-1
 618 0 l 1,15,-1
 452 0 l 1,16,-1
 452 135 l 1,17,18
 426 64 426 64 379.5 26.5 c 128,-1,19
 333 -11 333 -11 278 -11 c 0,20,21
 114 -11 114 -11 114 169 c 2,22,-1
 114 435 l 1,23,-1
 42 448 l 1,24,-1
 42 485 l 1,0,-1
330 750 m 1,25,-1
 485 586 l 1,26,-1
 445 586 l 1,27,-1
 313 661 l 1,28,-1
 189 586 l 1,29,-1
 150 586 l 1,30,-1
 296 750 l 1,31,-1
 330 750 l 1,25,-1
EndSplineSet
EndChar

StartChar: udieresis
Encoding: 252 252 184
Width: 635
GlyphClass: 2
Flags: W
LayerCount: 2
Fore
SplineSet
42 485 m 1,0,-1
 208 485 l 1,1,-1
 208 186 l 2,2,3
 208 107 208 107 228.5 74 c 128,-1,4
 249 41 249 41 296 41 c 0,5,6
 366 41 366 41 406 107 c 128,-1,7
 446 173 446 173 446 309 c 2,8,-1
 446 435 l 1,9,-1
 373 448 l 1,10,-1
 373 485 l 1,11,-1
 539 485 l 1,12,-1
 539 60 l 1,13,-1
 618 37 l 1,14,-1
 618 0 l 1,15,-1
 452 0 l 1,16,-1
 452 135 l 1,17,18
 426 64 426 64 379.5 26.5 c 128,-1,19
 333 -11 333 -11 278 -11 c 0,20,21
 114 -11 114 -11 114 169 c 2,22,-1
 114 435 l 1,23,-1
 42 448 l 1,24,-1
 42 485 l 1,0,-1
157.5 740.5 m 128,-1,26
 175 756 175 756 204.5 756 c 128,-1,27
 234 756 234 756 252 740.5 c 128,-1,28
 270 725 270 725 270 698.5 c 128,-1,29
 270 672 270 672 253 656 c 128,-1,30
 236 640 236 640 205.5 640 c 128,-1,31
 175 640 175 640 157.5 655.5 c 128,-1,32
 140 671 140 671 140 698 c 128,-1,25
 140 725 140 725 157.5 740.5 c 128,-1,26
380.5 740.5 m 128,-1,34
 398 756 398 756 427.5 756 c 128,-1,35
 457 756 457 756 475 740.5 c 128,-1,36
 493 725 493 725 493 698.5 c 128,-1,37
 493 672 493 672 476 656 c 128,-1,38
 459 640 459 640 428.5 640 c 128,-1,39
 398 640 398 640 380.5 655.5 c 128,-1,40
 363 671 363 671 363 698 c 128,-1,33
 363 725 363 725 380.5 740.5 c 128,-1,34
EndSplineSet
EndChar

StartChar: yacute
Encoding: 253 253 185
Width: 478
GlyphClass: 2
Flags: W
LayerCount: 2
Fore
SplineSet
315 486 m 1,0,-1
 525 486 l 1,1,-1
 525 448 l 1,2,-1
 446 436 l 1,3,-1
 238 -76 l 1,4,5
 195 -178 195 -178 167 -209 c 128,-1,6
 139 -240 139 -240 75 -240 c 2,7,-1
 31 -240 l 1,8,-1
 31 -94 l 1,9,-1
 68 -94 l 1,10,-1
 93 -184 l 1,11,12
 124 -182 124 -182 138 -167.5 c 128,-1,13
 152 -153 152 -153 159 -145 c 128,-1,14
 166 -137 166 -137 175.5 -116.5 c 128,-1,15
 185 -96 185 -96 189.5 -85 c 128,-1,16
 194 -74 194 -74 205 -45 c 128,-1,17
 216 -16 216 -16 222 -2 c 1,18,-1
 31 430 l 1,19,-1
 -52 448 l 1,20,-1
 -52 485 l 1,21,-1
 202 485 l 1,22,-1
 202 448 l 1,23,-1
 134 434 l 1,24,-1
 271 110 l 1,25,-1
 392 435 l 1,26,-1
 315 448 l 1,27,-1
 315 486 l 1,0,-1
142 604 m 1,28,-1
 110 604 l 1,29,-1
 242 750 l 1,30,-1
 376 750 l 1,31,-1
 142 604 l 1,28,-1
EndSplineSet
EndChar

StartChar: thorn
Encoding: 254 254 186
Width: 598
GlyphClass: 2
Flags: W
LayerCount: 2
Fore
SplineSet
85 750 m 1,0,-1
 247 750 l 1,1,-1
 247 362 l 1,2,3
 293 493 293 493 418 493 c 0,4,5
 513 493 513 493 570.5 427 c 128,-1,6
 628 361 628 361 628 241.5 c 128,-1,7
 628 122 628 122 570.5 55.5 c 128,-1,8
 513 -11 513 -11 419 -11 c 0,9,10
 298 -11 298 -11 253 108 c 1,11,-1
 253 -256 l 1,12,-1
 326 -278 l 1,13,-1
 326 -315 l 1,14,-1
 83 -315 l 1,15,-1
 83 -278 l 1,16,-1
 158 -256 l 1,17,-1
 158 702 l 1,18,-1
 85 715 l 1,19,-1
 85 750 l 1,0,-1
404 449 m 0,20,21
 339 449 339 449 296.5 394 c 128,-1,22
 254 339 254 339 254 245.5 c 128,-1,23
 254 152 254 152 295 92.5 c 128,-1,24
 336 33 336 33 404 33 c 0,25,26
 526 33 526 33 526 241 c 128,-1,27
 526 449 526 449 404 449 c 0,20,21
EndSplineSet
EndChar

StartChar: ydieresis
Encoding: 255 255 187
Width: 607
GlyphClass: 2
Flags: W
LayerCount: 2
Fore
SplineSet
377 486 m 1,0,-1
 587 486 l 1,1,-1
 587 448 l 1,2,-1
 508 436 l 1,3,-1
 300 -76 l 1,4,5
 257 -178 257 -178 229 -209 c 128,-1,6
 201 -240 201 -240 137 -240 c 2,7,-1
 93 -240 l 1,8,-1
 93 -94 l 1,9,-1
 130 -94 l 1,10,-1
 155 -184 l 1,11,12
 186 -182 186 -182 200 -167.5 c 128,-1,13
 214 -153 214 -153 221 -145 c 128,-1,14
 228 -137 228 -137 237.5 -116.5 c 128,-1,15
 247 -96 247 -96 251.5 -85 c 128,-1,16
 256 -74 256 -74 267 -45 c 128,-1,17
 278 -16 278 -16 284 -2 c 1,18,-1
 93 430 l 1,19,-1
 10 448 l 1,20,-1
 10 485 l 1,21,-1
 264 485 l 1,22,-1
 264 448 l 1,23,-1
 196 434 l 1,24,-1
 333 110 l 1,25,-1
 454 435 l 1,26,-1
 377 448 l 1,27,-1
 377 486 l 1,0,-1
143.5 740.5 m 128,-1,29
 161 756 161 756 190.5 756 c 128,-1,30
 220 756 220 756 238 740.5 c 128,-1,31
 256 725 256 725 256 698.5 c 128,-1,32
 256 672 256 672 239 656 c 128,-1,33
 222 640 222 640 191.5 640 c 128,-1,34
 161 640 161 640 143.5 655.5 c 128,-1,35
 126 671 126 671 126 698 c 128,-1,28
 126 725 126 725 143.5 740.5 c 128,-1,29
366.5 740.5 m 128,-1,37
 384 756 384 756 413.5 756 c 128,-1,38
 443 756 443 756 461 740.5 c 128,-1,39
 479 725 479 725 479 698.5 c 128,-1,40
 479 672 479 672 462 656 c 128,-1,41
 445 640 445 640 414.5 640 c 128,-1,42
 384 640 384 640 366.5 655.5 c 128,-1,43
 349 671 349 671 349 698 c 128,-1,36
 349 725 349 725 366.5 740.5 c 128,-1,37
EndSplineSet
EndChar

StartChar: Amacron
Encoding: 256 256 188
Width: 915
GlyphClass: 2
Flags: W
LayerCount: 2
Fore
SplineSet
50 0 m 1,0,-1
 50 37 l 1,1,-1
 139 59 l 1,2,-1
 442 758 l 1,3,-1
 493 758 l 1,4,-1
 781 59 l 1,5,-1
 865 37 l 1,6,-1
 865 0 l 1,7,-1
 581 0 l 1,8,-1
 581 37 l 1,9,-1
 668 58 l 1,10,-1
 589 252 l 1,11,-1
 287 252 l 1,12,-1
 212 58 l 1,13,-1
 302 37 l 1,14,-1
 302 0 l 1,15,-1
 50 0 l 1,0,-1
301 290 m 1,16,-1
 575 290 l 1,17,-1
 435 641 l 1,18,-1
 301 290 l 1,16,-1
310 920 m 1,19,-1
 599 920 l 1,20,-1
 599 846 l 1,21,-1
 310 846 l 1,22,-1
 310 920 l 1,19,-1
EndSplineSet
EndChar

StartChar: amacron
Encoding: 257 257 189
Width: 582
GlyphClass: 2
Flags: W
LayerCount: 2
Fore
SplineSet
542 0 m 1,0,-1
 366 0 l 1,1,-1
 366 101 l 1,2,3
 319 -9 319 -9 201 -9 c 0,4,5
 122 -9 122 -9 81 25.5 c 128,-1,6
 40 60 40 60 40 122 c 0,7,8
 40 210 40 210 117.5 248.5 c 128,-1,9
 195 287 195 287 364 290 c 1,10,-1
 364 333 l 2,11,12
 364 404 364 404 335 429.5 c 128,-1,13
 306 455 306 455 249 455 c 128,-1,14
 192 455 192 455 150 429 c 1,15,-1
 117 330 l 1,16,-1
 80 330 l 1,17,-1
 80 443 l 1,18,19
 105 464 105 464 149 478.5 c 128,-1,20
 193 493 193 493 245 493 c 0,21,22
 351 493 351 493 404.5 452.5 c 128,-1,23
 458 412 458 412 458 309 c 2,24,-1
 458 60 l 1,25,-1
 542 37 l 1,26,-1
 542 0 l 1,0,-1
227 33 m 0,27,28
 291 33 291 33 327.5 82.5 c 128,-1,29
 364 132 364 132 364 255 c 1,30,31
 192 255 192 255 154 202 c 0,32,33
 136 177 136 177 136 128 c 128,-1,34
 136 79 136 79 157.5 56 c 128,-1,35
 179 33 179 33 227 33 c 0,27,28
105 690 m 1,36,-1
 394 690 l 1,37,-1
 394 616 l 1,38,-1
 105 616 l 1,39,-1
 105 690 l 1,36,-1
EndSplineSet
EndChar

StartChar: Abreve
Encoding: 258 258 190
Width: 915
GlyphClass: 2
Flags: W
LayerCount: 2
Fore
SplineSet
50 0 m 1,0,-1
 50 37 l 1,1,-1
 139 59 l 1,2,-1
 442 758 l 1,3,-1
 493 758 l 1,4,-1
 781 59 l 1,5,-1
 865 37 l 1,6,-1
 865 0 l 1,7,-1
 581 0 l 1,8,-1
 581 37 l 1,9,-1
 668 58 l 1,10,-1
 589 252 l 1,11,-1
 287 252 l 1,12,-1
 212 58 l 1,13,-1
 302 37 l 1,14,-1
 302 0 l 1,15,-1
 50 0 l 1,0,-1
301 290 m 1,16,-1
 575 290 l 1,17,-1
 435 641 l 1,18,-1
 301 290 l 1,16,-1
596 957 m 1,19,-1
 626 957 l 1,20,21
 626 883 626 883 576 842 c 128,-1,22
 526 801 526 801 457 801 c 128,-1,23
 388 801 388 801 337.5 842 c 128,-1,24
 287 883 287 883 287 957 c 1,25,-1
 319 957 l 1,26,27
 319 917 319 917 360.5 894 c 128,-1,28
 402 871 402 871 457.5 871 c 128,-1,29
 513 871 513 871 554.5 894 c 128,-1,30
 596 917 596 917 596 957 c 1,19,-1
EndSplineSet
EndChar

StartChar: abreve
Encoding: 259 259 191
Width: 582
GlyphClass: 2
Flags: W
LayerCount: 2
Fore
SplineSet
542 0 m 1,0,-1
 366 0 l 1,1,-1
 366 101 l 1,2,3
 319 -9 319 -9 201 -9 c 0,4,5
 122 -9 122 -9 81 25.5 c 128,-1,6
 40 60 40 60 40 122 c 0,7,8
 40 210 40 210 117.5 248.5 c 128,-1,9
 195 287 195 287 364 290 c 1,10,-1
 364 333 l 2,11,12
 364 404 364 404 335 429.5 c 128,-1,13
 306 455 306 455 249 455 c 128,-1,14
 192 455 192 455 150 429 c 1,15,-1
 117 330 l 1,16,-1
 80 330 l 1,17,-1
 80 443 l 1,18,19
 105 464 105 464 149 478.5 c 128,-1,20
 193 493 193 493 245 493 c 0,21,22
 351 493 351 493 404.5 452.5 c 128,-1,23
 458 412 458 412 458 309 c 2,24,-1
 458 60 l 1,25,-1
 542 37 l 1,26,-1
 542 0 l 1,0,-1
227 33 m 0,27,28
 291 33 291 33 327.5 82.5 c 128,-1,29
 364 132 364 132 364 255 c 1,30,31
 192 255 192 255 154 202 c 0,32,33
 136 177 136 177 136 128 c 128,-1,34
 136 79 136 79 157.5 56 c 128,-1,35
 179 33 179 33 227 33 c 0,27,28
386 750 m 1,36,-1
 416 750 l 1,37,38
 416 676 416 676 366 635 c 128,-1,39
 316 594 316 594 247 594 c 128,-1,40
 178 594 178 594 127.5 635 c 128,-1,41
 77 676 77 676 77 750 c 1,42,-1
 109 750 l 1,43,44
 109 710 109 710 150.5 687 c 128,-1,45
 192 664 192 664 247.5 664 c 128,-1,46
 303 664 303 664 344.5 687 c 128,-1,47
 386 710 386 710 386 750 c 1,36,-1
EndSplineSet
EndChar

StartChar: Aogonek
Encoding: 260 260 192
Width: 915
GlyphClass: 2
Flags: W
LayerCount: 2
Fore
SplineSet
697 -98 m 0,0,1
 697 -67 697 -67 716 -40.5 c 128,-1,2
 735 -14 735 -14 771 0 c 1,3,-1
 581 0 l 1,4,-1
 581 37 l 1,5,-1
 668 58 l 1,6,-1
 589 252 l 1,7,-1
 287 252 l 1,8,-1
 212 58 l 1,9,-1
 302 37 l 1,10,-1
 302 0 l 1,11,-1
 50 0 l 1,12,-1
 50 37 l 1,13,-1
 139 59 l 1,14,-1
 442 758 l 1,15,-1
 493 758 l 1,16,-1
 781 59 l 1,17,-1
 865 37 l 1,18,-1
 865 0 l 1,19,-1
 817 0 l 1,20,21
 768 -32 768 -32 768 -96 c 0,22,23
 768 -134 768 -134 791 -159.5 c 128,-1,24
 814 -185 814 -185 859 -186 c 1,25,-1
 865 -218 l 1,26,27
 786 -218 786 -218 741.5 -182 c 128,-1,28
 697 -146 697 -146 697 -98 c 0,0,1
301 290 m 1,29,-1
 575 290 l 1,30,-1
 435 641 l 1,31,-1
 301 290 l 1,29,-1
EndSplineSet
EndChar

StartChar: aogonek
Encoding: 261 261 193
Width: 582
GlyphClass: 2
Flags: W
LayerCount: 2
Fore
SplineSet
418.5 -191 m 128,-1,1
 374 -155 374 -155 374 -111.5 c 128,-1,2
 374 -68 374 -68 402 -38.5 c 128,-1,3
 430 -9 430 -9 482 0 c 1,4,-1
 366 0 l 1,5,-1
 366 101 l 1,6,7
 319 -9 319 -9 201 -9 c 0,8,9
 122 -9 122 -9 81 25.5 c 128,-1,10
 40 60 40 60 40 122 c 0,11,12
 40 210 40 210 117.5 248.5 c 128,-1,13
 195 287 195 287 364 290 c 1,14,-1
 364 333 l 2,15,16
 364 404 364 404 335 429.5 c 128,-1,17
 306 455 306 455 249 455 c 128,-1,18
 192 455 192 455 150 429 c 1,19,-1
 117 330 l 1,20,-1
 80 330 l 1,21,-1
 80 443 l 1,22,23
 105 464 105 464 149 478.5 c 128,-1,24
 193 493 193 493 245 493 c 0,25,26
 351 493 351 493 404.5 452.5 c 128,-1,27
 458 412 458 412 458 309 c 2,28,-1
 458 60 l 1,29,-1
 542 37 l 1,30,-1
 542 0 l 1,31,-1
 511 0 l 1,32,33
 480 -12 480 -12 462.5 -41.5 c 128,-1,34
 445 -71 445 -71 445 -107 c 128,-1,35
 445 -143 445 -143 468 -168.5 c 128,-1,36
 491 -194 491 -194 536 -195 c 1,37,-1
 542 -227 l 1,38,0
 463 -227 463 -227 418.5 -191 c 128,-1,1
227 33 m 0,39,40
 291 33 291 33 327.5 82.5 c 128,-1,41
 364 132 364 132 364 255 c 1,42,43
 192 255 192 255 154 202 c 0,44,45
 136 177 136 177 136 128 c 128,-1,46
 136 79 136 79 157.5 56 c 128,-1,47
 179 33 179 33 227 33 c 0,39,40
EndSplineSet
EndChar

StartChar: Cacute
Encoding: 262 262 194
Width: 758
GlyphClass: 2
Flags: W
LayerCount: 2
Fore
SplineSet
678 241 m 1,0,-1
 678 72 l 1,1,2
 589 -21 589 -21 430 -21 c 128,-1,3
 271 -21 271 -21 165.5 85.5 c 128,-1,4
 60 192 60 192 60 370.5 c 128,-1,5
 60 549 60 549 167 654.5 c 128,-1,6
 274 760 274 760 432.5 760 c 128,-1,7
 591 760 591 760 678 677 c 1,8,-1
 678 515 l 1,9,-1
 626 515 l 1,10,-1
 577 674 l 1,11,12
 522 723 522 723 432 723 c 0,13,14
 318 723 318 723 247 632.5 c 128,-1,15
 176 542 176 542 176 375.5 c 128,-1,16
 176 209 176 209 244.5 114 c 128,-1,17
 313 19 313 19 428 19 c 0,18,19
 521 19 521 19 581 75 c 1,20,-1
 631 241 l 1,21,-1
 678 241 l 1,0,-1
319 801 m 1,22,-1
 287 801 l 1,23,-1
 419 947 l 1,24,-1
 553 947 l 1,25,-1
 319 801 l 1,22,-1
EndSplineSet
EndChar

StartChar: cacute
Encoding: 263 263 195
Width: 515
GlyphClass: 2
Flags: W
LayerCount: 2
Fore
SplineSet
460 156 m 1,0,-1
 460 38 l 1,1,2
 408 -10 408 -10 298.5 -10 c 128,-1,3
 189 -10 189 -10 119.5 56 c 128,-1,4
 50 122 50 122 50 240 c 128,-1,5
 50 358 50 358 121.5 426.5 c 128,-1,6
 193 495 193 495 304 495 c 0,7,8
 350 495 350 495 393 483.5 c 128,-1,9
 436 472 436 472 458 452 c 1,10,-1
 458 328 l 1,11,-1
 421 328 l 1,12,-1
 388 437 l 1,13,14
 360 458 360 458 295 458 c 128,-1,15
 230 458 230 458 191.5 402 c 128,-1,16
 153 346 153 346 153 239 c 0,17,18
 153 28 153 28 307 28 c 0,19,20
 358 28 358 28 388 42 c 1,21,-1
 423 156 l 1,22,-1
 460 156 l 1,0,-1
179 604 m 1,23,-1
 147 604 l 1,24,-1
 279 750 l 1,25,-1
 413 750 l 1,26,-1
 179 604 l 1,23,-1
EndSplineSet
EndChar

StartChar: Ccircumflex
Encoding: 264 264 196
Width: 758
GlyphClass: 2
Flags: W
LayerCount: 2
Fore
SplineSet
678 241 m 1,0,-1
 678 72 l 1,1,2
 589 -21 589 -21 430 -21 c 128,-1,3
 271 -21 271 -21 165.5 85.5 c 128,-1,4
 60 192 60 192 60 370.5 c 128,-1,5
 60 549 60 549 167 654.5 c 128,-1,6
 274 760 274 760 432.5 760 c 128,-1,7
 591 760 591 760 678 677 c 1,8,-1
 678 515 l 1,9,-1
 626 515 l 1,10,-1
 577 674 l 1,11,12
 522 723 522 723 432 723 c 0,13,14
 318 723 318 723 247 632.5 c 128,-1,15
 176 542 176 542 176 375.5 c 128,-1,16
 176 209 176 209 244.5 114 c 128,-1,17
 313 19 313 19 428 19 c 0,18,19
 521 19 521 19 581 75 c 1,20,-1
 631 241 l 1,21,-1
 678 241 l 1,0,-1
434 965 m 1,22,-1
 589 801 l 1,23,-1
 549 801 l 1,24,-1
 417 876 l 1,25,-1
 293 801 l 1,26,-1
 254 801 l 1,27,-1
 400 965 l 1,28,-1
 434 965 l 1,22,-1
EndSplineSet
EndChar

StartChar: ccircumflex
Encoding: 265 265 197
Width: 515
GlyphClass: 2
Flags: W
LayerCount: 2
Fore
SplineSet
460 156 m 1,0,-1
 460 38 l 1,1,2
 408 -10 408 -10 298.5 -10 c 128,-1,3
 189 -10 189 -10 119.5 56 c 128,-1,4
 50 122 50 122 50 240 c 128,-1,5
 50 358 50 358 121.5 426.5 c 128,-1,6
 193 495 193 495 304 495 c 0,7,8
 350 495 350 495 393 483.5 c 128,-1,9
 436 472 436 472 458 452 c 1,10,-1
 458 328 l 1,11,-1
 421 328 l 1,12,-1
 388 437 l 1,13,14
 360 458 360 458 295 458 c 128,-1,15
 230 458 230 458 191.5 402 c 128,-1,16
 153 346 153 346 153 239 c 0,17,18
 153 28 153 28 307 28 c 0,19,20
 358 28 358 28 388 42 c 1,21,-1
 423 156 l 1,22,-1
 460 156 l 1,0,-1
298 750 m 1,23,-1
 453 586 l 1,24,-1
 413 586 l 1,25,-1
 281 661 l 1,26,-1
 157 586 l 1,27,-1
 118 586 l 1,28,-1
 264 750 l 1,29,-1
 298 750 l 1,23,-1
EndSplineSet
EndChar

StartChar: Cdotaccent
Encoding: 266 266 198
Width: 758
GlyphClass: 2
Flags: W
LayerCount: 2
Fore
SplineSet
678 241 m 1,0,-1
 678 72 l 1,1,2
 589 -21 589 -21 430 -21 c 128,-1,3
 271 -21 271 -21 165.5 85.5 c 128,-1,4
 60 192 60 192 60 370.5 c 128,-1,5
 60 549 60 549 167 654.5 c 128,-1,6
 274 760 274 760 432.5 760 c 128,-1,7
 591 760 591 760 678 677 c 1,8,-1
 678 515 l 1,9,-1
 626 515 l 1,10,-1
 577 674 l 1,11,12
 522 723 522 723 432 723 c 0,13,14
 318 723 318 723 247 632.5 c 128,-1,15
 176 542 176 542 176 375.5 c 128,-1,16
 176 209 176 209 244.5 114 c 128,-1,17
 313 19 313 19 428 19 c 0,18,19
 521 19 521 19 581 75 c 1,20,-1
 631 241 l 1,21,-1
 678 241 l 1,0,-1
379.5 905.5 m 128,-1,23
 397 921 397 921 426.5 921 c 128,-1,24
 456 921 456 921 474 905.5 c 128,-1,25
 492 890 492 890 492 863.5 c 128,-1,26
 492 837 492 837 475 821 c 128,-1,27
 458 805 458 805 427.5 805 c 128,-1,28
 397 805 397 805 379.5 820.5 c 128,-1,29
 362 836 362 836 362 863 c 128,-1,22
 362 890 362 890 379.5 905.5 c 128,-1,23
EndSplineSet
EndChar

StartChar: cdotaccent
Encoding: 267 267 199
Width: 515
GlyphClass: 2
Flags: W
LayerCount: 2
Fore
SplineSet
460 156 m 1,0,-1
 460 38 l 1,1,2
 408 -10 408 -10 298.5 -10 c 128,-1,3
 189 -10 189 -10 119.5 56 c 128,-1,4
 50 122 50 122 50 240 c 128,-1,5
 50 358 50 358 121.5 426.5 c 128,-1,6
 193 495 193 495 304 495 c 0,7,8
 350 495 350 495 393 483.5 c 128,-1,9
 436 472 436 472 458 452 c 1,10,-1
 458 328 l 1,11,-1
 421 328 l 1,12,-1
 388 437 l 1,13,14
 360 458 360 458 295 458 c 128,-1,15
 230 458 230 458 191.5 402 c 128,-1,16
 153 346 153 346 153 239 c 0,17,18
 153 28 153 28 307 28 c 0,19,20
 358 28 358 28 388 42 c 1,21,-1
 423 156 l 1,22,-1
 460 156 l 1,0,-1
253.5 702.5 m 128,-1,24
 271 718 271 718 300.5 718 c 128,-1,25
 330 718 330 718 348 702.5 c 128,-1,26
 366 687 366 687 366 660.5 c 128,-1,27
 366 634 366 634 349 618 c 128,-1,28
 332 602 332 602 301.5 602 c 128,-1,29
 271 602 271 602 253.5 617.5 c 128,-1,30
 236 633 236 633 236 660 c 128,-1,23
 236 687 236 687 253.5 702.5 c 128,-1,24
EndSplineSet
EndChar

StartChar: Ccaron
Encoding: 268 268 200
Width: 758
GlyphClass: 2
Flags: W
LayerCount: 2
Fore
SplineSet
678 241 m 1,0,-1
 678 72 l 1,1,2
 589 -21 589 -21 430 -21 c 128,-1,3
 271 -21 271 -21 165.5 85.5 c 128,-1,4
 60 192 60 192 60 370.5 c 128,-1,5
 60 549 60 549 167 654.5 c 128,-1,6
 274 760 274 760 432.5 760 c 128,-1,7
 591 760 591 760 678 677 c 1,8,-1
 678 515 l 1,9,-1
 626 515 l 1,10,-1
 577 674 l 1,11,12
 522 723 522 723 432 723 c 0,13,14
 318 723 318 723 247 632.5 c 128,-1,15
 176 542 176 542 176 375.5 c 128,-1,16
 176 209 176 209 244.5 114 c 128,-1,17
 313 19 313 19 428 19 c 0,18,19
 521 19 521 19 581 75 c 1,20,-1
 631 241 l 1,21,-1
 678 241 l 1,0,-1
404 801 m 1,22,-1
 252 964 l 1,23,-1
 291 964 l 1,24,-1
 421 891 l 1,25,-1
 547 964 l 1,26,-1
 587 964 l 1,27,-1
 437 801 l 1,28,-1
 404 801 l 1,22,-1
EndSplineSet
EndChar

StartChar: ccaron
Encoding: 269 269 201
Width: 515
GlyphClass: 2
Flags: W
LayerCount: 2
Fore
SplineSet
460 156 m 1,0,-1
 460 38 l 1,1,2
 408 -10 408 -10 298.5 -10 c 128,-1,3
 189 -10 189 -10 119.5 56 c 128,-1,4
 50 122 50 122 50 240 c 128,-1,5
 50 358 50 358 121.5 426.5 c 128,-1,6
 193 495 193 495 304 495 c 0,7,8
 350 495 350 495 393 483.5 c 128,-1,9
 436 472 436 472 458 452 c 1,10,-1
 458 328 l 1,11,-1
 421 328 l 1,12,-1
 388 437 l 1,13,14
 360 458 360 458 295 458 c 128,-1,15
 230 458 230 458 191.5 402 c 128,-1,16
 153 346 153 346 153 239 c 0,17,18
 153 28 153 28 307 28 c 0,19,20
 358 28 358 28 388 42 c 1,21,-1
 423 156 l 1,22,-1
 460 156 l 1,0,-1
274 587 m 1,23,-1
 122 750 l 1,24,-1
 161 750 l 1,25,-1
 291 677 l 1,26,-1
 417 750 l 1,27,-1
 457 750 l 1,28,-1
 307 587 l 1,29,-1
 274 587 l 1,23,-1
EndSplineSet
EndChar

StartChar: Dcaron
Encoding: 270 270 202
Width: 856
GlyphClass: 2
Flags: W
LayerCount: 2
Fore
SplineSet
90 750 m 1,0,-1
 356 750 l 2,1,2
 458 750 458 750 535 731.5 c 128,-1,3
 612 713 612 713 672.5 670.5 c 128,-1,4
 733 628 733 628 764.5 553 c 128,-1,5
 796 478 796 478 796 371 c 128,-1,6
 796 264 796 264 764 190 c 128,-1,7
 732 116 732 116 669 75.5 c 128,-1,8
 606 35 606 35 526.5 17.5 c 128,-1,9
 447 0 447 0 338 0 c 2,10,-1
 90 0 l 1,11,-1
 90 37 l 1,12,-1
 189 60 l 1,13,-1
 189 689 l 1,14,-1
 90 713 l 1,15,-1
 90 750 l 1,0,-1
294 42 m 1,16,-1
 343 42 l 2,17,18
 516 42 516 42 598 116 c 128,-1,19
 680 190 680 190 680 370.5 c 128,-1,20
 680 551 680 551 603 629.5 c 128,-1,21
 526 708 526 708 360 708 c 2,22,-1
 294 708 l 1,23,-1
 294 42 l 1,16,-1
405 801 m 1,24,-1
 253 964 l 1,25,-1
 292 964 l 1,26,-1
 422 891 l 1,27,-1
 548 964 l 1,28,-1
 588 964 l 1,29,-1
 438 801 l 1,30,-1
 405 801 l 1,24,-1
EndSplineSet
EndChar

StartChar: dcaron
Encoding: 271 271 203
Width: 756
GlyphClass: 2
Flags: W
LayerCount: 2
Fore
SplineSet
638 571 m 1,0,-1
 592 571 l 1,1,-1
 659 751 l 1,2,-1
 786 751 l 1,3,-1
 638 571 l 1,0,-1
361 750 m 1,4,-1
 529 750 l 1,5,-1
 529 58 l 1,6,-1
 614 37 l 1,7,-1
 614 0 l 1,8,-1
 440 0 l 1,9,-1
 440 114 l 1,10,11
 404 -10 404 -10 269 -10 c 0,12,13
 175 -10 175 -10 117.5 55 c 128,-1,14
 60 120 60 120 60 239.5 c 128,-1,15
 60 359 60 359 117.5 426 c 128,-1,16
 175 493 175 493 268 493 c 0,17,18
 335 493 335 493 379.5 461 c 128,-1,19
 424 429 424 429 436 377 c 1,20,-1
 436 699 l 1,21,-1
 361 714 l 1,22,-1
 361 750 l 1,4,-1
285 448 m 0,23,24
 161 448 161 448 161 241.5 c 128,-1,25
 161 35 161 35 286 35 c 0,26,27
 353 35 353 35 396.5 91 c 128,-1,28
 440 147 440 147 440 241 c 128,-1,29
 440 335 440 335 396.5 391.5 c 128,-1,30
 353 448 353 448 285 448 c 0,23,24
EndSplineSet
EndChar

StartChar: Dcroat
Encoding: 272 272 204
Width: 802
GlyphClass: 2
Flags: W
LayerCount: 2
Fore
SplineSet
35 406 m 1,0,-1
 135 406 l 1,1,-1
 135 689 l 1,2,-1
 36 713 l 1,3,-1
 36 750 l 1,4,-1
 302 750 l 2,5,6
 404 750 404 750 481 731.5 c 128,-1,7
 558 713 558 713 618.5 670.5 c 128,-1,8
 679 628 679 628 710.5 553 c 128,-1,9
 742 478 742 478 742 371 c 128,-1,10
 742 264 742 264 710 190 c 128,-1,11
 678 116 678 116 615 75.5 c 128,-1,12
 552 35 552 35 472.5 17.5 c 128,-1,13
 393 0 393 0 284 0 c 2,14,-1
 36 0 l 1,15,-1
 36 37 l 1,16,-1
 135 60 l 1,17,-1
 135 360 l 1,18,-1
 35 360 l 1,19,-1
 35 406 l 1,0,-1
240 42 m 1,20,-1
 289 42 l 2,21,22
 462 42 462 42 544 116 c 128,-1,23
 626 190 626 190 626 370.5 c 128,-1,24
 626 551 626 551 549 629.5 c 128,-1,25
 472 708 472 708 306 708 c 2,26,-1
 240 708 l 1,27,-1
 240 406 l 1,28,-1
 440 406 l 1,29,-1
 440 360 l 1,30,-1
 240 360 l 1,31,-1
 240 42 l 1,20,-1
EndSplineSet
EndChar

StartChar: dcroat
Encoding: 273 273 205
Width: 624
GlyphClass: 2
Flags: W
LayerCount: 2
Fore
SplineSet
361 750 m 1,0,-1
 529 750 l 1,1,-1
 529 606 l 1,2,-1
 621 606 l 1,3,-1
 621 564 l 1,4,-1
 529 564 l 1,5,-1
 529 58 l 1,6,-1
 614 37 l 1,7,-1
 614 0 l 1,8,-1
 440 0 l 1,9,-1
 440 114 l 1,10,11
 404 -10 404 -10 269 -10 c 0,12,13
 175 -10 175 -10 117.5 55 c 128,-1,14
 60 120 60 120 60 239.5 c 128,-1,15
 60 359 60 359 117.5 426 c 128,-1,16
 175 493 175 493 268 493 c 0,17,18
 335 493 335 493 379.5 461 c 128,-1,19
 424 429 424 429 436 377 c 1,20,-1
 436 564 l 1,21,-1
 296 564 l 1,22,-1
 296 606 l 1,23,-1
 436 606 l 1,24,-1
 436 699 l 1,25,-1
 361 714 l 1,26,-1
 361 750 l 1,0,-1
285 448 m 0,27,28
 161 448 161 448 161 241.5 c 128,-1,29
 161 35 161 35 286 35 c 0,30,31
 353 35 353 35 396.5 91 c 128,-1,32
 440 147 440 147 440 241 c 128,-1,33
 440 335 440 335 396.5 391.5 c 128,-1,34
 353 448 353 448 285 448 c 0,27,28
EndSplineSet
EndChar

StartChar: Emacron
Encoding: 274 274 206
Width: 700
GlyphClass: 2
Flags: W
LayerCount: 2
Fore
SplineSet
90 750 m 1,0,-1
 641 750 l 1,1,-1
 641 571 l 1,2,-1
 589 571 l 1,3,-1
 550 707 l 1,4,-1
 294 707 l 1,5,-1
 294 408 l 1,6,-1
 487 408 l 1,7,-1
 514 495 l 1,8,-1
 551 495 l 1,9,-1
 551 288 l 1,10,-1
 514 288 l 1,11,-1
 487 364 l 1,12,-1
 294 364 l 1,13,-1
 294 43 l 1,14,-1
 568 43 l 1,15,-1
 607 178 l 1,16,-1
 660 178 l 1,17,-1
 660 0 l 1,18,-1
 90 0 l 1,19,-1
 90 37 l 1,20,-1
 189 60 l 1,21,-1
 189 689 l 1,22,-1
 90 713 l 1,23,-1
 90 750 l 1,0,-1
258 912 m 1,24,-1
 547 912 l 1,25,-1
 547 838 l 1,26,-1
 258 838 l 1,27,-1
 258 912 l 1,24,-1
EndSplineSet
EndChar

StartChar: emacron
Encoding: 275 275 207
Width: 551
GlyphClass: 2
Flags: W
LayerCount: 2
Fore
SplineSet
483 169 m 1,0,-1
 483 55 l 1,1,2
 426 -10 426 -10 299.5 -10 c 128,-1,3
 173 -10 173 -10 112 56.5 c 128,-1,4
 51 123 51 123 51 241 c 128,-1,5
 51 359 51 359 115.5 426.5 c 128,-1,6
 180 494 180 494 289 494 c 0,7,8
 354 494 354 494 397.5 470 c 128,-1,9
 441 446 441 446 460 406 c 0,10,11
 490 340 490 340 490 267 c 1,12,-1
 151 267 l 1,13,14
 151 154 151 154 177 95 c 0,15,16
 207 28 207 28 295 28 c 0,17,18
 326 28 326 28 354.5 36.5 c 128,-1,19
 383 45 383 45 396 53 c 128,-1,20
 409 61 409 61 409 63 c 2,21,-1
 446 169 l 1,22,-1
 483 169 l 1,0,-1
287 455 m 0,23,24
 202 455 202 455 171 377 c 1,25,26
 156 342 156 342 153 300 c 1,27,-1
 403 300 l 1,28,29
 403 455 403 455 287 455 c 0,23,24
141 688 m 1,30,-1
 430 688 l 1,31,-1
 430 614 l 1,32,-1
 141 614 l 1,33,-1
 141 688 l 1,30,-1
EndSplineSet
EndChar

StartChar: Ebreve
Encoding: 276 276 208
Width: 700
GlyphClass: 2
Flags: W
LayerCount: 2
Fore
SplineSet
90 750 m 1,0,-1
 641 750 l 1,1,-1
 641 571 l 1,2,-1
 589 571 l 1,3,-1
 550 707 l 1,4,-1
 294 707 l 1,5,-1
 294 408 l 1,6,-1
 487 408 l 1,7,-1
 514 495 l 1,8,-1
 551 495 l 1,9,-1
 551 288 l 1,10,-1
 514 288 l 1,11,-1
 487 364 l 1,12,-1
 294 364 l 1,13,-1
 294 43 l 1,14,-1
 568 43 l 1,15,-1
 607 178 l 1,16,-1
 660 178 l 1,17,-1
 660 0 l 1,18,-1
 90 0 l 1,19,-1
 90 37 l 1,20,-1
 189 60 l 1,21,-1
 189 689 l 1,22,-1
 90 713 l 1,23,-1
 90 750 l 1,0,-1
550 957 m 1,24,-1
 580 957 l 1,25,26
 580 883 580 883 530 842 c 128,-1,27
 480 801 480 801 411 801 c 128,-1,28
 342 801 342 801 291.5 842 c 128,-1,29
 241 883 241 883 241 957 c 1,30,-1
 273 957 l 1,31,32
 273 917 273 917 314.5 894 c 128,-1,33
 356 871 356 871 411.5 871 c 128,-1,34
 467 871 467 871 508.5 894 c 128,-1,35
 550 917 550 917 550 957 c 1,24,-1
EndSplineSet
EndChar

StartChar: ebreve
Encoding: 277 277 209
Width: 551
GlyphClass: 2
Flags: W
LayerCount: 2
Fore
SplineSet
483 169 m 1,0,-1
 483 55 l 1,1,2
 426 -10 426 -10 299.5 -10 c 128,-1,3
 173 -10 173 -10 112 56.5 c 128,-1,4
 51 123 51 123 51 241 c 128,-1,5
 51 359 51 359 115.5 426.5 c 128,-1,6
 180 494 180 494 289 494 c 0,7,8
 354 494 354 494 397.5 470 c 128,-1,9
 441 446 441 446 460 406 c 0,10,11
 490 340 490 340 490 267 c 1,12,-1
 151 267 l 1,13,14
 151 154 151 154 177 95 c 0,15,16
 207 28 207 28 295 28 c 0,17,18
 326 28 326 28 354.5 36.5 c 128,-1,19
 383 45 383 45 396 53 c 128,-1,20
 409 61 409 61 409 63 c 2,21,-1
 446 169 l 1,22,-1
 483 169 l 1,0,-1
287 455 m 0,23,24
 202 455 202 455 171 377 c 1,25,26
 156 342 156 342 153 300 c 1,27,-1
 403 300 l 1,28,29
 403 455 403 455 287 455 c 0,23,24
422 750 m 1,30,-1
 452 750 l 1,31,32
 452 676 452 676 402 635 c 128,-1,33
 352 594 352 594 283 594 c 128,-1,34
 214 594 214 594 163.5 635 c 128,-1,35
 113 676 113 676 113 750 c 1,36,-1
 145 750 l 1,37,38
 145 710 145 710 186.5 687 c 128,-1,39
 228 664 228 664 283.5 664 c 128,-1,40
 339 664 339 664 380.5 687 c 128,-1,41
 422 710 422 710 422 750 c 1,30,-1
EndSplineSet
EndChar

StartChar: Edotaccent
Encoding: 278 278 210
Width: 700
GlyphClass: 2
Flags: W
LayerCount: 2
Fore
SplineSet
90 750 m 1,0,-1
 641 750 l 1,1,-1
 641 571 l 1,2,-1
 589 571 l 1,3,-1
 550 707 l 1,4,-1
 294 707 l 1,5,-1
 294 408 l 1,6,-1
 487 408 l 1,7,-1
 514 495 l 1,8,-1
 551 495 l 1,9,-1
 551 288 l 1,10,-1
 514 288 l 1,11,-1
 487 364 l 1,12,-1
 294 364 l 1,13,-1
 294 43 l 1,14,-1
 568 43 l 1,15,-1
 607 178 l 1,16,-1
 660 178 l 1,17,-1
 660 0 l 1,18,-1
 90 0 l 1,19,-1
 90 37 l 1,20,-1
 189 60 l 1,21,-1
 189 689 l 1,22,-1
 90 713 l 1,23,-1
 90 750 l 1,0,-1
359.5 925.5 m 128,-1,25
 377 941 377 941 406.5 941 c 128,-1,26
 436 941 436 941 454 925.5 c 128,-1,27
 472 910 472 910 472 883.5 c 128,-1,28
 472 857 472 857 455 841 c 128,-1,29
 438 825 438 825 407.5 825 c 128,-1,30
 377 825 377 825 359.5 840.5 c 128,-1,31
 342 856 342 856 342 883 c 128,-1,24
 342 910 342 910 359.5 925.5 c 128,-1,25
EndSplineSet
EndChar

StartChar: edotaccent
Encoding: 279 279 211
Width: 551
GlyphClass: 2
Flags: W
LayerCount: 2
Fore
SplineSet
483 169 m 1,0,-1
 483 55 l 1,1,2
 426 -10 426 -10 299.5 -10 c 128,-1,3
 173 -10 173 -10 112 56.5 c 128,-1,4
 51 123 51 123 51 241 c 128,-1,5
 51 359 51 359 115.5 426.5 c 128,-1,6
 180 494 180 494 289 494 c 0,7,8
 354 494 354 494 397.5 470 c 128,-1,9
 441 446 441 446 460 406 c 0,10,11
 490 340 490 340 490 267 c 1,12,-1
 151 267 l 1,13,14
 151 154 151 154 177 95 c 0,15,16
 207 28 207 28 295 28 c 0,17,18
 326 28 326 28 354.5 36.5 c 128,-1,19
 383 45 383 45 396 53 c 128,-1,20
 409 61 409 61 409 63 c 2,21,-1
 446 169 l 1,22,-1
 483 169 l 1,0,-1
287 455 m 0,23,24
 202 455 202 455 171 377 c 1,25,26
 156 342 156 342 153 300 c 1,27,-1
 403 300 l 1,28,29
 403 455 403 455 287 455 c 0,23,24
240.5 718.5 m 128,-1,31
 258 734 258 734 287.5 734 c 128,-1,32
 317 734 317 734 335 718.5 c 128,-1,33
 353 703 353 703 353 676.5 c 128,-1,34
 353 650 353 650 336 634 c 128,-1,35
 319 618 319 618 288.5 618 c 128,-1,36
 258 618 258 618 240.5 633.5 c 128,-1,37
 223 649 223 649 223 676 c 128,-1,30
 223 703 223 703 240.5 718.5 c 128,-1,31
EndSplineSet
EndChar

StartChar: Eogonek
Encoding: 280 280 212
Width: 700
GlyphClass: 2
Flags: W
LayerCount: 2
Fore
SplineSet
536.5 -191 m 128,-1,1
 492 -155 492 -155 492 -111.5 c 128,-1,2
 492 -68 492 -68 520 -38.5 c 128,-1,3
 548 -9 548 -9 600 0 c 1,4,-1
 90 0 l 1,5,-1
 90 37 l 1,6,-1
 189 60 l 1,7,-1
 189 689 l 1,8,-1
 90 713 l 1,9,-1
 90 750 l 1,10,-1
 641 750 l 1,11,-1
 641 571 l 1,12,-1
 589 571 l 1,13,-1
 550 707 l 1,14,-1
 294 707 l 1,15,-1
 294 408 l 1,16,-1
 487 408 l 1,17,-1
 514 495 l 1,18,-1
 551 495 l 1,19,-1
 551 288 l 1,20,-1
 514 288 l 1,21,-1
 487 364 l 1,22,-1
 294 364 l 1,23,-1
 294 43 l 1,24,-1
 568 43 l 1,25,-1
 607 178 l 1,26,-1
 660 178 l 1,27,-1
 660 0 l 1,28,-1
 629 0 l 1,29,30
 598 -12 598 -12 580.5 -41.5 c 128,-1,31
 563 -71 563 -71 563 -107 c 128,-1,32
 563 -143 563 -143 586 -168.5 c 128,-1,33
 609 -194 609 -194 654 -195 c 1,34,-1
 660 -227 l 1,35,0
 581 -227 581 -227 536.5 -191 c 128,-1,1
EndSplineSet
EndChar

StartChar: eogonek
Encoding: 281 281 213
Width: 551
GlyphClass: 2
Flags: W
LayerCount: 2
Fore
SplineSet
235 -110 m 0,0,1
 235 -39 235 -39 314 -10 c 1,2,3
 195 -8 195 -8 136 58 c 128,-1,4
 77 124 77 124 77 241.5 c 128,-1,5
 77 359 77 359 141.5 426.5 c 128,-1,6
 206 494 206 494 315 494 c 0,7,8
 380 494 380 494 423.5 470 c 128,-1,9
 467 446 467 446 486 406 c 0,10,11
 516 340 516 340 516 267 c 1,12,-1
 177 267 l 1,13,14
 177 154 177 154 203 95 c 0,15,16
 233 28 233 28 321 28 c 0,17,18
 352 28 352 28 380.5 36.5 c 128,-1,19
 409 45 409 45 422 53 c 128,-1,20
 435 61 435 61 435 63 c 2,21,-1
 472 169 l 1,22,-1
 509 169 l 1,23,-1
 509 55 l 1,24,25
 463 3 463 3 361 -8 c 1,26,27
 335 -23 335 -23 320.5 -50.5 c 128,-1,28
 306 -78 306 -78 306 -112 c 128,-1,29
 306 -146 306 -146 329 -171.5 c 128,-1,30
 352 -197 352 -197 397 -198 c 1,31,-1
 403 -230 l 1,32,33
 324 -230 324 -230 279.5 -194 c 128,-1,34
 235 -158 235 -158 235 -110 c 0,0,1
313 455 m 0,35,36
 228 455 228 455 197 377 c 1,37,38
 182 342 182 342 179 300 c 1,39,-1
 429 300 l 1,40,41
 429 455 429 455 313 455 c 0,35,36
EndSplineSet
EndChar

StartChar: Ecaron
Encoding: 282 282 214
Width: 700
GlyphClass: 2
Flags: W
LayerCount: 2
Fore
SplineSet
90 750 m 1,0,-1
 641 750 l 1,1,-1
 641 571 l 1,2,-1
 589 571 l 1,3,-1
 550 707 l 1,4,-1
 294 707 l 1,5,-1
 294 408 l 1,6,-1
 487 408 l 1,7,-1
 514 495 l 1,8,-1
 551 495 l 1,9,-1
 551 288 l 1,10,-1
 514 288 l 1,11,-1
 487 364 l 1,12,-1
 294 364 l 1,13,-1
 294 43 l 1,14,-1
 568 43 l 1,15,-1
 607 178 l 1,16,-1
 660 178 l 1,17,-1
 660 0 l 1,18,-1
 90 0 l 1,19,-1
 90 37 l 1,20,-1
 189 60 l 1,21,-1
 189 689 l 1,22,-1
 90 713 l 1,23,-1
 90 750 l 1,0,-1
388 801 m 1,24,-1
 236 964 l 1,25,-1
 275 964 l 1,26,-1
 405 891 l 1,27,-1
 531 964 l 1,28,-1
 571 964 l 1,29,-1
 421 801 l 1,30,-1
 388 801 l 1,24,-1
EndSplineSet
EndChar

StartChar: ecaron
Encoding: 283 283 215
Width: 551
GlyphClass: 2
Flags: W
LayerCount: 2
Fore
SplineSet
483 169 m 1,0,-1
 483 55 l 1,1,2
 426 -10 426 -10 299.5 -10 c 128,-1,3
 173 -10 173 -10 112 56.5 c 128,-1,4
 51 123 51 123 51 241 c 128,-1,5
 51 359 51 359 115.5 426.5 c 128,-1,6
 180 494 180 494 289 494 c 0,7,8
 354 494 354 494 397.5 470 c 128,-1,9
 441 446 441 446 460 406 c 0,10,11
 490 340 490 340 490 267 c 1,12,-1
 151 267 l 1,13,14
 151 154 151 154 177 95 c 0,15,16
 207 28 207 28 295 28 c 0,17,18
 326 28 326 28 354.5 36.5 c 128,-1,19
 383 45 383 45 396 53 c 128,-1,20
 409 61 409 61 409 63 c 2,21,-1
 446 169 l 1,22,-1
 483 169 l 1,0,-1
287 455 m 0,23,24
 202 455 202 455 171 377 c 1,25,26
 156 342 156 342 153 300 c 1,27,-1
 403 300 l 1,28,29
 403 455 403 455 287 455 c 0,23,24
271 587 m 1,30,-1
 119 750 l 1,31,-1
 158 750 l 1,32,-1
 288 677 l 1,33,-1
 414 750 l 1,34,-1
 454 750 l 1,35,-1
 304 587 l 1,36,-1
 271 587 l 1,30,-1
EndSplineSet
EndChar

StartChar: Gcircumflex
Encoding: 284 284 216
Width: 802
GlyphClass: 2
Flags: W
LayerCount: 2
Fore
SplineSet
493 324 m 1,0,-1
 802 324 l 1,1,-1
 802 287 l 1,2,-1
 703 264 l 1,3,-1
 703 36 l 1,4,5
 652 13 652 13 572 0 c 128,-1,6
 492 -13 492 -13 425 -13 c 0,7,8
 250 -13 250 -13 155 90 c 128,-1,9
 60 193 60 193 60 372 c 128,-1,10
 60 551 60 551 153 658.5 c 128,-1,11
 246 766 246 766 416 766 c 0,12,13
 485 766 485 766 559 747.5 c 128,-1,14
 633 729 633 729 681 684 c 1,15,-1
 681 515 l 1,16,-1
 629 515 l 1,17,-1
 580 681 l 1,18,19
 536 728 536 728 414 728 c 128,-1,20
 292 728 292 728 234 637 c 128,-1,21
 176 546 176 546 176 380 c 0,22,23
 176 27 176 27 423 27 c 0,24,25
 501 27 501 27 598 51 c 1,26,-1
 598 264 l 1,27,-1
 493 287 l 1,28,-1
 493 324 l 1,0,-1
444 965 m 1,29,-1
 599 801 l 1,30,-1
 559 801 l 1,31,-1
 427 876 l 1,32,-1
 303 801 l 1,33,-1
 264 801 l 1,34,-1
 410 965 l 1,35,-1
 444 965 l 1,29,-1
EndSplineSet
EndChar

StartChar: gcircumflex
Encoding: 285 285 217
Width: 535
GlyphClass: 2
Flags: W
LayerCount: 2
Fore
SplineSet
138 -57 m 1,0,1
 90 -105 90 -105 90 -162 c 128,-1,2
 90 -219 90 -219 135.5 -256.5 c 128,-1,3
 181 -294 181 -294 264.5 -294 c 128,-1,4
 348 -294 348 -294 402.5 -257.5 c 128,-1,5
 457 -221 457 -221 457 -162 c 0,6,7
 457 -92 457 -92 361 -84 c 2,8,-1
 219 -73 l 2,9,10
 166 -69 166 -69 138 -57 c 1,0,1
262 456 m 0,11,12
 152 456 152 456 152 307 c 0,13,14
 152 230 152 230 179 194 c 128,-1,15
 206 158 206 158 263 158 c 0,16,17
 376 158 376 158 376 304 c 0,18,19
 376 385 376 385 349 420.5 c 128,-1,20
 322 456 322 456 262 456 c 0,11,12
529 483 m 1,21,-1
 529 448 l 1,22,-1
 439 413 l 1,23,24
 469 369 469 369 469 306 c 0,25,26
 469 221 469 221 410 171 c 128,-1,27
 351 121 351 121 260 121 c 0,28,29
 231 121 231 121 193 129 c 1,30,31
 144 102 144 102 144 71.5 c 128,-1,32
 144 41 144 41 161.5 29 c 128,-1,33
 179 17 179 17 242 11 c 2,34,-1
 341 3 l 1,35,36
 433 1 433 1 473 -33 c 128,-1,37
 513 -67 513 -67 513 -135 c 0,38,39
 513 -227 513 -227 441 -278 c 128,-1,40
 369 -329 369 -329 258 -329 c 128,-1,41
 147 -329 147 -329 86 -288 c 128,-1,42
 25 -247 25 -247 25 -171.5 c 128,-1,43
 25 -96 25 -96 116 -47 c 1,44,45
 76 -13 76 -13 76 29 c 128,-1,46
 76 71 76 71 95 93 c 128,-1,47
 114 115 114 115 164 138 c 1,48,49
 60 191 60 191 60 307 c 0,50,51
 60 393 60 393 115 444.5 c 128,-1,52
 170 496 170 496 263 496 c 0,53,54
 308 496 308 496 359 483 c 1,55,-1
 529 483 l 1,21,-1
280 750 m 1,56,-1
 435 586 l 1,57,-1
 395 586 l 1,58,-1
 263 661 l 1,59,-1
 139 586 l 1,60,-1
 100 586 l 1,61,-1
 246 750 l 1,62,-1
 280 750 l 1,56,-1
EndSplineSet
EndChar

StartChar: Gbreve
Encoding: 286 286 218
Width: 802
GlyphClass: 2
Flags: W
LayerCount: 2
Fore
SplineSet
493 324 m 1,0,-1
 802 324 l 1,1,-1
 802 287 l 1,2,-1
 703 264 l 1,3,-1
 703 36 l 1,4,5
 652 13 652 13 572 0 c 128,-1,6
 492 -13 492 -13 425 -13 c 0,7,8
 250 -13 250 -13 155 90 c 128,-1,9
 60 193 60 193 60 372 c 128,-1,10
 60 551 60 551 153 658.5 c 128,-1,11
 246 766 246 766 416 766 c 0,12,13
 485 766 485 766 559 747.5 c 128,-1,14
 633 729 633 729 681 684 c 1,15,-1
 681 515 l 1,16,-1
 629 515 l 1,17,-1
 580 681 l 1,18,19
 536 728 536 728 414 728 c 128,-1,20
 292 728 292 728 234 637 c 128,-1,21
 176 546 176 546 176 380 c 0,22,23
 176 27 176 27 423 27 c 0,24,25
 501 27 501 27 598 51 c 1,26,-1
 598 264 l 1,27,-1
 493 287 l 1,28,-1
 493 324 l 1,0,-1
558 957 m 1,29,-1
 588 957 l 1,30,31
 588 883 588 883 538 842 c 128,-1,32
 488 801 488 801 419 801 c 128,-1,33
 350 801 350 801 299.5 842 c 128,-1,34
 249 883 249 883 249 957 c 1,35,-1
 281 957 l 1,36,37
 281 917 281 917 322.5 894 c 128,-1,38
 364 871 364 871 419.5 871 c 128,-1,39
 475 871 475 871 516.5 894 c 128,-1,40
 558 917 558 917 558 957 c 1,29,-1
EndSplineSet
EndChar

StartChar: gbreve
Encoding: 287 287 219
Width: 535
GlyphClass: 2
Flags: W
LayerCount: 2
Fore
SplineSet
138 -57 m 1,0,1
 90 -105 90 -105 90 -162 c 128,-1,2
 90 -219 90 -219 135.5 -256.5 c 128,-1,3
 181 -294 181 -294 264.5 -294 c 128,-1,4
 348 -294 348 -294 402.5 -257.5 c 128,-1,5
 457 -221 457 -221 457 -162 c 0,6,7
 457 -92 457 -92 361 -84 c 2,8,-1
 219 -73 l 2,9,10
 166 -69 166 -69 138 -57 c 1,0,1
262 456 m 0,11,12
 152 456 152 456 152 307 c 0,13,14
 152 230 152 230 179 194 c 128,-1,15
 206 158 206 158 263 158 c 0,16,17
 376 158 376 158 376 304 c 0,18,19
 376 385 376 385 349 420.5 c 128,-1,20
 322 456 322 456 262 456 c 0,11,12
529 483 m 1,21,-1
 529 448 l 1,22,-1
 439 413 l 1,23,24
 469 369 469 369 469 306 c 0,25,26
 469 221 469 221 410 171 c 128,-1,27
 351 121 351 121 260 121 c 0,28,29
 231 121 231 121 193 129 c 1,30,31
 144 102 144 102 144 71.5 c 128,-1,32
 144 41 144 41 161.5 29 c 128,-1,33
 179 17 179 17 242 11 c 2,34,-1
 341 3 l 1,35,36
 433 1 433 1 473 -33 c 128,-1,37
 513 -67 513 -67 513 -135 c 0,38,39
 513 -227 513 -227 441 -278 c 128,-1,40
 369 -329 369 -329 258 -329 c 128,-1,41
 147 -329 147 -329 86 -288 c 128,-1,42
 25 -247 25 -247 25 -171.5 c 128,-1,43
 25 -96 25 -96 116 -47 c 1,44,45
 76 -13 76 -13 76 29 c 128,-1,46
 76 71 76 71 95 93 c 128,-1,47
 114 115 114 115 164 138 c 1,48,49
 60 191 60 191 60 307 c 0,50,51
 60 393 60 393 115 444.5 c 128,-1,52
 170 496 170 496 263 496 c 0,53,54
 308 496 308 496 359 483 c 1,55,-1
 529 483 l 1,21,-1
404 750 m 1,56,-1
 434 750 l 1,57,58
 434 676 434 676 384 635 c 128,-1,59
 334 594 334 594 265 594 c 128,-1,60
 196 594 196 594 145.5 635 c 128,-1,61
 95 676 95 676 95 750 c 1,62,-1
 127 750 l 1,63,64
 127 710 127 710 168.5 687 c 128,-1,65
 210 664 210 664 265.5 664 c 128,-1,66
 321 664 321 664 362.5 687 c 128,-1,67
 404 710 404 710 404 750 c 1,56,-1
EndSplineSet
EndChar

StartChar: Gdotaccent
Encoding: 288 288 220
Width: 802
GlyphClass: 2
Flags: W
LayerCount: 2
Fore
SplineSet
493 324 m 1,0,-1
 802 324 l 1,1,-1
 802 287 l 1,2,-1
 703 264 l 1,3,-1
 703 36 l 1,4,5
 652 13 652 13 572 0 c 128,-1,6
 492 -13 492 -13 425 -13 c 0,7,8
 250 -13 250 -13 155 90 c 128,-1,9
 60 193 60 193 60 372 c 128,-1,10
 60 551 60 551 153 658.5 c 128,-1,11
 246 766 246 766 416 766 c 0,12,13
 485 766 485 766 559 747.5 c 128,-1,14
 633 729 633 729 681 684 c 1,15,-1
 681 515 l 1,16,-1
 629 515 l 1,17,-1
 580 681 l 1,18,19
 536 728 536 728 414 728 c 128,-1,20
 292 728 292 728 234 637 c 128,-1,21
 176 546 176 546 176 380 c 0,22,23
 176 27 176 27 423 27 c 0,24,25
 501 27 501 27 598 51 c 1,26,-1
 598 264 l 1,27,-1
 493 287 l 1,28,-1
 493 324 l 1,0,-1
376.5 954.5 m 128,-1,30
 394 970 394 970 423.5 970 c 128,-1,31
 453 970 453 970 471 954.5 c 128,-1,32
 489 939 489 939 489 912.5 c 128,-1,33
 489 886 489 886 472 870 c 128,-1,34
 455 854 455 854 424.5 854 c 128,-1,35
 394 854 394 854 376.5 869.5 c 128,-1,36
 359 885 359 885 359 912 c 128,-1,29
 359 939 359 939 376.5 954.5 c 128,-1,30
EndSplineSet
EndChar

StartChar: gdotaccent
Encoding: 289 289 221
Width: 535
GlyphClass: 2
Flags: W
LayerCount: 2
Fore
SplineSet
138 -57 m 1,0,1
 90 -105 90 -105 90 -162 c 128,-1,2
 90 -219 90 -219 135.5 -256.5 c 128,-1,3
 181 -294 181 -294 264.5 -294 c 128,-1,4
 348 -294 348 -294 402.5 -257.5 c 128,-1,5
 457 -221 457 -221 457 -162 c 0,6,7
 457 -92 457 -92 361 -84 c 2,8,-1
 219 -73 l 2,9,10
 166 -69 166 -69 138 -57 c 1,0,1
262 456 m 0,11,12
 152 456 152 456 152 307 c 0,13,14
 152 230 152 230 179 194 c 128,-1,15
 206 158 206 158 263 158 c 0,16,17
 376 158 376 158 376 304 c 0,18,19
 376 385 376 385 349 420.5 c 128,-1,20
 322 456 322 456 262 456 c 0,11,12
529 483 m 1,21,-1
 529 448 l 1,22,-1
 439 413 l 1,23,24
 469 369 469 369 469 306 c 0,25,26
 469 221 469 221 410 171 c 128,-1,27
 351 121 351 121 260 121 c 0,28,29
 231 121 231 121 193 129 c 1,30,31
 144 102 144 102 144 71.5 c 128,-1,32
 144 41 144 41 161.5 29 c 128,-1,33
 179 17 179 17 242 11 c 2,34,-1
 341 3 l 1,35,36
 433 1 433 1 473 -33 c 128,-1,37
 513 -67 513 -67 513 -135 c 0,38,39
 513 -227 513 -227 441 -278 c 128,-1,40
 369 -329 369 -329 258 -329 c 128,-1,41
 147 -329 147 -329 86 -288 c 128,-1,42
 25 -247 25 -247 25 -171.5 c 128,-1,43
 25 -96 25 -96 116 -47 c 1,44,45
 76 -13 76 -13 76 29 c 128,-1,46
 76 71 76 71 95 93 c 128,-1,47
 114 115 114 115 164 138 c 1,48,49
 60 191 60 191 60 307 c 0,50,51
 60 393 60 393 115 444.5 c 128,-1,52
 170 496 170 496 263 496 c 0,53,54
 308 496 308 496 359 483 c 1,55,-1
 529 483 l 1,21,-1
88.5 740.5 m 128,-1,57
 106 756 106 756 135.5 756 c 128,-1,58
 165 756 165 756 183 740.5 c 128,-1,59
 201 725 201 725 201 698.5 c 128,-1,60
 201 672 201 672 184 656 c 128,-1,61
 167 640 167 640 136.5 640 c 128,-1,62
 106 640 106 640 88.5 655.5 c 128,-1,63
 71 671 71 671 71 698 c 128,-1,56
 71 725 71 725 88.5 740.5 c 128,-1,57
EndSplineSet
EndChar

StartChar: uni0122
Encoding: 290 290 222
Width: 802
GlyphClass: 2
Flags: W
LayerCount: 2
Fore
SplineSet
347 -257 m 1,0,-1
 301 -257 l 1,1,-1
 368 -77 l 1,2,-1
 495 -77 l 1,3,-1
 347 -257 l 1,0,-1
493 324 m 1,4,-1
 802 324 l 1,5,-1
 802 287 l 1,6,-1
 703 264 l 1,7,-1
 703 36 l 1,8,9
 652 13 652 13 572 0 c 128,-1,10
 492 -13 492 -13 425 -13 c 0,11,12
 250 -13 250 -13 155 90 c 128,-1,13
 60 193 60 193 60 372 c 128,-1,14
 60 551 60 551 153 658.5 c 128,-1,15
 246 766 246 766 416 766 c 0,16,17
 485 766 485 766 559 747.5 c 128,-1,18
 633 729 633 729 681 684 c 1,19,-1
 681 515 l 1,20,-1
 629 515 l 1,21,-1
 580 681 l 1,22,23
 536 728 536 728 414 728 c 128,-1,24
 292 728 292 728 234 637 c 128,-1,25
 176 546 176 546 176 380 c 0,26,27
 176 27 176 27 423 27 c 0,28,29
 501 27 501 27 598 51 c 1,30,-1
 598 264 l 1,31,-1
 493 287 l 1,32,-1
 493 324 l 1,4,-1
EndSplineSet
EndChar

StartChar: uni0123
Encoding: 291 291 223
Width: 535
GlyphClass: 2
Flags: W
LayerCount: 2
Fore
SplineSet
313 749 m 1,0,-1
 359 749 l 1,1,-1
 292 569 l 1,2,-1
 165 569 l 1,3,-1
 313 749 l 1,0,-1
138 -57 m 1,4,5
 90 -105 90 -105 90 -162 c 128,-1,6
 90 -219 90 -219 135.5 -256.5 c 128,-1,7
 181 -294 181 -294 264.5 -294 c 128,-1,8
 348 -294 348 -294 402.5 -257.5 c 128,-1,9
 457 -221 457 -221 457 -162 c 0,10,11
 457 -92 457 -92 361 -84 c 2,12,-1
 219 -73 l 2,13,14
 166 -69 166 -69 138 -57 c 1,4,5
262 456 m 0,15,16
 152 456 152 456 152 307 c 0,17,18
 152 230 152 230 179 194 c 128,-1,19
 206 158 206 158 263 158 c 0,20,21
 376 158 376 158 376 304 c 0,22,23
 376 385 376 385 349 420.5 c 128,-1,24
 322 456 322 456 262 456 c 0,15,16
529 483 m 1,25,-1
 529 448 l 1,26,-1
 439 413 l 1,27,28
 469 369 469 369 469 306 c 0,29,30
 469 221 469 221 410 171 c 128,-1,31
 351 121 351 121 260 121 c 0,32,33
 231 121 231 121 193 129 c 1,34,35
 144 102 144 102 144 71.5 c 128,-1,36
 144 41 144 41 161.5 29 c 128,-1,37
 179 17 179 17 242 11 c 2,38,-1
 341 3 l 1,39,40
 433 1 433 1 473 -33 c 128,-1,41
 513 -67 513 -67 513 -135 c 0,42,43
 513 -227 513 -227 441 -278 c 128,-1,44
 369 -329 369 -329 258 -329 c 128,-1,45
 147 -329 147 -329 86 -288 c 128,-1,46
 25 -247 25 -247 25 -171.5 c 128,-1,47
 25 -96 25 -96 116 -47 c 1,48,49
 76 -13 76 -13 76 29 c 128,-1,50
 76 71 76 71 95 93 c 128,-1,51
 114 115 114 115 164 138 c 1,52,53
 60 191 60 191 60 307 c 0,54,55
 60 393 60 393 115 444.5 c 128,-1,56
 170 496 170 496 263 496 c 0,57,58
 308 496 308 496 359 483 c 1,59,-1
 529 483 l 1,25,-1
EndSplineSet
EndChar

StartChar: Hcircumflex
Encoding: 292 292 224
Width: 957
GlyphClass: 2
Flags: W
LayerCount: 2
Fore
SplineSet
563 0 m 1,0,-1
 563 37 l 1,1,-1
 661 59 l 1,2,-1
 661 360 l 1,3,-1
 295 360 l 1,4,-1
 295 59 l 1,5,-1
 395 37 l 1,6,-1
 395 0 l 1,7,-1
 90 0 l 1,8,-1
 90 37 l 1,9,-1
 190 59 l 1,10,-1
 190 689 l 1,11,-1
 90 713 l 1,12,-1
 90 750 l 1,13,-1
 395 750 l 1,14,-1
 395 713 l 1,15,-1
 295 689 l 1,16,-1
 295 405 l 1,17,-1
 661 405 l 1,18,-1
 661 689 l 1,19,-1
 563 713 l 1,20,-1
 563 750 l 1,21,-1
 867 750 l 1,22,-1
 867 713 l 1,23,-1
 766 690 l 1,24,-1
 766 60 l 1,25,-1
 867 37 l 1,26,-1
 867 0 l 1,27,-1
 563 0 l 1,0,-1
491 965 m 1,28,-1
 646 801 l 1,29,-1
 606 801 l 1,30,-1
 474 876 l 1,31,-1
 350 801 l 1,32,-1
 311 801 l 1,33,-1
 457 965 l 1,34,-1
 491 965 l 1,28,-1
EndSplineSet
EndChar

StartChar: hcircumflex
Encoding: 293 293 225
Width: 630
GlyphClass: 2
Flags: W
LayerCount: 2
Fore
SplineSet
46 750 m 1,0,-1
 208 750 l 1,1,-1
 208 363 l 1,2,3
 242 493 242 493 379 493 c 0,4,5
 456 493 456 493 499 448.5 c 128,-1,6
 542 404 542 404 542 317 c 2,7,-1
 542 58 l 1,8,-1
 615 37 l 1,9,-1
 615 0 l 1,10,-1
 378 0 l 1,11,-1
 378 37 l 1,12,-1
 447 58 l 1,13,-1
 447 315 l 2,14,15
 447 385 447 385 425 415 c 128,-1,16
 403 445 403 445 357 445 c 0,17,18
 286 445 286 445 247 380 c 128,-1,19
 208 315 208 315 208 182 c 2,20,-1
 208 57 l 1,21,-1
 277 37 l 1,22,-1
 277 0 l 1,23,-1
 40 0 l 1,24,-1
 40 37 l 1,25,-1
 113 59 l 1,26,-1
 113 702 l 1,27,-1
 46 714 l 1,28,-1
 46 750 l 1,0,-1
409 750 m 1,29,-1
 564 586 l 1,30,-1
 524 586 l 1,31,-1
 392 661 l 1,32,-1
 268 586 l 1,33,-1
 229 586 l 1,34,-1
 375 750 l 1,35,-1
 409 750 l 1,29,-1
EndSplineSet
EndChar

StartChar: Hbar
Encoding: 294 294 226
Width: 958
GlyphClass: 2
Flags: W
LayerCount: 2
Fore
SplineSet
91 544 m 1,0,-1
 91 588 l 1,1,-1
 190 588 l 1,2,-1
 190 689 l 1,3,-1
 90 713 l 1,4,-1
 90 750 l 1,5,-1
 395 750 l 1,6,-1
 395 713 l 1,7,-1
 295 689 l 1,8,-1
 295 588 l 1,9,-1
 661 588 l 1,10,-1
 661 689 l 1,11,-1
 563 713 l 1,12,-1
 563 750 l 1,13,-1
 867 750 l 1,14,-1
 867 713 l 1,15,-1
 766 690 l 1,16,-1
 766 588 l 1,17,-1
 868 588 l 1,18,-1
 868 544 l 1,19,-1
 766 544 l 1,20,-1
 766 60 l 1,21,-1
 867 37 l 1,22,-1
 867 0 l 1,23,-1
 563 0 l 1,24,-1
 563 37 l 1,25,-1
 661 59 l 1,26,-1
 661 360 l 1,27,-1
 295 360 l 1,28,-1
 295 59 l 1,29,-1
 395 37 l 1,30,-1
 395 0 l 1,31,-1
 90 0 l 1,32,-1
 90 37 l 1,33,-1
 190 59 l 1,34,-1
 190 544 l 1,35,-1
 91 544 l 1,0,-1
295 405 m 1,36,-1
 661 405 l 1,37,-1
 661 544 l 1,38,-1
 295 544 l 1,39,-1
 295 405 l 1,36,-1
EndSplineSet
EndChar

StartChar: hbar
Encoding: 295 295 227
Width: 630
GlyphClass: 2
Flags: W
LayerCount: 2
Fore
SplineSet
46 750 m 1,0,-1
 208 750 l 1,1,-1
 208 606 l 1,2,-1
 345 606 l 1,3,-1
 345 564 l 1,4,-1
 208 564 l 1,5,-1
 208 363 l 1,6,7
 242 493 242 493 379 493 c 0,8,9
 456 493 456 493 499 448.5 c 128,-1,10
 542 404 542 404 542 317 c 2,11,-1
 542 58 l 1,12,-1
 615 37 l 1,13,-1
 615 0 l 1,14,-1
 378 0 l 1,15,-1
 378 37 l 1,16,-1
 447 58 l 1,17,-1
 447 315 l 2,18,19
 447 385 447 385 425 415 c 128,-1,20
 403 445 403 445 357 445 c 0,21,22
 286 445 286 445 247 380 c 128,-1,23
 208 315 208 315 208 182 c 2,24,-1
 208 57 l 1,25,-1
 277 37 l 1,26,-1
 277 0 l 1,27,-1
 40 0 l 1,28,-1
 40 37 l 1,29,-1
 113 59 l 1,30,-1
 113 564 l 1,31,-1
 20 564 l 1,32,-1
 20 606 l 1,33,-1
 113 606 l 1,34,-1
 113 702 l 1,35,-1
 46 714 l 1,36,-1
 46 750 l 1,0,-1
EndSplineSet
EndChar

StartChar: Itilde
Encoding: 296 296 228
Width: 484
GlyphClass: 2
Flags: W
LayerCount: 2
Fore
SplineSet
90 750 m 1,0,-1
 394 750 l 1,1,-1
 394 713 l 1,2,-1
 294 690 l 1,3,-1
 294 59 l 1,4,-1
 394 37 l 1,5,-1
 394 0 l 1,6,-1
 90 0 l 1,7,-1
 90 37 l 1,8,-1
 189 60 l 1,9,-1
 189 689 l 1,10,-1
 90 713 l 1,11,-1
 90 750 l 1,0,-1
126.5 914.5 m 128,-1,13
 151 933 151 933 185.5 933 c 128,-1,14
 220 933 220 933 265.5 901 c 128,-1,15
 311 869 311 869 333 869 c 0,16,17
 370 869 370 869 408 925 c 1,18,-1
 433 907 l 1,19,20
 369 801 369 801 312 801 c 0,21,22
 286 801 286 801 235.5 833 c 128,-1,23
 185 865 185 865 152 865 c 128,-1,24
 119 865 119 865 74 807 c 1,25,-1
 52 825 l 1,26,-1
 67 846 l 2,27,12
 102 896 102 896 126.5 914.5 c 128,-1,13
EndSplineSet
EndChar

StartChar: itilde
Encoding: 297 297 229
Width: 322
GlyphClass: 2
Flags: W
LayerCount: 2
Fore
SplineSet
50 485 m 1,0,-1
 212 485 l 1,1,-1
 212 57 l 1,2,-1
 282 37 l 1,3,-1
 282 0 l 1,4,-1
 45 0 l 1,5,-1
 45 37 l 1,6,-1
 118 59 l 1,7,-1
 118 437 l 1,8,-1
 50 449 l 1,9,-1
 50 485 l 1,0,-1
45.5 731.5 m 128,-1,11
 70 750 70 750 104.5 750 c 128,-1,12
 139 750 139 750 184.5 718 c 128,-1,13
 230 686 230 686 252 686 c 0,14,15
 289 686 289 686 327 742 c 1,16,-1
 352 724 l 1,17,18
 288 618 288 618 231 618 c 0,19,20
 206 618 206 618 155 650 c 128,-1,21
 104 682 104 682 71 682 c 128,-1,22
 38 682 38 682 -7 624 c 1,23,-1
 -29 642 l 1,24,-1
 -14 663 l 2,25,10
 21 713 21 713 45.5 731.5 c 128,-1,11
EndSplineSet
EndChar

StartChar: Imacron
Encoding: 298 298 230
Width: 484
GlyphClass: 2
Flags: W
LayerCount: 2
Fore
SplineSet
90 750 m 1,0,-1
 394 750 l 1,1,-1
 394 713 l 1,2,-1
 294 690 l 1,3,-1
 294 59 l 1,4,-1
 394 37 l 1,5,-1
 394 0 l 1,6,-1
 90 0 l 1,7,-1
 90 37 l 1,8,-1
 189 60 l 1,9,-1
 189 689 l 1,10,-1
 90 713 l 1,11,-1
 90 750 l 1,0,-1
98 937 m 1,12,-1
 387 937 l 1,13,-1
 387 863 l 1,14,-1
 98 863 l 1,15,-1
 98 937 l 1,12,-1
EndSplineSet
EndChar

StartChar: imacron
Encoding: 299 299 231
Width: 322
GlyphClass: 2
Flags: W
LayerCount: 2
Fore
SplineSet
50 485 m 1,0,-1
 212 485 l 1,1,-1
 212 57 l 1,2,-1
 282 37 l 1,3,-1
 282 0 l 1,4,-1
 45 0 l 1,5,-1
 45 37 l 1,6,-1
 118 59 l 1,7,-1
 118 437 l 1,8,-1
 50 449 l 1,9,-1
 50 485 l 1,0,-1
0 690 m 1,10,-1
 289 690 l 1,11,-1
 289 616 l 1,12,-1
 0 616 l 1,13,-1
 0 690 l 1,10,-1
EndSplineSet
EndChar

StartChar: Ibreve
Encoding: 300 300 232
Width: 479
GlyphClass: 2
Flags: W
LayerCount: 2
Fore
SplineSet
84 750 m 1,0,-1
 388 750 l 1,1,-1
 388 713 l 1,2,-1
 288 690 l 1,3,-1
 288 59 l 1,4,-1
 388 37 l 1,5,-1
 388 0 l 1,6,-1
 84 0 l 1,7,-1
 84 37 l 1,8,-1
 183 60 l 1,9,-1
 183 689 l 1,10,-1
 84 713 l 1,11,-1
 84 750 l 1,0,-1
379 957 m 1,12,-1
 409 957 l 1,13,14
 409 883 409 883 359 842 c 128,-1,15
 309 801 309 801 240 801 c 128,-1,16
 171 801 171 801 120.5 842 c 128,-1,17
 70 883 70 883 70 957 c 1,18,-1
 102 957 l 1,19,20
 102 917 102 917 143.5 894 c 128,-1,21
 185 871 185 871 240.5 871 c 128,-1,22
 296 871 296 871 337.5 894 c 128,-1,23
 379 917 379 917 379 957 c 1,12,-1
EndSplineSet
EndChar

StartChar: ibreve
Encoding: 301 301 233
Width: 322
GlyphClass: 2
Flags: W
LayerCount: 2
Fore
SplineSet
50 485 m 1,0,-1
 212 485 l 1,1,-1
 212 57 l 1,2,-1
 282 37 l 1,3,-1
 282 0 l 1,4,-1
 45 0 l 1,5,-1
 45 37 l 1,6,-1
 118 59 l 1,7,-1
 118 437 l 1,8,-1
 50 449 l 1,9,-1
 50 485 l 1,0,-1
301 750 m 1,10,-1
 331 750 l 1,11,12
 331 676 331 676 281 635 c 128,-1,13
 231 594 231 594 162 594 c 128,-1,14
 93 594 93 594 42.5 635 c 128,-1,15
 -8 676 -8 676 -8 750 c 1,16,-1
 24 750 l 1,17,18
 24 710 24 710 65.5 687 c 128,-1,19
 107 664 107 664 162.5 664 c 128,-1,20
 218 664 218 664 259.5 687 c 128,-1,21
 301 710 301 710 301 750 c 1,10,-1
EndSplineSet
EndChar

StartChar: Iogonek
Encoding: 302 302 234
Width: 484
GlyphClass: 2
Flags: W
LayerCount: 2
Fore
SplineSet
200.5 -191 m 128,-1,1
 156 -155 156 -155 156 -111.5 c 128,-1,2
 156 -68 156 -68 184 -38.5 c 128,-1,3
 212 -9 212 -9 264 0 c 1,4,-1
 90 0 l 1,5,-1
 90 37 l 1,6,-1
 189 60 l 1,7,-1
 189 689 l 1,8,-1
 90 713 l 1,9,-1
 90 750 l 1,10,-1
 394 750 l 1,11,-1
 394 713 l 1,12,-1
 294 690 l 1,13,-1
 294 59 l 1,14,-1
 394 37 l 1,15,-1
 394 0 l 1,16,-1
 293 0 l 1,17,18
 262 -12 262 -12 244.5 -41.5 c 128,-1,19
 227 -71 227 -71 227 -107 c 128,-1,20
 227 -143 227 -143 250 -168.5 c 128,-1,21
 273 -194 273 -194 318 -195 c 1,22,-1
 324 -227 l 1,23,0
 245 -227 245 -227 200.5 -191 c 128,-1,1
EndSplineSet
EndChar

StartChar: iogonek
Encoding: 303 303 235
Width: 322
GlyphClass: 2
Flags: W
LayerCount: 2
Fore
SplineSet
121.5 -191 m 128,-1,1
 77 -155 77 -155 77 -111.5 c 128,-1,2
 77 -68 77 -68 105 -38.5 c 128,-1,3
 133 -9 133 -9 185 0 c 1,4,-1
 45 0 l 1,5,-1
 45 37 l 1,6,-1
 118 59 l 1,7,-1
 118 437 l 1,8,-1
 50 449 l 1,9,-1
 50 485 l 1,10,-1
 212 485 l 1,11,-1
 212 57 l 1,12,-1
 282 37 l 1,13,-1
 282 0 l 1,14,-1
 214 0 l 1,15,16
 183 -12 183 -12 165.5 -41.5 c 128,-1,17
 148 -71 148 -71 148 -107 c 128,-1,18
 148 -143 148 -143 171 -168.5 c 128,-1,19
 194 -194 194 -194 239 -195 c 1,20,-1
 245 -227 l 1,21,0
 166 -227 166 -227 121.5 -191 c 128,-1,1
100.5 740.5 m 128,-1,23
 118 756 118 756 147.5 756 c 128,-1,24
 177 756 177 756 195 740.5 c 128,-1,25
 213 725 213 725 213 698.5 c 128,-1,26
 213 672 213 672 196 656 c 128,-1,27
 179 640 179 640 148.5 640 c 128,-1,28
 118 640 118 640 100.5 655.5 c 128,-1,29
 83 671 83 671 83 698 c 128,-1,22
 83 725 83 725 100.5 740.5 c 128,-1,23
EndSplineSet
EndChar

StartChar: Idotaccent
Encoding: 304 304 236
Width: 484
GlyphClass: 2
Flags: W
LayerCount: 2
Fore
SplineSet
90 750 m 1,0,-1
 394 750 l 1,1,-1
 394 713 l 1,2,-1
 294 690 l 1,3,-1
 294 59 l 1,4,-1
 394 37 l 1,5,-1
 394 0 l 1,6,-1
 90 0 l 1,7,-1
 90 37 l 1,8,-1
 189 60 l 1,9,-1
 189 689 l 1,10,-1
 90 713 l 1,11,-1
 90 750 l 1,0,-1
197.5 948.5 m 128,-1,13
 215 964 215 964 244.5 964 c 128,-1,14
 274 964 274 964 292 948.5 c 128,-1,15
 310 933 310 933 310 906.5 c 128,-1,16
 310 880 310 880 293 864 c 128,-1,17
 276 848 276 848 245.5 848 c 128,-1,18
 215 848 215 848 197.5 863.5 c 128,-1,19
 180 879 180 879 180 906 c 128,-1,12
 180 933 180 933 197.5 948.5 c 128,-1,13
EndSplineSet
EndChar

StartChar: dotlessi
Encoding: 305 305 237
Width: 322
GlyphClass: 2
Flags: W
LayerCount: 2
Fore
SplineSet
50 485 m 1,0,-1
 212 485 l 1,1,-1
 212 57 l 1,2,-1
 282 37 l 1,3,-1
 282 0 l 1,4,-1
 45 0 l 1,5,-1
 45 37 l 1,6,-1
 118 59 l 1,7,-1
 118 437 l 1,8,-1
 50 449 l 1,9,-1
 50 485 l 1,0,-1
EndSplineSet
EndChar

StartChar: Jcircumflex
Encoding: 308 308 238
Width: 475
GlyphClass: 2
Flags: W
LayerCount: 2
Fore
SplineSet
81 750 m 1,0,-1
 385 750 l 1,1,-1
 385 713 l 1,2,-1
 284 690 l 1,3,-1
 284 278 l 2,4,5
 284 88 284 88 277 53 c 128,-1,6
 270 18 270 18 261 -17.5 c 128,-1,7
 252 -53 252 -53 238.5 -75 c 128,-1,8
 225 -97 225 -97 206 -126 c 0,9,10
 176 -171 176 -171 98 -240 c 1,11,-1
 70 -223 l 1,12,13
 126 -150 126 -150 142 -110 c 128,-1,14
 158 -70 158 -70 164.5 -48 c 128,-1,15
 171 -26 171 -26 174 14 c 0,16,17
 178 66 178 66 178 168 c 2,18,-1
 178 690 l 1,19,-1
 81 713 l 1,20,-1
 81 750 l 1,0,-1
247 965 m 1,21,-1
 402 801 l 1,22,-1
 362 801 l 1,23,-1
 230 876 l 1,24,-1
 106 801 l 1,25,-1
 67 801 l 1,26,-1
 213 965 l 1,27,-1
 247 965 l 1,21,-1
EndSplineSet
EndChar

StartChar: jcircumflex
Encoding: 309 309 239
Width: 241
GlyphClass: 2
Flags: W
LayerCount: 2
Fore
SplineSet
22 485 m 1,0,-1
 184 485 l 1,1,-1
 184 38 l 2,2,3
 184 -61 184 -61 171.5 -116 c 128,-1,4
 159 -171 159 -171 133.5 -209 c 128,-1,5
 108 -247 108 -247 39 -322 c 1,6,-1
 10 -300 l 1,7,8
 67 -234 67 -234 78 -184 c 128,-1,9
 89 -134 89 -134 89 -15 c 2,10,-1
 89 437 l 1,11,-1
 22 449 l 1,12,-1
 22 485 l 1,0,-1
133 750 m 1,13,-1
 288 586 l 1,14,-1
 248 586 l 1,15,-1
 116 661 l 1,16,-1
 -8 586 l 1,17,-1
 -47 586 l 1,18,-1
 99 750 l 1,19,-1
 133 750 l 1,13,-1
EndSplineSet
EndChar

StartChar: uni0136
Encoding: 310 310 240
Width: 862
GlyphClass: 2
Flags: W
LayerCount: 2
Fore
SplineSet
400 -257 m 1,0,-1
 354 -257 l 1,1,-1
 421 -77 l 1,2,-1
 548 -77 l 1,3,-1
 400 -257 l 1,0,-1
490 750 m 1,4,-1
 744 750 l 1,5,-1
 744 713 l 1,6,-1
 655 691 l 1,7,-1
 383 435 l 1,8,-1
 694 59 l 1,9,-1
 812 37 l 1,10,-1
 812 0 l 1,11,-1
 602 0 l 1,12,-1
 294 378 l 1,13,-1
 294 59 l 1,14,-1
 394 37 l 1,15,-1
 394 0 l 1,16,-1
 90 0 l 1,17,-1
 90 37 l 1,18,-1
 189 60 l 1,19,-1
 189 689 l 1,20,-1
 90 713 l 1,21,-1
 90 750 l 1,22,-1
 394 750 l 1,23,-1
 394 713 l 1,24,-1
 294 690 l 1,25,-1
 294 398 l 1,26,-1
 568 694 l 1,27,-1
 490 713 l 1,28,-1
 490 750 l 1,4,-1
EndSplineSet
EndChar

StartChar: uni0137
Encoding: 311 311 241
Width: 646
GlyphClass: 2
Flags: W
LayerCount: 2
Fore
SplineSet
280 -257 m 1,0,-1
 234 -257 l 1,1,-1
 301 -77 l 1,2,-1
 428 -77 l 1,3,-1
 280 -257 l 1,0,-1
60 750 m 1,4,-1
 238 750 l 1,5,-1
 238 279 l 1,6,-1
 401 429 l 1,7,-1
 329 447 l 1,8,-1
 329 484 l 1,9,-1
 559 484 l 1,10,-1
 559 447 l 1,11,-1
 471 426 l 1,12,-1
 320 304 l 1,13,-1
 538 61 l 1,14,-1
 636 37 l 1,15,-1
 636 0 l 1,16,-1
 467 0 l 1,17,-1
 238 261 l 1,18,-1
 238 61 l 1,19,-1
 314 37 l 1,20,-1
 314 0 l 1,21,-1
 60 0 l 1,22,-1
 60 37 l 1,23,-1
 143 60 l 1,24,-1
 143 700 l 1,25,-1
 60 714 l 1,26,-1
 60 750 l 1,4,-1
EndSplineSet
EndChar

StartChar: Lacute
Encoding: 313 313 242
Width: 702
GlyphClass: 2
Flags: W
LayerCount: 2
Fore
SplineSet
90 750 m 1,0,-1
 394 750 l 1,1,-1
 394 713 l 1,2,-1
 295 690 l 1,3,-1
 295 44 l 1,4,-1
 551 44 l 1,5,-1
 590 189 l 1,6,-1
 642 189 l 1,7,-1
 642 0 l 1,8,-1
 90 0 l 1,9,-1
 90 37 l 1,10,-1
 190 60 l 1,11,-1
 190 689 l 1,12,-1
 90 713 l 1,13,-1
 90 750 l 1,0,-1
140 801 m 1,14,-1
 108 801 l 1,15,-1
 240 947 l 1,16,-1
 374 947 l 1,17,-1
 140 801 l 1,14,-1
EndSplineSet
EndChar

StartChar: lacute
Encoding: 314 314 243
Width: 344
GlyphClass: 2
Flags: W
LayerCount: 2
Fore
SplineSet
66 750 m 1,0,-1
 233 750 l 1,1,-1
 233 59 l 1,2,-1
 314 37 l 1,3,-1
 314 0 l 1,4,-1
 60 0 l 1,5,-1
 60 37 l 1,6,-1
 138 58 l 1,7,-1
 138 702 l 1,8,-1
 66 714 l 1,9,-1
 66 750 l 1,0,-1
81 800 m 1,10,-1
 49 800 l 1,11,-1
 181 946 l 1,12,-1
 315 946 l 1,13,-1
 81 800 l 1,10,-1
EndSplineSet
EndChar

StartChar: uni013B
Encoding: 315 315 244
Width: 702
GlyphClass: 2
Flags: W
LayerCount: 2
Fore
SplineSet
297 -257 m 1,0,-1
 251 -257 l 1,1,-1
 318 -77 l 1,2,-1
 445 -77 l 1,3,-1
 297 -257 l 1,0,-1
90 750 m 1,4,-1
 394 750 l 1,5,-1
 394 713 l 1,6,-1
 295 690 l 1,7,-1
 295 44 l 1,8,-1
 551 44 l 1,9,-1
 590 189 l 1,10,-1
 642 189 l 1,11,-1
 642 0 l 1,12,-1
 90 0 l 1,13,-1
 90 37 l 1,14,-1
 190 60 l 1,15,-1
 190 689 l 1,16,-1
 90 713 l 1,17,-1
 90 750 l 1,4,-1
EndSplineSet
EndChar

StartChar: uni013C
Encoding: 316 316 245
Width: 344
GlyphClass: 2
Flags: W
LayerCount: 2
Fore
SplineSet
66 750 m 1,0,-1
 233 750 l 1,1,-1
 233 59 l 1,2,-1
 314 37 l 1,3,-1
 314 0 l 1,4,-1
 60 0 l 1,5,-1
 60 37 l 1,6,-1
 138 58 l 1,7,-1
 138 702 l 1,8,-1
 66 714 l 1,9,-1
 66 750 l 1,0,-1
121 -257 m 1,10,-1
 75 -257 l 1,11,-1
 142 -77 l 1,12,-1
 269 -77 l 1,13,-1
 121 -257 l 1,10,-1
EndSplineSet
EndChar

StartChar: Lcaron
Encoding: 317 317 246
Width: 702
GlyphClass: 2
Flags: W
LayerCount: 2
Fore
SplineSet
507 571 m 1,0,-1
 461 571 l 1,1,-1
 528 751 l 1,2,-1
 655 751 l 1,3,-1
 507 571 l 1,0,-1
90 750 m 1,4,-1
 394 750 l 1,5,-1
 394 713 l 1,6,-1
 295 690 l 1,7,-1
 295 44 l 1,8,-1
 551 44 l 1,9,-1
 590 189 l 1,10,-1
 642 189 l 1,11,-1
 642 0 l 1,12,-1
 90 0 l 1,13,-1
 90 37 l 1,14,-1
 190 60 l 1,15,-1
 190 689 l 1,16,-1
 90 713 l 1,17,-1
 90 750 l 1,4,-1
EndSplineSet
EndChar

StartChar: lcaron
Encoding: 318 318 247
Width: 485
GlyphClass: 2
Flags: W
LayerCount: 2
Fore
SplineSet
332 571 m 1,0,-1
 286 571 l 1,1,-1
 353 751 l 1,2,-1
 480 751 l 1,3,-1
 332 571 l 1,0,-1
66 750 m 1,4,-1
 233 750 l 1,5,-1
 233 59 l 1,6,-1
 314 37 l 1,7,-1
 314 0 l 1,8,-1
 60 0 l 1,9,-1
 60 37 l 1,10,-1
 138 58 l 1,11,-1
 138 702 l 1,12,-1
 66 714 l 1,13,-1
 66 750 l 1,4,-1
EndSplineSet
EndChar

StartChar: Ldot
Encoding: 319 319 248
Width: 702
GlyphClass: 2
Flags: W
LayerCount: 2
Fore
SplineSet
90 750 m 1,0,-1
 394 750 l 1,1,-1
 394 713 l 1,2,-1
 295 690 l 1,3,-1
 295 44 l 1,4,-1
 551 44 l 1,5,-1
 590 189 l 1,6,-1
 642 189 l 1,7,-1
 642 0 l 1,8,-1
 90 0 l 1,9,-1
 90 37 l 1,10,-1
 190 60 l 1,11,-1
 190 689 l 1,12,-1
 90 713 l 1,13,-1
 90 750 l 1,0,-1
434 465.5 m 128,-1,15
 452 485 452 485 481.5 485 c 128,-1,16
 511 485 511 485 529.5 466.5 c 128,-1,17
 548 448 548 448 548 419.5 c 128,-1,18
 548 391 548 391 529.5 372.5 c 128,-1,19
 511 354 511 354 482.5 354 c 128,-1,20
 454 354 454 354 435 373 c 128,-1,21
 416 392 416 392 416 419 c 128,-1,14
 416 446 416 446 434 465.5 c 128,-1,15
EndSplineSet
EndChar

StartChar: ldot
Encoding: 320 320 249
Width: 416
GlyphClass: 2
Flags: W
LayerCount: 2
Fore
SplineSet
66 750 m 1,0,-1
 233 750 l 1,1,-1
 233 59 l 1,2,-1
 314 37 l 1,3,-1
 314 0 l 1,4,-1
 60 0 l 1,5,-1
 60 37 l 1,6,-1
 138 58 l 1,7,-1
 138 702 l 1,8,-1
 66 714 l 1,9,-1
 66 750 l 1,0,-1
296 363.5 m 128,-1,11
 314 383 314 383 343.5 383 c 128,-1,12
 373 383 373 383 391.5 364.5 c 128,-1,13
 410 346 410 346 410 317.5 c 128,-1,14
 410 289 410 289 391.5 270.5 c 128,-1,15
 373 252 373 252 344.5 252 c 128,-1,16
 316 252 316 252 297 271 c 128,-1,17
 278 290 278 290 278 317 c 128,-1,10
 278 344 278 344 296 363.5 c 128,-1,11
EndSplineSet
EndChar

StartChar: Lslash
Encoding: 321 321 250
Width: 567
GlyphClass: 2
Flags: W
LayerCount: 2
Fore
SplineSet
49 750 m 1,0,-1
 353 750 l 1,1,-1
 353 713 l 1,2,-1
 254 690 l 1,3,-1
 254 396 l 1,4,-1
 362 504 l 1,5,-1
 394 472 l 1,6,-1
 254 331 l 1,7,-1
 254 44 l 1,8,-1
 510 44 l 1,9,-1
 549 189 l 1,10,-1
 601 189 l 1,11,-1
 601 0 l 1,12,-1
 49 0 l 1,13,-1
 49 37 l 1,14,-1
 149 60 l 1,15,-1
 149 226 l 1,16,-1
 54 131 l 1,17,-1
 21 163 l 1,18,-1
 149 291 l 1,19,-1
 149 689 l 1,20,-1
 49 713 l 1,21,-1
 49 750 l 1,0,-1
EndSplineSet
EndChar

StartChar: lslash
Encoding: 322 322 251
Width: 264
GlyphClass: 2
Flags: W
LayerCount: 2
Fore
SplineSet
80 750 m 1,0,-1
 247 750 l 1,1,-1
 247 399 l 1,2,-1
 352 504 l 1,3,-1
 384 472 l 1,4,-1
 247 334 l 1,5,-1
 247 59 l 1,6,-1
 328 37 l 1,7,-1
 328 0 l 1,8,-1
 74 0 l 1,9,-1
 74 37 l 1,10,-1
 152 58 l 1,11,-1
 152 239 l 1,12,-1
 44 131 l 1,13,-1
 11 163 l 1,14,-1
 152 304 l 1,15,-1
 152 702 l 1,16,-1
 80 714 l 1,17,-1
 80 750 l 1,0,-1
EndSplineSet
EndChar

StartChar: Nacute
Encoding: 323 323 252
Width: 959
GlyphClass: 2
Flags: W
LayerCount: 2
Fore
SplineSet
623 750 m 1,0,-1
 869 750 l 1,1,-1
 869 713 l 1,2,-1
 771 688 l 1,3,-1
 771 0 l 1,4,-1
 701 0 l 1,5,-1
 233 686 l 1,6,-1
 233 59 l 1,7,-1
 331 37 l 1,8,-1
 331 0 l 1,9,-1
 90 0 l 1,10,-1
 90 37 l 1,11,-1
 183 59 l 1,12,-1
 183 687 l 1,13,-1
 90 713 l 1,14,-1
 90 750 l 1,15,-1
 313 750 l 1,16,-1
 721 158 l 1,17,-1
 721 687 l 1,18,-1
 623 713 l 1,19,-1
 623 750 l 1,0,-1
377 801 m 1,20,-1
 345 801 l 1,21,-1
 477 947 l 1,22,-1
 611 947 l 1,23,-1
 377 801 l 1,20,-1
EndSplineSet
EndChar

StartChar: nacute
Encoding: 324 324 253
Width: 688
GlyphClass: 2
Flags: W
LayerCount: 2
Fore
SplineSet
67 486 m 1,0,-1
 229 486 l 1,1,-1
 229 345 l 1,2,3
 269 493 269 493 407 493 c 0,4,5
 488 493 488 493 527 443.5 c 128,-1,6
 566 394 566 394 566 307 c 2,7,-1
 566 59 l 1,8,-1
 643 37 l 1,9,-1
 643 0 l 1,10,-1
 406 0 l 1,11,-1
 406 37 l 1,12,-1
 473 57 l 1,13,-1
 473 295 l 2,14,15
 473 376 473 376 451.5 411 c 128,-1,16
 430 446 430 446 384 446 c 0,17,18
 313 446 313 446 274.5 378.5 c 128,-1,19
 236 311 236 311 236 176 c 2,20,-1
 236 57 l 1,21,-1
 306 37 l 1,22,-1
 306 0 l 1,23,-1
 67 0 l 1,24,-1
 67 37 l 1,25,-1
 141 58 l 1,26,-1
 141 436 l 1,27,-1
 67 450 l 1,28,-1
 67 486 l 1,0,-1
243 604 m 1,29,-1
 211 604 l 1,30,-1
 343 750 l 1,31,-1
 477 750 l 1,32,-1
 243 604 l 1,29,-1
EndSplineSet
EndChar

StartChar: uni0145
Encoding: 325 325 254
Width: 959
GlyphClass: 2
Flags: W
LayerCount: 2
Fore
SplineSet
425 -257 m 1,0,-1
 379 -257 l 1,1,-1
 446 -77 l 1,2,-1
 573 -77 l 1,3,-1
 425 -257 l 1,0,-1
623 750 m 1,4,-1
 869 750 l 1,5,-1
 869 713 l 1,6,-1
 771 688 l 1,7,-1
 771 0 l 1,8,-1
 701 0 l 1,9,-1
 233 686 l 1,10,-1
 233 59 l 1,11,-1
 331 37 l 1,12,-1
 331 0 l 1,13,-1
 90 0 l 1,14,-1
 90 37 l 1,15,-1
 183 59 l 1,16,-1
 183 687 l 1,17,-1
 90 713 l 1,18,-1
 90 750 l 1,19,-1
 313 750 l 1,20,-1
 721 158 l 1,21,-1
 721 687 l 1,22,-1
 623 713 l 1,23,-1
 623 750 l 1,4,-1
EndSplineSet
EndChar

StartChar: uni0146
Encoding: 326 326 255
Width: 688
GlyphClass: 2
Flags: W
LayerCount: 2
Fore
SplineSet
67 486 m 1,0,-1
 229 486 l 1,1,-1
 229 345 l 1,2,3
 269 493 269 493 407 493 c 0,4,5
 488 493 488 493 527 443.5 c 128,-1,6
 566 394 566 394 566 307 c 2,7,-1
 566 59 l 1,8,-1
 643 37 l 1,9,-1
 643 0 l 1,10,-1
 406 0 l 1,11,-1
 406 37 l 1,12,-1
 473 57 l 1,13,-1
 473 295 l 2,14,15
 473 376 473 376 451.5 411 c 128,-1,16
 430 446 430 446 384 446 c 0,17,18
 313 446 313 446 274.5 378.5 c 128,-1,19
 236 311 236 311 236 176 c 2,20,-1
 236 57 l 1,21,-1
 306 37 l 1,22,-1
 306 0 l 1,23,-1
 67 0 l 1,24,-1
 67 37 l 1,25,-1
 141 58 l 1,26,-1
 141 436 l 1,27,-1
 67 450 l 1,28,-1
 67 486 l 1,0,-1
293 -257 m 1,29,-1
 247 -257 l 1,30,-1
 314 -77 l 1,31,-1
 441 -77 l 1,32,-1
 293 -257 l 1,29,-1
EndSplineSet
EndChar

StartChar: Ncaron
Encoding: 327 327 256
Width: 959
GlyphClass: 2
Flags: W
LayerCount: 2
Fore
SplineSet
623 750 m 1,0,-1
 869 750 l 1,1,-1
 869 713 l 1,2,-1
 771 688 l 1,3,-1
 771 0 l 1,4,-1
 701 0 l 1,5,-1
 233 686 l 1,6,-1
 233 59 l 1,7,-1
 331 37 l 1,8,-1
 331 0 l 1,9,-1
 90 0 l 1,10,-1
 90 37 l 1,11,-1
 183 59 l 1,12,-1
 183 687 l 1,13,-1
 90 713 l 1,14,-1
 90 750 l 1,15,-1
 313 750 l 1,16,-1
 721 158 l 1,17,-1
 721 687 l 1,18,-1
 623 713 l 1,19,-1
 623 750 l 1,0,-1
483 801 m 1,20,-1
 331 964 l 1,21,-1
 370 964 l 1,22,-1
 500 891 l 1,23,-1
 626 964 l 1,24,-1
 666 964 l 1,25,-1
 516 801 l 1,26,-1
 483 801 l 1,20,-1
EndSplineSet
EndChar

StartChar: ncaron
Encoding: 328 328 257
Width: 688
GlyphClass: 2
Flags: W
LayerCount: 2
Fore
SplineSet
67 486 m 1,0,-1
 229 486 l 1,1,-1
 229 345 l 1,2,3
 269 493 269 493 407 493 c 0,4,5
 488 493 488 493 527 443.5 c 128,-1,6
 566 394 566 394 566 307 c 2,7,-1
 566 59 l 1,8,-1
 643 37 l 1,9,-1
 643 0 l 1,10,-1
 406 0 l 1,11,-1
 406 37 l 1,12,-1
 473 57 l 1,13,-1
 473 295 l 2,14,15
 473 376 473 376 451.5 411 c 128,-1,16
 430 446 430 446 384 446 c 0,17,18
 313 446 313 446 274.5 378.5 c 128,-1,19
 236 311 236 311 236 176 c 2,20,-1
 236 57 l 1,21,-1
 306 37 l 1,22,-1
 306 0 l 1,23,-1
 67 0 l 1,24,-1
 67 37 l 1,25,-1
 141 58 l 1,26,-1
 141 436 l 1,27,-1
 67 450 l 1,28,-1
 67 486 l 1,0,-1
328 587 m 1,29,-1
 176 750 l 1,30,-1
 215 750 l 1,31,-1
 345 677 l 1,32,-1
 471 750 l 1,33,-1
 511 750 l 1,34,-1
 361 587 l 1,35,-1
 328 587 l 1,29,-1
EndSplineSet
EndChar

StartChar: napostrophe
Encoding: 329 329 258
Width: 688
GlyphClass: 2
Flags: W
LayerCount: 2
Fore
SplineSet
67 486 m 1,0,-1
 229 486 l 1,1,-1
 229 345 l 1,2,3
 269 493 269 493 407 493 c 0,4,5
 488 493 488 493 527 443.5 c 128,-1,6
 566 394 566 394 566 307 c 2,7,-1
 566 59 l 1,8,-1
 643 37 l 1,9,-1
 643 0 l 1,10,-1
 406 0 l 1,11,-1
 406 37 l 1,12,-1
 473 57 l 1,13,-1
 473 295 l 2,14,15
 473 376 473 376 451.5 411 c 128,-1,16
 430 446 430 446 384 446 c 0,17,18
 313 446 313 446 274.5 378.5 c 128,-1,19
 236 311 236 311 236 176 c 2,20,-1
 236 57 l 1,21,-1
 306 37 l 1,22,-1
 306 0 l 1,23,-1
 67 0 l 1,24,-1
 67 37 l 1,25,-1
 141 58 l 1,26,-1
 141 436 l 1,27,-1
 67 450 l 1,28,-1
 67 486 l 1,0,-1
315 571 m 1,29,-1
 269 571 l 1,30,-1
 336 751 l 1,31,-1
 463 751 l 1,32,-1
 315 571 l 1,29,-1
EndSplineSet
EndChar

StartChar: Omacron
Encoding: 332 332 259
Width: 832
GlyphClass: 2
Flags: W
LayerCount: 2
Fore
SplineSet
595.5 639 m 128,-1,1
 533 728 533 728 415.5 728 c 128,-1,2
 298 728 298 728 237 637 c 128,-1,3
 176 546 176 546 176 375 c 128,-1,4
 176 204 176 204 235.5 112.5 c 128,-1,5
 295 21 295 21 412 21 c 128,-1,6
 529 21 529 21 593.5 111 c 128,-1,7
 658 201 658 201 658 375.5 c 128,-1,0
 658 550 658 550 595.5 639 c 128,-1,1
160 661.5 m 128,-1,9
 260 768 260 768 417.5 768 c 128,-1,10
 575 768 575 768 673.5 659 c 128,-1,11
 772 550 772 550 772 373 c 128,-1,12
 772 196 772 196 674 88.5 c 128,-1,13
 576 -19 576 -19 415 -19 c 128,-1,14
 254 -19 254 -19 157 87.5 c 128,-1,15
 60 194 60 194 60 374.5 c 128,-1,8
 60 555 60 555 160 661.5 c 128,-1,9
274 937 m 1,16,-1
 563 937 l 1,17,-1
 563 863 l 1,18,-1
 274 863 l 1,19,-1
 274 937 l 1,16,-1
EndSplineSet
EndChar

StartChar: omacron
Encoding: 333 333 260
Width: 582
GlyphClass: 2
Flags: W
LayerCount: 2
Fore
SplineSet
401 399.5 m 128,-1,1
 368 452 368 452 293.5 452 c 128,-1,2
 219 452 219 452 183.5 401.5 c 128,-1,3
 148 351 148 351 148 240 c 128,-1,4
 148 129 148 129 183 80.5 c 128,-1,5
 218 32 218 32 290.5 32 c 128,-1,6
 363 32 363 32 398.5 81.5 c 128,-1,7
 434 131 434 131 434 239 c 128,-1,0
 434 347 434 347 401 399.5 c 128,-1,1
114 425.5 m 128,-1,9
 181 494 181 494 291.5 494 c 128,-1,10
 402 494 402 494 468 427 c 128,-1,11
 534 360 534 360 534 240 c 128,-1,12
 534 120 534 120 468 55.5 c 128,-1,13
 402 -9 402 -9 290.5 -9 c 128,-1,14
 179 -9 179 -9 113 56 c 128,-1,15
 47 121 47 121 47 239 c 128,-1,8
 47 357 47 357 114 425.5 c 128,-1,9
146 750 m 1,16,-1
 435 750 l 1,17,-1
 435 676 l 1,18,-1
 146 676 l 1,19,-1
 146 750 l 1,16,-1
EndSplineSet
EndChar

StartChar: Obreve
Encoding: 334 334 261
Width: 832
GlyphClass: 2
Flags: W
LayerCount: 2
Fore
SplineSet
595.5 639 m 128,-1,1
 533 728 533 728 415.5 728 c 128,-1,2
 298 728 298 728 237 637 c 128,-1,3
 176 546 176 546 176 375 c 128,-1,4
 176 204 176 204 235.5 112.5 c 128,-1,5
 295 21 295 21 412 21 c 128,-1,6
 529 21 529 21 593.5 111 c 128,-1,7
 658 201 658 201 658 375.5 c 128,-1,0
 658 550 658 550 595.5 639 c 128,-1,1
160 661.5 m 128,-1,9
 260 768 260 768 417.5 768 c 128,-1,10
 575 768 575 768 673.5 659 c 128,-1,11
 772 550 772 550 772 373 c 128,-1,12
 772 196 772 196 674 88.5 c 128,-1,13
 576 -19 576 -19 415 -19 c 128,-1,14
 254 -19 254 -19 157 87.5 c 128,-1,15
 60 194 60 194 60 374.5 c 128,-1,8
 60 555 60 555 160 661.5 c 128,-1,9
557 957 m 1,16,-1
 587 957 l 1,17,18
 587 883 587 883 537 842 c 128,-1,19
 487 801 487 801 418 801 c 128,-1,20
 349 801 349 801 298.5 842 c 128,-1,21
 248 883 248 883 248 957 c 1,22,-1
 280 957 l 1,23,24
 280 917 280 917 321.5 894 c 128,-1,25
 363 871 363 871 418.5 871 c 128,-1,26
 474 871 474 871 515.5 894 c 128,-1,27
 557 917 557 917 557 957 c 1,16,-1
EndSplineSet
EndChar

